InterNumeric.glyphspackage
{
color = 4;
glyphname = numbersign;
layers = (
{
background = {
shapes = (
{
closed = 1;
nodes = (
(962,100,cs),
(1168,1343,ls),
(1183,1425,o),
(1118,1510,o),
(1026,1510,cs),
(954,1510,o),
(895,1459,o),
(884,1390,cs),
(680,146,ls),
(669,61,o),
(727,-20,o),
(821,-20,cs),
(892,-20,o),
(951,32,o)
);
},
{
closed = 1;
nodes = (
(1091,340,ls),
(1171,340,o),
(1237,405,o),
(1237,486,cs),
(1237,567,o),
(1171,632,o),
(1091,632,cs),
(149,632,ls),
(69,632,o),
(3,567,o),
(3,486,cs),
(3,405,o),
(69,340,o),
(149,340,cs)
);
},
{
closed = 1;
nodes = (
(440,101,cs),
(644,1343,ls),
(658,1428,o),
(594,1510,o),
(502,1510,cs),
(430,1510,o),
(371,1458,o),
(360,1389,cs),
(156,147,ls),
(143,61,o),
(207,-20,o),
(298,-20,cs),
(370,-20,o),
(429,33,o)
);
},
{
closed = 1;
nodes = (
(1175,858,ls),
(1255,858,o),
(1321,923,o),
(1321,1004,cs),
(1321,1085,o),
(1255,1150,o),
(1175,1150,cs),
(233,1150,ls),
(153,1150,o),
(87,1085,o),
(87,1004,cs),
(87,923,o),
(153,858,o),
(233,858,cs)
);
}
);
};
layerId = m006;
shapes = (
{
closed = 1;
nodes = (
(821,-20,ls),
(892,-20,o),
(951,32,o),
(962,100,cs),
(1168,1343,ls),
(1182,1425,o),
(1118,1510,o),
(1026,1510,cs),
(1026,1510,ls),
(954,1510,o),
(895,1459,o),
(884,1390,cs),
(680,146,ls),
(667,64,o),
(727,-20,o),
(821,-20,cs)
);
},
{
closed = 1;
nodes = (
(1091,340,ls),
(1171,340,o),
(1237,405,o),
(1237,486,cs),
(1237,486,ls),
(1237,567,o),
(1171,632,o),
(1091,632,cs),
(149,632,ls),
(69,632,o),
(3,567,o),
(3,486,cs),
(3,486,ls),
(3,405,o),
(69,340,o),
(149,340,cs)
);
},
{
closed = 1;
nodes = (
(298,-20,ls),
(370,-20,o),
(429,33,o),
(440,101,cs),
(644,1343,ls),
(658,1428,o),
(594,1510,o),
(502,1510,cs),
(502,1510,ls),
(430,1510,o),
(371,1458,o),
(360,1389,cs),
(156,147,ls),
(142,62,o),
(207,-20,o),
(298,-20,cs)
);
},
{
closed = 1;
nodes = (
(1175,858,ls),
(1255,858,o),
(1321,923,o),
(1321,1004,cs),
(1321,1004,ls),
(1321,1085,o),
(1255,1150,o),
(1175,1150,cs),
(233,1150,ls),
(153,1150,o),
(87,1085,o),
(87,1004,cs),
(87,1004,ls),
(87,923,o),
(153,858,o),
(233,858,cs)
);
}
);
width = 1324;
},
{
background = {
shapes = (
{
closed = 1;
nodes = (
(826,0,l),
(1070,1490,l),
(926,1490,l),
(680,0,l)
);
},
{
closed = 1;
nodes = (
(1114,414,l),
(1138,558,l),
(26,558,l),
(2,414,l)
);
},
{
closed = 1;
nodes = (
(302,0,l),
(546,1490,l),
(402,1490,l),
(158,0,l)
);
},
{
closed = 1;
nodes = (
(1202,930,l),
(1224,1076,l),
(114,1076,l),
(90,930,l)
);
}
);
};
layerId = "B487E3D2-4ABF-4A2A-A195-DC6AACAFF568";
shapes = (
{
closed = 1;
nodes = (
(826,0,ls),
(826,0,o),
(826,0,o),
(826,0,cs),
(1070,1490,ls),
(1070,1490,o),
(1070,1490,o),
(1070,1490,cs),
(926,1490,ls),
(926,1490,o),
(926,1490,o),
(926,1490,cs),
(680,0,ls),
(680,0,o),
(680,0,o),
(680,0,cs)
);
},
{
closed = 1;
nodes = (
(1114,414,ls),
(1114,414,o),
(1114,414,o),
(1114,414,cs),
(1138,558,ls),
(1138,558,o),
(1138,558,o),
(1138,558,cs),
(26,558,ls),
(26,558,o),
(26,558,o),
(26,558,cs),
(2,414,ls),
(2,414,o),
(2,414,o),
(2,414,cs)
);
},
{
closed = 1;
nodes = (
(302,0,ls),
(302,0,o),
(302,0,o),
(302,0,cs),
(546,1490,ls),
(546,1490,o),
(546,1490,o),
(546,1490,cs),
(402,1490,ls),
(402,1490,o),
(402,1490,o),
(402,1490,cs),
(158,0,ls),
(158,0,o),
(158,0,o),
(158,0,cs)
);
},
{
closed = 1;
nodes = (
(1202,930,ls),
(1202,930,o),
(1202,930,o),
(1202,930,cs),
(1224,1076,ls),
(1224,1076,o),
(1224,1076,o),
(1224,1076,cs),
(114,1076,ls),
(114,1076,o),
(114,1076,o),
(114,1076,cs),
(90,930,ls),
(90,930,o),
(90,930,o),
(90,930,cs)
);
}
);
width = 1228;
},
{
background = {
shapes = (
{
closed = 1;
nodes = (
(751,17,cs),
(988,1466,ls),
(990,1478,o),
(980,1492,o),
(966,1492,cs),
(954,1492,o),
(945,1483,o),
(943,1473,cs),
(706,24,ls),
(704,12,o),
(714,-2,o),
(728,-2,cs),
(740,-2,o),
(749,7,o)
);
},
{
closed = 1;
nodes = (
(1076,462,ls),
(1089,462,o),
(1100,473,o),
(1100,486,cs),
(1100,499,o),
(1089,510,o),
(1076,510,cs),
(9,510,ls),
(-4,510,o),
(-15,499,o),
(-15,486,cs),
(-15,473,o),
(-4,462,o),
(9,462,cs)
);
},
{
closed = 1;
nodes = (
(227,17,cs),
(464,1466,ls),
(466,1478,o),
(456,1492,o),
(442,1492,cs),
(430,1492,o),
(421,1483,o),
(419,1473,cs),
(182,24,ls),
(180,12,o),
(190,-2,o),
(204,-2,cs),
(216,-2,o),
(225,7,o)
);
},
{
closed = 1;
nodes = (
(1161,980,ls),
(1173,980,o),
(1184,990,o),
(1184,1003,cs),
(1184,1016,o),
(1173,1026,o),
(1161,1026,cs),
(92,1026,ls),
(80,1026,o),
(69,1016,o),
(69,1003,cs),
(69,990,o),
(80,980,o),
(92,980,cs)
);
}
);
};
layerId = m005;
shapes = (
{
closed = 1;
nodes = (
(728,-2,ls),
(740,-2,o),
(749,7,o),
(751,17,cs),
(988,1466,ls),
(990,1478,o),
(980,1492,o),
(966,1492,cs),
(966,1492,ls),
(954,1492,o),
(945,1483,o),
(943,1473,cs),
(706,24,ls),
(704,12,o),
(714,-2,o),
(728,-2,cs)
);
},
{
closed = 1;
nodes = (
(1076,462,ls),
(1089,462,o),
(1100,473,o),
(1100,486,cs),
(1100,486,ls),
(1100,499,o),
(1089,510,o),
(1076,510,cs),
(9,510,ls),
(-4,510,o),
(-15,499,o),
(-15,486,cs),
(-15,486,ls),
(-15,473,o),
(-4,462,o),
(9,462,cs)
);
},
{
closed = 1;
nodes = (
(204,-2,ls),
(216,-2,o),
(225,7,o),
(227,17,cs),
(464,1466,ls),
(466,1478,o),
(456,1492,o),
(442,1492,cs),
(442,1492,ls),
(430,1492,o),
(421,1483,o),
(419,1473,cs),
(182,24,ls),
(180,12,o),
(190,-2,o),
(204,-2,cs)
);
},
{
closed = 1;
nodes = (
(1161,980,ls),
(1173,980,o),
(1184,990,o),
(1184,1003,cs),
(1184,1003,ls),
(1184,1016,o),
(1173,1026,o),
(1161,1026,cs),
(92,1026,ls),
(80,1026,o),
(69,1016,o),
(69,1003,cs),
(69,1003,ls),
(69,990,o),
(80,980,o),
(92,980,cs)
);
}
);
width = 1170;
},
{
background = {
shapes = (
{
closed = 1;
nodes = (
(748,0,l),
(992,1490,l),
(946,1490,l),
(702,0,l)
);
},
{
closed = 1;
nodes = (
(1094,462,l),
(1102,510,l),
(-8,510,l),
(-18,462,l)
);
},
{
closed = 1;
nodes = (
(224,0,l),
(468,1490,l),
(422,1490,l),
(178,0,l)
);
},
{
closed = 1;
nodes = (
(1178,980,l),
(1186,1026,l),
(76,1026,l),
(66,980,l)
);
}
);
};
layerId = "45635B2B-919A-4B12-975B-2FA0A7CA8B35";
shapes = (
{
closed = 1;
nodes = (
(748,0,ls),
(748,0,o),
(748,-1,o),
(748,0,cs),
(992,1490,ls),
(992,1490,o),
(992,1490,o),
(992,1490,cs),
(946,1490,ls),
(946,1490,o),
(946,1490,o),
(946,1490,cs),
(702,0,ls),
(702,0,o),
(702,0,o),
(702,0,cs)
);
},
{
closed = 1;
nodes = (
(1094,462,ls),
(1094,462,o),
(1094,462,o),
(1094,462,cs),
(1102,510,ls),
(1102,510,o),
(1102,510,o),
(1102,510,cs),
(-8,510,ls),
(-8,510,o),
(-8,510,o),
(-8,510,cs),
(-18,462,ls),
(-18,462,o),
(-18,462,o),
(-18,462,cs)
);
},
{
closed = 1;
nodes = (
(224,0,ls),
(224,0,o),
(224,0,o),
(224,0,cs),
(468,1490,ls),
(468,1490,o),
(468,1490,o),
(468,1490,cs),
(422,1490,ls),
(422,1490,o),
(422,1490,o),
(422,1490,cs),
(178,0,ls),
(178,0,o),
(178,0,o),
(178,0,cs)
);
},
{
closed = 1;
nodes = (
(1178,980,ls),
(1178,980,o),
(1178,980,o),
(1178,980,cs),
(1186,1026,ls),
(1186,1026,o),
(1186,1026,o),
(1186,1026,cs),
(76,1026,ls),
(76,1026,o),
(76,1026,o),
(76,1026,cs),
(66,980,ls),
(66,980,o),
(66,980,o),
(66,980,cs)
);
}
);
width = 1170;
},
{
background = {
shapes = (
{
closed = 1;
nodes = (
(946,0,l),
(1192,1490,l),
(900,1490,l),
(656,0,l)
);
},
{
closed = 1;
nodes = (
(1194,340,l),
(1244,632,l),
(46,632,l),
(-4,340,l)
);
},
{
closed = 1;
nodes = (
(424,0,l),
(668,1490,l),
(376,1490,l),
(132,0,l)
);
},
{
closed = 1;
nodes = (
(1278,858,l),
(1328,1150,l),
(130,1150,l),
(80,858,l)
);
}
);
};
layerId = m01;
shapes = (
{
closed = 1;
nodes = (
(946,0,ls),
(946,0,o),
(946,0,o),
(946,0,cs),
(1192,1490,ls),
(1192,1490,o),
(1192,1490,o),
(1192,1490,cs),
(900,1490,ls),
(900,1490,o),
(900,1490,o),
(900,1490,cs),
(656,0,ls),
(656,0,o),
(656,0,o),
(656,0,cs)
);
},
{
closed = 1;
nodes = (
(1194,340,ls),
(1194,340,o),
(1194,340,o),
(1194,340,cs),
(1244,632,ls),
(1244,632,o),
(1244,632,o),
(1244,632,cs),
(46,632,ls),
(46,632,o),
(46,632,o),
(46,632,cs),
(-4,340,ls),
(-4,340,o),
(-4,340,o),
(-4,340,cs)
);
},
{
closed = 1;
nodes = (
(424,0,ls),
(424,0,o),
(424,0,o),
(424,0,cs),
(668,1490,ls),
(668,1490,o),
(668,1490,o),
(668,1490,cs),
(376,1490,ls),
(376,1490,o),
(377,1496,o),
(376,1490,cs),
(132,0,ls),
(132,0,o),
(132,0,o),
(132,0,cs)
);
},
{
closed = 1;
nodes = (
(1278,858,ls),
(1278,858,o),
(1278,858,o),
(1278,858,cs),
(1328,1150,ls),
(1328,1150,o),
(1328,1150,o),
(1328,1150,cs),
(130,1150,ls),
(130,1150,o),
(130,1150,o),
(130,1150,cs),
(80,858,ls),
(80,858,o),
(80,858,o),
(80,858,cs)
);
}
);
width = 1324;
},
{
layerId = m009;
shapes = (
{
closed = 1;
nodes = (
(887,0,ls),
(922,0,o),
(950,23,o),
(956,59,cs),
(1177,1400,ls),
(1185,1451,o),
(1151,1490,o),
(1101,1490,cs),
(959,1490,ls),
(924,1490,o),
(896,1467,o),
(890,1431,cs),
(671,90,ls),
(663,39,o),
(697,0,o),
(747,0,cs)
);
},
{
closed = 1;
nodes = (
(1135,340,ls),
(1170,340,o),
(1198,363,o),
(1204,398,cs),
(1228,541,ls),
(1237,592,o),
(1203,632,o),
(1152,632,cs),
(105,632,ls),
(70,632,o),
(42,609,o),
(36,574,cs),
(12,431,ls),
(3,380,o),
(37,340,o),
(88,340,cs)
);
},
{
closed = 1;
nodes = (
(365,0,ls),
(400,0,o),
(428,23,o),
(434,59,cs),
(653,1400,ls),
(661,1451,o),
(627,1490,o),
(577,1490,cs),
(435,1490,ls),
(400,1490,o),
(372,1467,o),
(366,1431,cs),
(147,90,ls),
(139,39,o),
(173,0,o),
(223,0,cs)
);
},
{
closed = 1;
nodes = (
(1219,858,ls),
(1254,858,o),
(1282,881,o),
(1288,916,cs),
(1312,1059,ls),
(1321,1110,o),
(1287,1150,o),
(1236,1150,cs),
(189,1150,ls),
(154,1150,o),
(126,1127,o),
(120,1092,cs),
(96,949,ls),
(87,898,o),
(121,858,o),
(172,858,cs)
);
}
);
width = 1324;
},
{
background = {
shapes = (
{
closed = 1;
nodes = (
(748,0,l),
(992,1490,l),
(946,1490,l),
(702,0,l)
);
},
{
closed = 1;
nodes = (
(1094,462,l),
(1102,510,l),
(-8,510,l),
(-18,462,l)
);
},
{
closed = 1;
nodes = (
(224,0,l),
(468,1490,l),
(422,1490,l),
(178,0,l)
);
},
{
closed = 1;
nodes = (
(1178,980,l),
(1186,1026,l),
(76,1026,l),
(66,980,l)
);
}
);
};
layerId = m007;
shapes = (
{
closed = 1;
nodes = (
(736,0,ls),
(743,0,o),
(749,4,o),
(750,12,cs),
(989,1471,ls),
(991,1482,o),
(983,1490,o),
(973,1490,cs),
(958,1490,ls),
(951,1490,o),
(945,1486,o),
(944,1478,cs),
(705,19,ls),
(703,8,o),
(711,0,o),
(721,0,cs)
);
},
{
closed = 1;
nodes = (
(1082,462,ls),
(1089,462,o),
(1095,466,o),
(1096,474,cs),
(1099,491,ls),
(1101,502,o),
(1093,510,o),
(1083,510,cs),
(4,510,ls),
(-3,510,o),
(-9,506,o),
(-10,499,cs),
(-14,482,ls),
(-16,472,o),
(-9,462,o),
(2,462,cs)
);
},
{
closed = 1;
nodes = (
(212,0,ls),
(219,0,o),
(225,4,o),
(226,12,cs),
(465,1471,ls),
(467,1482,o),
(459,1490,o),
(449,1490,cs),
(434,1490,ls),
(427,1490,o),
(421,1486,o),
(420,1478,cs),
(181,19,ls),
(179,8,o),
(187,0,o),
(197,0,cs)
);
},
{
closed = 1;
nodes = (
(1166,980,ls),
(1173,980,o),
(1179,984,o),
(1180,992,cs),
(1183,1007,ls),
(1185,1017,o),
(1177,1026,o),
(1167,1026,cs),
(87,1026,ls),
(80,1026,o),
(74,1021,o),
(73,1015,cs),
(70,1000,ls),
(68,989,o),
(75,980,o),
(86,980,cs)
);
}
);
width = 1170;
},
{
background = {
shapes = (
{
closed = 1;
nodes = (
(834,51,cs),
(1058,1416,ls),
(1065,1457,o),
(1034,1499,o),
(988,1499,cs),
(952,1499,o),
(923,1473,o),
(918,1440,cs),
(692,75,ls),
(685,34,o),
(716,-9,o),
(763,-9,cs),
(799,-9,o),
(829,17,o)
);
},
{
closed = 1;
nodes = (
(1062,414,ls),
(1101,414,o),
(1134,446,o),
(1134,486,cs),
(1134,526,o),
(1101,558,o),
(1062,558,cs),
(78,558,ls),
(39,558,o),
(6,526,o),
(6,486,cs),
(6,446,o),
(39,414,o),
(78,414,cs)
);
},
{
closed = 1;
nodes = (
(310,51,cs),
(534,1416,ls),
(541,1457,o),
(510,1499,o),
(464,1499,cs),
(429,1499,o),
(399,1473,o),
(394,1439,cs),
(170,74,ls),
(163,33,o),
(194,-9,o),
(240,-9,cs),
(275,-9,o),
(305,17,o)
);
},
{
closed = 1;
nodes = (
(1148,930,ls),
(1188,930,o),
(1221,963,o),
(1221,1003,cs),
(1221,1043,o),
(1188,1076,o),
(1148,1076,cs),
(167,1076,ls),
(127,1076,o),
(94,1043,o),
(94,1003,cs),
(94,963,o),
(127,930,o),
(167,930,cs)
);
}
);
};
layerId = m004;
shapes = (
{
closed = 1;
nodes = (
(763,-9,ls),
(799,-9,o),
(828,17,o),
(834,51,cs),
(1058,1416,ls),
(1065,1457,o),
(1034,1499,o),
(988,1499,cs),
(988,1499,ls),
(952,1499,o),
(923,1473,o),
(918,1440,cs),
(692,75,ls),
(685,34,o),
(716,-9,o),
(763,-9,cs)
);
},
{
closed = 1;
nodes = (
(1062,414,ls),
(1101,414,o),
(1134,446,o),
(1134,486,cs),
(1134,486,ls),
(1134,526,o),
(1101,558,o),
(1062,558,cs),
(78,558,ls),
(39,558,o),
(6,526,o),
(6,486,cs),
(6,486,ls),
(6,446,o),
(39,414,o),
(78,414,cs)
);
},
{
closed = 1;
nodes = (
(240,-9,ls),
(275,-9,o),
(304,17,o),
(310,51,cs),
(534,1416,ls),
(541,1457,o),
(510,1499,o),
(464,1499,cs),
(464,1499,ls),
(429,1499,o),
(400,1473,o),
(394,1439,cs),
(170,74,ls),
(163,33,o),
(194,-9,o),
(240,-9,cs)
);
},
{
closed = 1;
nodes = (
(1148,930,ls),
(1188,930,o),
(1221,963,o),
(1221,1003,cs),
(1221,1003,ls),
(1221,1043,o),
(1188,1076,o),
(1148,1076,cs),
(167,1076,ls),
(127,1076,o),
(94,1043,o),
(94,1003,cs),
(94,1003,ls),
(94,963,o),
(127,930,o),
(167,930,cs)
);
}
);
width = 1228;
},
{
background = {
shapes = (
{
closed = 1;
nodes = (
(826,0,l),
(1070,1490,l),
(926,1490,l),
(680,0,l)
);
},
{
closed = 1;
nodes = (
(1114,414,l),
(1138,558,l),
(26,558,l),
(2,414,l)
);
},
{
closed = 1;
nodes = (
(302,0,l),
(546,1490,l),
(402,1490,l),
(158,0,l)
);
},
{
closed = 1;
nodes = (
(1202,930,l),
(1224,1076,l),
(114,1076,l),
(90,930,l)
);
}
);
};
layerId = m008;
shapes = (
{
closed = 1;
nodes = (
(800,0,ls),
(815,0,o),
(828,11,o),
(830,26,cs),
(1063,1450,ls),
(1067,1473,o),
(1051,1490,o),
(1029,1490,cs),
(952,1490,ls),
(937,1490,o),
(925,1479,o),
(922,1464,cs),
(687,40,ls),
(683,17,o),
(699,0,o),
(721,0,cs)
);
},
{
closed = 1;
nodes = (
(1088,414,ls),
(1103,414,o),
(1116,425,o),
(1118,440,cs),
(1131,518,ls),
(1135,541,o),
(1119,558,o),
(1097,558,cs),
(52,558,ls),
(37,558,o),
(24,547,o),
(22,532,cs),
(9,454,ls),
(5,431,o),
(21,414,o),
(43,414,cs)
);
},
{
closed = 1;
nodes = (
(276,0,ls),
(291,0,o),
(304,11,o),
(306,26,cs),
(539,1450,ls),
(543,1473,o),
(527,1490,o),
(505,1490,cs),
(428,1490,ls),
(413,1490,o),
(400,1479,o),
(398,1464,cs),
(165,40,ls),
(161,17,o),
(177,0,o),
(199,0,cs)
);
},
{
closed = 1;
nodes = (
(1175,930,ls),
(1191,930,o),
(1204,941,o),
(1206,957,cs),
(1218,1037,ls),
(1221,1059,o),
(1206,1076,o),
(1184,1076,cs),
(141,1076,ls),
(125,1076,o),
(112,1065,o),
(110,1050,cs),
(97,970,ls),
(93,947,o),
(109,930,o),
(131,930,cs)
);
}
);
width = 1228;
}
);
unicode = 35;
}
{
color = 4;
glyphname = quotesingle;
kernLeft = quotedbl;
kernRight = quotedbl;
layers = (
{
background = {
shapes = (
{
closed = 1;
nodes = (
(144,1056,l),
(148,1490,l),
(100,1490,l),
(104,1056,l)
);
}
);
};
layerId = "45635B2B-919A-4B12-975B-2FA0A7CA8B35";
shapes = (
{
closed = 1;
nodes = (
(144,1056,ls),
(144,1056,o),
(144,1056,o),
(144,1056,cs),
(148,1490,ls),
(148,1490,o),
(148,1490,o),
(148,1490,cs),
(100,1490,ls),
(100,1490,o),
(100,1490,o),
(100,1490,cs),
(104,1056,ls),
(104,1056,o),
(104,1056,o),
(104,1056,cs)
);
}
);
width = 248;
},
{
background = {
shapes = (
{
closed = 1;
nodes = (
(324,984,l),
(344,1490,l),
(176,1490,l),
(196,984,l)
);
}
);
};
layerId = "B487E3D2-4ABF-4A2A-A195-DC6AACAFF568";
shapes = (
{
closed = 1;
nodes = (
(324,984,ls),
(324,984,o),
(324,984,o),
(324,984,cs),
(344,1490,ls),
(344,1490,o),
(344,1490,o),
(344,1490,cs),
(176,1490,ls),
(176,1490,o),
(176,1490,o),
(176,1490,cs),
(196,984,ls),
(196,984,o),
(196,984,o),
(196,984,cs)
);
}
);
width = 520;
},
{
background = {
shapes = (
{
closed = 1;
nodes = (
(144,1074,cs),
(148,1468,ls),
(148,1481,o),
(137,1492,o),
(124,1492,cs),
(111,1492,o),
(100,1481,o),
(100,1468,cs),
(104,1074,ls),
(104,1063,o),
(113,1054,o),
(124,1054,cs),
(135,1054,o),
(144,1063,o)
);
}
);
};
layerId = m005;
shapes = (
{
closed = 1;
nodes = (
(124,1054,ls),
(135,1054,o),
(144,1063,o),
(144,1074,cs),
(148,1468,ls),
(148,1481,o),
(137,1492,o),
(124,1492,cs),
(124,1492,ls),
(111,1492,o),
(100,1481,o),
(100,1468,cs),
(104,1074,ls),
(104,1063,o),
(113,1054,o),
(124,1054,cs)
);
}
);
width = 248;
},
{
background = {
shapes = (
{
closed = 1;
nodes = (
(435,880,l),
(470,1490,l),
(116,1490,l),
(151,880,l)
);
}
);
};
layerId = m01;
shapes = (
{
closed = 1;
nodes = (
(435,880,ls),
(435,880,o),
(435,880,o),
(435,880,cs),
(470,1490,ls),
(470,1490,o),
(470,1490,o),
(470,1490,cs),
(116,1490,ls),
(116,1490,o),
(116,1490,o),
(116,1490,cs),
(151,880,ls),
(151,880,o),
(151,880,o),
(151,880,cs)
);
}
);
width = 586;
},
{
layerId = m009;
shapes = (
{
closed = 1;
nodes = (
(367,880,ls),
(407,880,o),
(437,908,o),
(439,948,cs),
(465,1411,ls),
(468,1457,o),
(436,1490,o),
(391,1490,cs),
(195,1490,ls),
(150,1490,o),
(118,1457,o),
(121,1411,cs),
(147,948,ls),
(149,908,o),
(179,880,o),
(219,880,cs)
);
}
);
width = 586;
},
{
background = {
shapes = (
{
closed = 1;
nodes = (
(442,1000,cs),
(461,1332,ls),
(466,1425,o),
(393,1510,o),
(293,1510,cs),
(193,1510,o),
(120,1425,o),
(125,1332,cs),
(144,1000,ls),
(148,921,o),
(213,860,o),
(293,860,cs),
(373,860,o),
(438,921,o)
);
}
);
};
layerId = m006;
shapes = (
{
closed = 1;
nodes = (
(293,860,ls),
(373,860,o),
(437,921,o),
(442,1000,cs),
(461,1332,ls),
(466,1425,o),
(393,1510,o),
(293,1510,cs),
(293,1510,ls),
(193,1510,o),
(120,1425,o),
(125,1332,cs),
(144,1000,ls),
(149,921,o),
(213,860,o),
(293,860,cs)
);
}
);
width = 586;
},
{
layerId = m007;
shapes = (
{
closed = 1;
nodes = (
(129,1056,ls),
(137,1056,o),
(144,1063,o),
(144,1071,cs),
(148,1475,ls),
(148,1484,o),
(142,1490,o),
(133,1490,cs),
(115,1490,ls),
(106,1490,o),
(100,1484,o),
(100,1475,cs),
(104,1071,ls),
(104,1063,o),
(111,1056,o),
(119,1056,cs)
);
}
);
width = 248;
},
{
background = {
shapes = (
{
closed = 1;
nodes = (
(326,1039,cs),
(341,1415,ls),
(343,1458,o),
(309,1499,o),
(260,1499,cs),
(211,1499,o),
(177,1458,o),
(179,1415,cs),
(194,1039,ls),
(195,1003,o),
(224,975,o),
(260,975,cs),
(296,975,o),
(325,1003,o)
);
}
);
};
layerId = m004;
shapes = (
{
closed = 1;
nodes = (
(260,975,ls),
(296,975,o),
(325,1003,o),
(326,1039,cs),
(341,1415,ls),
(343,1458,o),
(309,1499,o),
(260,1499,cs),
(260,1499,ls),
(211,1499,o),
(177,1458,o),
(179,1415,cs),
(194,1039,ls),
(195,1003,o),
(224,975,o),
(260,975,cs)
);
}
);
width = 520;
},
{
layerId = m008;
shapes = (
{
closed = 1;
nodes = (
(293,984,ls),
(311,984,o),
(324,996,o),
(325,1015,cs),
(343,1456,ls),
(344,1475,o),
(329,1490,o),
(310,1490,cs),
(210,1490,ls),
(191,1490,o),
(176,1475,o),
(177,1456,cs),
(195,1015,ls),
(196,996,o),
(209,984,o),
(227,984,cs)
);
}
);
width = 520;
}
);
metricRight = "=|";
unicode = 39;
}
{
color = 8;
glyphname = period;
kernLeft = comma;
kernRight = comma;
layers = (
{
layerId = "45635B2B-919A-4B12-975B-2FA0A7CA8B35";
shapes = (
{
closed = 1;
nodes = (
(230,-12,o),
(254,12,o),
(254,42,cs),
(254,72,o),
(230,96,o),
(200,96,cs),
(170,96,o),
(146,72,o),
(146,42,cs),
(146,12,o),
(170,-12,o),
(200,-12,cs)
);
}
);
width = 400;
},
{
layerId = "B487E3D2-4ABF-4A2A-A195-DC6AACAFF568";
shapes = (
{
closed = 1;
nodes = (
(295,-17,o),
(350,38,o),
(350,108,cs),
(350,178,o),
(295,233,o),
(225,233,cs),
(155,233,o),
(100,178,o),
(100,108,cs),
(100,38,o),
(155,-17,o),
(225,-17,cs)
);
}
);
width = 450;
},
{
layerId = m01;
shapes = (
{
closed = 1;
nodes = (
(387,-19,o),
(480,74,o),
(480,189,cs),
(480,304,o),
(387,397,o),
(272,397,cs),
(157,397,o),
(64,304,o),
(64,189,cs),
(64,74,o),
(157,-19,o),
(272,-19,cs)
);
}
);
width = 544;
},
{
layerId = m005;
shapes = (
{
closed = 1;
nodes = (
(230,-12,o),
(254,12,o),
(254,42,cs),
(254,72,o),
(230,96,o),
(200,96,cs),
(170,96,o),
(146,72,o),
(146,42,cs),
(146,12,o),
(170,-12,o),
(200,-12,cs)
);
}
);
width = 400;
},
{
layerId = m004;
shapes = (
{
closed = 1;
nodes = (
(295,-17,o),
(350,38,o),
(350,108,cs),
(350,178,o),
(295,233,o),
(225,233,cs),
(155,233,o),
(100,178,o),
(100,108,cs),
(100,38,o),
(155,-17,o),
(225,-17,cs)
);
}
);
width = 450;
},
{
layerId = m006;
shapes = (
{
closed = 1;
nodes = (
(387,-19,o),
(480,74,o),
(480,189,cs),
(480,304,o),
(387,397,o),
(272,397,cs),
(157,397,o),
(64,304,o),
(64,189,cs),
(64,74,o),
(157,-19,o),
(272,-19,cs)
);
}
);
width = 544;
},
{
layerId = m007;
shapes = (
{
closed = 1;
nodes = (
(230,-12,o),
(254,12,o),
(254,42,cs),
(254,72,o),
(230,96,o),
(200,96,cs),
(170,96,o),
(146,72,o),
(146,42,cs),
(146,12,o),
(170,-12,o),
(200,-12,cs)
);
}
);
width = 400;
},
{
layerId = m008;
shapes = (
{
closed = 1;
nodes = (
(295,-17,o),
(350,38,o),
(350,108,cs),
(350,178,o),
(295,233,o),
(225,233,cs),
(155,233,o),
(100,178,o),
(100,108,cs),
(100,38,o),
(155,-17,o),
(225,-17,cs)
);
}
);
width = 450;
},
{
layerId = m009;
shapes = (
{
closed = 1;
nodes = (
(387,-19,o),
(480,74,o),
(480,189,cs),
(480,304,o),
(387,397,o),
(272,397,cs),
(157,397,o),
(64,304,o),
(64,189,cs),
(64,74,o),
(157,-19,o),
(272,-19,cs)
);
}
);
width = 544;
}
);
unicode = 46;
}
{
color = 4;
glyphname = slash;
layers = (
{
background = {
shapes = (
{
closed = 1;
nodes = (
(482,1560,l),
(2,-224,l),
(52,-224,l),
(532,1560,l)
);
}
);
};
layerId = "45635B2B-919A-4B12-975B-2FA0A7CA8B35";
shapes = (
{
closed = 1;
nodes = (
(482,1560,ls),
(482,1560,o),
(482,1560,o),
(482,1560,cs),
(2,-224,ls),
(2,-224,o),
(2,-224,o),
(2,-224,cs),
(52,-224,ls),
(52,-224,o),
(52,-224,o),
(52,-224,cs),
(532,1560,ls),
(532,1560,o),
(532,1560,o),
(532,1560,cs)
);
}
);
width = 534;
},
{
background = {
shapes = (
{
closed = 1;
nodes = (
(494,1560,l),
(14,-224,l),
(172,-224,l),
(652,1560,l)
);
}
);
};
layerId = "B487E3D2-4ABF-4A2A-A195-DC6AACAFF568";
shapes = (
{
closed = 1;
nodes = (
(494,1560,ls),
(494,1560,o),
(494,1560,o),
(494,1560,cs),
(14,-224,ls),
(14,-224,o),
(14,-224,o),
(14,-224,cs),
(172,-224,ls),
(172,-224,o),
(172,-224,o),
(172,-224,cs),
(652,1560,ls),
(652,1560,o),
(652,1560,o),
(652,1560,cs)
);
}
);
width = 666;
},
{
background = {
shapes = (
{
closed = 1;
nodes = (
(476,1560,l),
(-4,-224,l),
(336,-224,l),
(816,1560,l)
);
}
);
};
layerId = m01;
shapes = (
{
closed = 1;
nodes = (
(476,1560,ls),
(476,1560,o),
(476,1560,o),
(476,1560,cs),
(-4,-224,ls),
(-4,-224,o),
(-4,-224,o),
(-4,-224,cs),
(336,-224,ls),
(336,-224,o),
(336,-224,o),
(336,-224,cs),
(816,1560,ls),
(816,1560,o),
(816,1560,o),
(816,1560,cs)
);
}
);
width = 812;
},
{
background = {
shapes = (
{
closed = 1;
nodes = (
(478,1544,cs),
(10,-196,ls),
(6,-211,o),
(17,-226,o),
(33,-226,cs),
(44,-226,o),
(53,-219,o),
(56,-208,cs),
(524,1532,ls),
(528,1547,o),
(517,1562,o),
(501,1562,cs),
(490,1562,o),
(481,1555,o)
);
}
);
};
layerId = m005;
shapes = (
{
closed = 1;
nodes = (
(501,1562,ls),
(496,1562,o),
(481,1555,o),
(478,1544,cs),
(10,-196,ls),
(6,-211,o),
(17,-226,o),
(33,-226,cs),
(33,-226,ls),
(44,-226,o),
(53,-219,o),
(56,-208,cs),
(524,1532,ls),
(528,1547,o),
(517,1562,o),
(501,1562,cs)
);
}
);
width = 534;
},
{
background = {
shapes = (
{
closed = 1;
nodes = (
(481,1513,cs),
(37,-137,ls),
(25,-183,o),
(63,-233,o),
(111,-233,cs),
(146,-233,o),
(176,-209,o),
(185,-177,cs),
(629,1473,ls),
(641,1519,o),
(603,1569,o),
(555,1569,cs),
(520,1569,o),
(490,1545,o)
);
}
);
};
layerId = m004;
shapes = (
{
closed = 1;
nodes = (
(555,1569,ls),
(520,1569,o),
(490,1545,o),
(481,1513,cs),
(37,-137,ls),
(23,-191,o),
(63,-233,o),
(111,-233,cs),
(111,-233,ls),
(146,-233,o),
(176,-209,o),
(185,-177,cs),
(629,1473,ls),
(644,1528,o),
(603,1569,o),
(555,1569,cs)
);
}
);
width = 666;
},
{
background = {
shapes = (
{
closed = 1;
nodes = (
(449,1459,cs),
(46,-37,ls),
(17,-143,o),
(90,-244,o),
(205,-244,cs),
(281,-244,o),
(344,-193,o),
(363,-123,cs),
(766,1373,ls),
(790,1462,o),
(722,1580,o),
(607,1580,cs),
(531,1580,o),
(468,1529,o)
);
}
);
};
layerId = m006;
shapes = (
{
closed = 1;
nodes = (
(607,1580,ls),
(531,1580,o),
(468,1529,o),
(449,1459,cs),
(46,-37,ls),
(19,-136,o),
(90,-244,o),
(205,-244,cs),
(205,-244,ls),
(281,-244,o),
(344,-193,o),
(363,-123,cs),
(766,1373,ls),
(795,1480,o),
(722,1580,o),
(607,1580,cs)
);
}
);
width = 812;
},
{
background = {
shapes = (
{
closed = 1;
nodes = (
(482,1560,l),
(2,-224,l),
(52,-224,l),
(532,1560,l)
);
}
);
};
layerId = m007;
shapes = (
{
closed = 1;
nodes = (
(491,1560,ls),
(486,1560,o),
(481,1557,o),
(480,1551,cs),
(7,-206,ls),
(4,-215,o),
(11,-224,o),
(21,-224,cs),
(43,-224,ls),
(48,-224,o),
(53,-221,o),
(54,-215,cs),
(527,1542,ls),
(530,1551,o),
(523,1560,o),
(513,1560,cs)
);
}
);
width = 534;
},
{
background = {
shapes = (
{
closed = 1;
nodes = (
(494,1560,l),
(14,-224,l),
(172,-224,l),
(652,1560,l)
);
}
);
};
layerId = m008;
shapes = (
{
closed = 1;
nodes = (
(517,1560,ls),
(503,1560,o),
(492,1551,o),
(488,1538,cs),
(26,-179,ls),
(20,-203,o),
(36,-224,o),
(61,-224,cs),
(149,-224,ls),
(163,-224,o),
(174,-215,o),
(178,-202,cs),
(640,1515,ls),
(646,1539,o),
(630,1560,o),
(605,1560,cs)
);
}
);
width = 666;
},
{
background = {
shapes = (
{
closed = 1;
nodes = (
(476,1560,l),
(-4,-224,l),
(336,-224,l),
(816,1560,l)
);
}
);
};
layerId = m009;
shapes = (
{
closed = 1;
nodes = (
(528,1560,ls),
(497,1560,o),
(470,1540,o),
(462,1510,cs),
(23,-123,ls),
(8,-177,o),
(45,-224,o),
(101,-224,cs),
(284,-224,ls),
(315,-224,o),
(342,-204,o),
(350,-174,cs),
(789,1459,ls),
(804,1513,o),
(767,1560,o),
(711,1560,cs)
);
}
);
width = 812;
}
);
metricRight = "=|";
unicode = 47;
}
{
color = 8;
glyphname = zero;
kernLeft = six;
kernRight = nine;
layers = (
{
layerId = m01;
shapes = (
{
closed = 1;
nodes = (
(1111,-24,o),
(1356,267,o),
(1356,744,cs),
(1356,1222,o),
(1111,1514,o),
(698,1514,cs),
(285,1514,o),
(40,1221,o),
(40,744,cs),
(40,268,o),
(285,-24,o),
(698,-24,cs)
);
},
{
closed = 1;
nodes = (
(533,296,o),
(432,466,o),
(432,744,cs),
(432,1023,o),
(533,1194,o),
(698,1194,cs),
(863,1194,o),
(964,1023,o),
(964,744,cs),
(964,466,o),
(863,296,o),
(698,296,cs)
);
}
);
width = 1396;
},
{
layerId = "45635B2B-919A-4B12-975B-2FA0A7CA8B35";
shapes = (
{
closed = 1;
nodes = (
(866,-16,o),
(1074,295,o),
(1074,744,cs),
(1074,1194,o),
(866,1506,o),
(570,1506,cs),
(273,1506,o),
(64,1194,o),
(64,744,cs),
(64,295,o),
(273,-16,o),
(570,-16,cs)
);
},
{
closed = 1;
nodes = (
(300,30,o),
(110,322,o),
(110,744,cs),
(110,1167,o),
(300,1460,o),
(570,1460,cs),
(839,1460,o),
(1028,1167,o),
(1028,744,cs),
(1028,322,o),
(839,30,o),
(570,30,cs)
);
}
);
width = 1138;
},
{
layerId = "B487E3D2-4ABF-4A2A-A195-DC6AACAFF568";
shapes = (
{
closed = 1;
nodes = (
(958,-24,o),
(1166,275,o),
(1166,744,cs),
(1166,1215,o),
(958,1514,o),
(628,1514,cs),
(298,1514,o),
(90,1215,o),
(90,744,cs),
(90,275,o),
(298,-24,o),
(628,-24,cs)
);
},
{
closed = 1;
nodes = (
(400,136,o),
(260,366,o),
(260,744,cs),
(260,1124,o),
(400,1354,o),
(628,1354,cs),
(856,1354,o),
(996,1124,o),
(996,744,cs),
(996,366,o),
(856,136,o),
(628,136,cs)
);
}
);
width = 1256;
},
{
layerId = m004;
shapes = (
{
closed = 1;
nodes = (
(958,-24,o),
(1166,275,o),
(1166,744,cs),
(1166,1215,o),
(958,1514,o),
(628,1514,cs),
(298,1514,o),
(90,1215,o),
(90,744,cs),
(90,275,o),
(298,-24,o),
(628,-24,cs)
);
},
{
closed = 1;
nodes = (
(400,136,o),
(260,366,o),
(260,744,cs),
(260,1124,o),
(400,1354,o),
(628,1354,cs),
(856,1354,o),
(996,1124,o),
(996,744,cs),
(996,366,o),
(856,136,o),
(628,136,cs)
);
}
);
width = 1256;
},
{
layerId = m005;
shapes = (
{
closed = 1;
nodes = (
(866,-16,o),
(1074,295,o),
(1074,744,cs),
(1074,1194,o),
(866,1506,o),
(570,1506,cs),
(273,1506,o),
(64,1194,o),
(64,744,cs),
(64,295,o),
(273,-16,o),
(570,-16,cs)
);
},
{
closed = 1;
nodes = (
(300,30,o),
(110,322,o),
(110,744,cs),
(110,1167,o),
(300,1460,o),
(570,1460,cs),
(839,1460,o),
(1028,1167,o),
(1028,744,cs),
(1028,322,o),
(839,30,o),
(570,30,cs)
);
}
);
width = 1138;
},
{
layerId = m006;
shapes = (
{
closed = 1;
nodes = (
(1111,-24,o),
(1356,267,o),
(1356,744,cs),
(1356,1222,o),
(1111,1514,o),
(698,1514,cs),
(285,1514,o),
(40,1221,o),
(40,744,cs),
(40,268,o),
(285,-24,o),
(698,-24,cs)
);
},
{
closed = 1;
nodes = (
(533,296,o),
(432,466,o),
(432,744,cs),
(432,1023,o),
(533,1194,o),
(698,1194,cs),
(863,1194,o),
(964,1023,o),
(964,744,cs),
(964,466,o),
(863,296,o),
(698,296,cs)
);
}
);
width = 1396;
},
{
layerId = m007;
shapes = (
{
closed = 1;
nodes = (
(866,-16,o),
(1074,295,o),
(1074,744,cs),
(1074,1194,o),
(866,1506,o),
(570,1506,cs),
(273,1506,o),
(64,1194,o),
(64,744,cs),
(64,295,o),
(273,-16,o),
(570,-16,cs)
);
},
{
closed = 1;
nodes = (
(300,30,o),
(110,322,o),
(110,744,cs),
(110,1167,o),
(300,1460,o),
(570,1460,cs),
(839,1460,o),
(1028,1167,o),
(1028,744,cs),
(1028,322,o),
(839,30,o),
(570,30,cs)
);
}
);
width = 1138;
},
{
layerId = m008;
shapes = (
{
closed = 1;
nodes = (
(958,-24,o),
(1166,275,o),
(1166,744,cs),
(1166,1215,o),
(958,1514,o),
(628,1514,cs),
(298,1514,o),
(90,1215,o),
(90,744,cs),
(90,275,o),
(298,-24,o),
(628,-24,cs)
);
},
{
closed = 1;
nodes = (
(400,136,o),
(260,366,o),
(260,744,cs),
(260,1124,o),
(400,1354,o),
(628,1354,cs),
(856,1354,o),
(996,1124,o),
(996,744,cs),
(996,366,o),
(856,136,o),
(628,136,cs)
);
}
);
width = 1256;
},
{
layerId = m009;
shapes = (
{
closed = 1;
nodes = (
(1111,-24,o),
(1356,267,o),
(1356,744,cs),
(1356,1222,o),
(1111,1514,o),
(698,1514,cs),
(285,1514,o),
(40,1221,o),
(40,744,cs),
(40,268,o),
(285,-24,o),
(698,-24,cs)
);
},
{
closed = 1;
nodes = (
(533,296,o),
(432,466,o),
(432,744,cs),
(432,1023,o),
(533,1194,o),
(698,1194,cs),
(863,1194,o),
(964,1023,o),
(964,744,cs),
(964,466,o),
(863,296,o),
(698,296,cs)
);
}
);
width = 1396;
}
);
metricRight = "=|";
unicode = 48;
}
{
color = 4;
glyphname = one;
kernLeft = one;
kernRight = H;
layers = (
{
background = {
shapes = (
{
closed = 1;
nodes = (
(398,1490,l),
(32,1266,l),
(32,922,l),
(364,1125,l),
(366,1125,l),
(366,0,l),
(766,0,l),
(766,1490,l)
);
}
);
};
layerId = m01;
shapes = (
{
closed = 1;
nodes = (
(766,1490,o),
(766,1490,o),
(766,1490,cs),
(766,0,ls),
(766,0,o),
(766,0,o),
(766,0,cs),
(366,0,ls),
(366,0,o),
(366,0,o),
(366,0,cs),
(366,1125,l),
(364,1125,l),
(32,922,ls),
(32,922,o),
(32,922,o),
(32,922,cs),
(32,1266,ls),
(32,1266,o),
(32,1266,o),
(32,1266,cs),
(384,1482,ls),
(393,1488,o),
(404,1490,o),
(414,1490,cs),
(766,1490,ls)
);
}
);
width = 846;
},
{
background = {
shapes = (
{
closed = 1;
nodes = (
(392,1490,l),
(82,1282,l),
(82,1228,l),
(408,1446,l),
(410,1446,l),
(410,0,l),
(456,0,l),
(456,1490,l)
);
}
);
};
layerId = "45635B2B-919A-4B12-975B-2FA0A7CA8B35";
shapes = (
{
closed = 1;
nodes = (
(456,1490,o),
(456,1490,o),
(456,1490,cs),
(456,0,ls),
(456,0,o),
(456,0,o),
(456,0,cs),
(410,0,ls),
(410,0,o),
(410,0,o),
(410,0,cs),
(410,1446,l),
(408,1446,l),
(82,1228,ls),
(82,1228,o),
(82,1228,o),
(82,1228,cs),
(82,1282,ls),
(82,1282,o),
(82,1282,o),
(82,1282,cs),
(392,1490,ls),
(392,1490,o),
(392,1490,o),
(392,1490,cs),
(456,1490,ls)
);
}
);
width = 624;
},
{
background = {
shapes = (
{
closed = 1;
nodes = (
(420,1490,l),
(48,1242,l),
(48,1058,l),
(419,1304,l),
(420,1304,l),
(420,0,l),
(594,0,l),
(594,1490,l)
);
}
);
};
layerId = "B487E3D2-4ABF-4A2A-A195-DC6AACAFF568";
shapes = (
{
closed = 1;
nodes = (
(594,1490,o),
(594,1490,o),
(594,1490,cs),
(594,0,ls),
(594,0,o),
(594,0,o),
(594,0,cs),
(420,0,ls),
(420,0,o),
(420,0,o),
(420,0,cs),
(420,1304,l),
(419,1304,l),
(48,1058,ls),
(48,1058,o),
(48,1058,o),
(48,1058,cs),
(48,1242,ls),
(48,1242,o),
(48,1242,o),
(48,1242,cs),
(420,1490,ls),
(420,1490,o),
(420,1490,o),
(420,1490,cs),
(594,1490,ls)
);
}
);
width = 742;
},
{
layerId = m004;
shapes = (
{
closed = 1;
nodes = (
(550,1499,o),
(605,1444,o),
(605,1376,cs),
(605,78,ls),
(605,30,o),
(566,-9,o),
(518,-9,c),
(518,-9,ls),
(470,-9,o),
(431,30,o),
(431,78,cs),
(431,1304,l),
(430,1304,l),
(169,1131,ls),
(118,1097,o),
(50,1133,o),
(50,1195,c),
(50,1195,ls),
(50,1222,o),
(64,1245,o),
(84,1259,cs),
(413,1478,ls),
(432,1491,o),
(457,1499,o),
(482,1499,cs),
(482,1499,l)
);
}
);
width = 753;
},
{
background = {
shapes = (
{
closed = 1;
nodes = (
(408,1490,ls),
(397,1490,o),
(388,1487,o),
(378,1481,cs),
(90,1287,ls),
(84,1283,o),
(80,1276,o),
(80,1268,cs),
(80,1249,o),
(102,1240,o),
(115,1250,cs),
(408,1446,l),
(409,1446,ls),
(409,1446,o),
(410,1437,o),
(410,1422,cs),
(410,21,ls),
(410,9,o),
(420,-2,o),
(433,-2,cs),
(446,-2,o),
(456,9,o),
(456,21,cs),
(456,1466,ls),
(456,1481,o),
(447,1490,o),
(432,1490,cs)
);
}
);
};
layerId = m005;
shapes = (
{
closed = 1;
nodes = (
(447,1490,o),
(456,1481,o),
(456,1466,cs),
(456,21,ls),
(456,9,o),
(446,-2,o),
(433,-2,cs),
(433,-2,ls),
(420,-2,o),
(410,9,o),
(410,21,cs),
(410,1446,l),
(408,1446,l),
(115,1250,ls),
(101,1240,o),
(80,1249,o),
(80,1268,cs),
(80,1268,ls),
(80,1276,o),
(84,1283,o),
(90,1287,cs),
(378,1481,ls),
(387,1487,o),
(397,1490,o),
(408,1490,cs),
(432,1490,ls)
);
}
);
width = 624;
},
{
background = {
shapes = (
{
closed = 0;
nodes = (
(255,1037,l),
(403,1126,l),
(403,848,l),
(403,180,ls),
(403,70,o),
(493,-20,o),
(603,-20,cs),
(713,-20,o),
(803,70,o),
(803,180,cs),
(803,1249,ls),
(803,1393,o),
(686,1510,o),
(542,1510,cs),
(492,1510,o),
(445,1497,o),
(405,1472,cs),
(145,1313,l)
);
},
{
closed = 1;
nodes = (
(173,983,o),
(265,1042,cs),
(306,1068,o),
(334,1114,o),
(334,1166,cs),
(334,1247,o),
(268,1313,o),
(187,1313,cs),
(159,1313,o),
(132,1305,o),
(109,1291,cs),
(68,1265,o),
(40,1219,o),
(40,1166,cs),
(40,1045,o)
);
}
);
};
layerId = m006;
shapes = (
{
closed = 1;
nodes = (
(686,1510,o),
(803,1393,o),
(803,1249,cs),
(803,180,ls),
(803,70,o),
(713,-20,o),
(603,-20,cs),
(603,-20,ls),
(493,-20,o),
(403,70,o),
(403,180,cs),
(403,1125,l),
(401,1125,l),
(265,1042,ls),
(172,985,o),
(40,1045,o),
(40,1166,cs),
(40,1166,ls),
(40,1219,o),
(68,1266,o),
(109,1291,cs),
(405,1472,ls),
(445,1497,o),
(492,1510,o),
(542,1510,cs),
(542,1510,ls)
);
}
);
width = 883;
},
{
background = {
shapes = (
{
closed = 1;
nodes = (
(392,1490,l),
(82,1282,l),
(82,1228,l),
(408,1446,l),
(410,1446,l),
(410,0,l),
(456,0,l),
(456,1490,l)
);
}
);
};
layerId = m007;
shapes = (
{
closed = 1;
nodes = (
(450,1490,o),
(456,1484,o),
(456,1477,cs),
(456,13,ls),
(456,6,o),
(450,0,o),
(443,0,cs),
(423,0,ls),
(416,0,o),
(410,6,o),
(410,13,cs),
(410,1446,l),
(408,1446,l),
(108,1245,ls),
(96,1237,o),
(82,1243,o),
(82,1255,cs),
(82,1276,ls),
(82,1279,o),
(84,1283,o),
(87,1285,cs),
(389,1488,ls),
(390,1489,o),
(393,1490,o),
(395,1490,cs),
(443,1490,ls)
);
}
);
width = 624;
},
{
background = {
shapes = (
{
closed = 1;
nodes = (
(420,1490,l),
(48,1242,l),
(48,1058,l),
(419,1304,l),
(420,1304,l),
(420,0,l),
(594,0,l),
(594,1490,l)
);
}
);
};
layerId = m008;
shapes = (
{
closed = 1;
nodes = (
(580,1490,o),
(594,1476,o),
(594,1457,cs),
(594,33,ls),
(594,14,o),
(580,0,o),
(561,0,cs),
(453,0,ls),
(434,0,o),
(420,14,o),
(420,33,cs),
(420,1304,l),
(419,1304,l),
(112,1100,ls),
(82,1080,o),
(48,1099,o),
(48,1135,cs),
(48,1227,ls),
(48,1236,o),
(52,1244,o),
(60,1250,cs),
(414,1486,ls),
(418,1489,o),
(423,1490,o),
(428,1490,cs),
(561,1490,ls)
);
}
);
width = 742;
},
{
background = {
shapes = (
{
closed = 1;
nodes = (
(398,1490,l),
(32,1266,l),
(32,922,l),
(364,1125,l),
(366,1125,l),
(366,0,l),
(766,0,l),
(766,1490,l)
);
}
);
};
layerId = m009;
shapes = (
{
closed = 1;
nodes = (
(735,1490,o),
(766,1459,o),
(766,1417,cs),
(766,73,ls),
(766,31,o),
(735,0,o),
(693,0,cs),
(439,0,ls),
(397,0,o),
(366,31,o),
(366,73,cs),
(366,1125,l),
(364,1125,l),
(171,1007,ls),
(105,966,o),
(32,1007,o),
(32,1084,cs),
(32,1231,ls),
(32,1253,o),
(43,1272,o),
(62,1284,cs),
(384,1482,ls),
(393,1488,o),
(404,1490,o),
(414,1490,cs),
(693,1490,ls)
);
}
);
width = 846;
}
);
unicode = 49;
}
{
color = 4;
glyphname = two;
kernLeft = two;
kernRight = two;
layers = (
{
background = {
shapes = (
{
closed = 1;
nodes = (
(1219,0,l),
(1219,322,l),
(639,322,l),
(639,324,l),
(880,520,ls),
(1078,681,o),
(1215,816,o),
(1215,1039,cs),
(1215,1335,o),
(975,1514,o),
(645,1514,cs),
(284,1514,o),
(60,1299,o),
(60,952,c),
(441,952,l),
(441,1107,o),
(523,1194,o),
(644,1194,cs),
(755,1194,o),
(829,1122,o),
(829,1016,cs),
(829,887,o),
(718,809,o),
(635,742,cs),
(75,290,l),
(75,0,l)
);
}
);
};
layerId = m01;
shapes = (
{
closed = 1;
nodes = (
(975,1514,o),
(1215,1335,o),
(1215,1039,cs),
(1215,816,o),
(1078,681,o),
(880,520,c),
(639,323,l),
(639,322,l),
(1219,322,ls),
(1219,322,o),
(1219,322,o),
(1219,322,cs),
(1219,0,ls),
(1219,0,o),
(1219,0,o),
(1219,0,cs),
(75,0,ls),
(75,0,o),
(75,0,o),
(75,0,cs),
(75,290,ls),
(75,290,o),
(75,290,o),
(75,290,cs),
(635,742,ls),
(718,809,o),
(829,887,o),
(829,1016,cs),
(829,1122,o),
(755,1194,o),
(644,1194,cs),
(523,1194,o),
(441,1107,o),
(441,952,cs),
(441,952,o),
(441,952,o),
(441,952,cs),
(60,952,ls),
(60,952,o),
(60,952,o),
(60,952,cs),
(60,1299,o),
(284,1514,o),
(645,1514,cs)
);
}
);
width = 1291;
},
{
background = {
shapes = (
{
closed = 1;
nodes = (
(1006,0,l),
(1006,46,l),
(158,46,l),
(158,47,l),
(652,542,ls),
(890,781,o),
(980,916,o),
(980,1088,cs),
(980,1331,o),
(797,1510,o),
(536,1510,cs),
(275,1510,o),
(92,1331,o),
(92,1088,c),
(138,1088,l),
(138,1305,o),
(301,1464,o),
(536,1464,cs),
(771,1464,o),
(934,1305,o),
(934,1088,cs),
(934,929,o),
(847,802,o),
(615,570,cs),
(92,46,l),
(92,0,l)
);
}
);
};
layerId = "45635B2B-919A-4B12-975B-2FA0A7CA8B35";
shapes = (
{
closed = 1;
nodes = (
(797,1509,o),
(980,1331,o),
(980,1088,cs),
(980,916,o),
(890,781,o),
(652,542,cs),
(158,47,l),
(158,46,l),
(1006,46,ls),
(1006,46,o),
(1006,46,o),
(1006,46,cs),
(1006,0,ls),
(1006,0,o),
(1006,0,o),
(1006,0,cs),
(92,0,ls),
(92,0,o),
(92,0,o),
(92,0,cs),
(92,46,ls),
(92,46,o),
(92,46,o),
(92,46,cs),
(615,570,ls),
(847,802,o),
(934,929,o),
(934,1088,cs),
(934,1305,o),
(771,1464,o),
(536,1464,cs),
(301,1464,o),
(138,1305,o),
(138,1088,cs),
(138,1088,o),
(138,1088,o),
(138,1088,cs),
(92,1088,ls),
(92,1088,o),
(92,1088,o),
(92,1088,cs),
(92,1331,o),
(275,1509,o),
(536,1509,cs)
);
}
);
width = 1098;
},
{
background = {
shapes = (
{
closed = 1;
nodes = (
(1064,0,l),
(1064,160,l),
(329,160,l),
(329,162,l),
(732,528,ls),
(951,727,o),
(1055,871,o),
(1055,1063,cs),
(1055,1328,o),
(858,1514,o),
(579,1514,cs),
(284,1514,o),
(91,1305,o),
(91,1008,c),
(259,1008,l),
(259,1220,o),
(376,1354,o),
(580,1354,cs),
(769,1354,o),
(885,1240,o),
(885,1056,cs),
(885,903,o),
(804,808,o),
(615,635,cs),
(85,151,l),
(85,0,l)
);
}
);
};
layerId = "B487E3D2-4ABF-4A2A-A195-DC6AACAFF568";
shapes = (
{
closed = 1;
nodes = (
(858,1514,o),
(1055,1328,o),
(1055,1063,cs),
(1055,871,o),
(951,727,o),
(732,528,cs),
(329,162,l),
(329,160,l),
(1064,160,ls),
(1064,160,o),
(1064,160,o),
(1064,160,cs),
(1064,0,ls),
(1064,0,o),
(1064,0,o),
(1064,0,cs),
(85,0,ls),
(85,0,o),
(85,0,o),
(85,0,cs),
(85,151,ls),
(85,151,o),
(85,151,o),
(85,151,cs),
(615,635,ls),
(804,808,o),
(885,903,o),
(885,1056,cs),
(885,1240,o),
(769,1354,o),
(580,1354,cs),
(376,1354,o),
(259,1220,o),
(259,1008,cs),
(259,1008,o),
(259,1008,o),
(259,1008,cs),
(91,1008,ls),
(91,1008,o),
(91,1008,o),
(91,1008,cs),
(91,1304,o),
(284,1514,o),
(579,1514,cs)
);
}
);
width = 1149;
},
{
background = {
shapes = (
{
closed = 1;
nodes = (
(993,0,ls),
(1037,0,o),
(1073,36,o),
(1073,80,cs),
(1073,124,o),
(1037,160,o),
(993,160,cs),
(329,160,l),
(329,162,l),
(732,528,ls),
(951,727,o),
(1055,871,o),
(1055,1063,cs),
(1055,1328,o),
(858,1514,o),
(579,1514,cs),
(316,1514,o),
(134,1348,o),
(98,1094,cs),
(91,1047,o),
(127,999,o),
(181,999,cs),
(223,999,o),
(259,1031,o),
(264,1072,cs),
(287,1249,o),
(399,1354,o),
(580,1354,cs),
(769,1354,o),
(885,1240,o),
(885,1056,cs),
(885,903,o),
(804,808,o),
(615,635,cs),
(108,172,ls),
(88,154,o),
(76,128,o),
(76,99,cs),
(76,44,o),
(121,0,o),
(175,0,cs)
);
}
);
};
layerId = m004;
shapes = (
{
closed = 1;
nodes = (
(858,1514,o),
(1055,1328,o),
(1055,1063,cs),
(1055,871,o),
(951,727,o),
(732,528,cs),
(329,162,l),
(329,160,l),
(993,160,ls),
(1037,160,o),
(1073,124,o),
(1073,80,cs),
(1073,80,ls),
(1073,36,o),
(1037,0,o),
(993,0,cs),
(175,0,ls),
(121,0,o),
(76,44,o),
(76,99,cs),
(76,99,ls),
(76,128,o),
(88,154,o),
(108,172,cs),
(615,635,ls),
(804,808,o),
(885,903,o),
(885,1056,cs),
(885,1240,o),
(769,1354,o),
(580,1354,cs),
(399,1354,o),
(287,1249,o),
(264,1072,cs),
(259,1031,o),
(223,999,o),
(181,999,cs),
(181,999,ls),
(127,999,o),
(91,1047,o),
(98,1094,cs),
(134,1348,o),
(316,1514,o),
(579,1514,cs)
);
}
);
width = 1149;
},
{
background = {
shapes = (
{
closed = 1;
nodes = (
(985,0,ls),
(997,0,o),
(1008,10,o),
(1008,23,cs),
(1008,36,o),
(997,46,o),
(985,46,cs),
(158,46,l),
(158,47,l),
(652,542,ls),
(890,781,o),
(980,916,o),
(980,1088,cs),
(980,1331,o),
(797,1510,o),
(536,1510,cs),
(284,1510,o),
(104,1343,o),
(93,1110,cs),
(92,1097,o),
(103,1086,o),
(116,1086,cs),
(128,1086,o),
(138,1095,o),
(139,1108,cs),
(149,1315,o),
(309,1464,o),
(536,1464,cs),
(771,1464,o),
(934,1305,o),
(934,1088,cs),
(934,929,o),
(847,802,o),
(615,570,cs),
(99,53,ls),
(94,48,o),
(90,39,o),
(90,31,cs),
(90,14,o),
(104,0,o),
(121,0,cs)
);
}
);
};
layerId = m005;
shapes = (
{
closed = 1;
nodes = (
(797,1510,o),
(980,1331,o),
(980,1088,cs),
(980,916,o),
(890,781,o),
(652,542,cs),
(158,47,l),
(158,46,l),
(985,46,ls),
(997,46,o),
(1008,36,o),
(1008,23,cs),
(1008,23,ls),
(1008,10,o),
(997,0,o),
(985,0,cs),
(121,0,ls),
(104,0,o),
(90,14,o),
(90,31,cs),
(90,31,ls),
(90,39,o),
(94,48,o),
(99,53,cs),
(615,570,ls),
(847,802,o),
(934,929,o),
(934,1088,cs),
(934,1305,o),
(771,1464,o),
(536,1464,cs),
(309,1464,o),
(149,1315,o),
(139,1108,cs),
(138,1095,o),
(128,1086,o),
(116,1086,cs),
(116,1086,ls),
(103,1086,o),
(92,1097,o),
(93,1110,cs),
(104,1343,o),
(284,1510,o),
(536,1510,cs)
);
}
);
width = 1098;
},
{
background = {
shapes = (
{
closed = 1;
nodes = (
(1078,0,ls),
(1167,0,o),
(1239,72,o),
(1239,161,cs),
(1239,250,o),
(1167,322,o),
(1078,322,c),
(639,322,l),
(639,324,l),
(880,520,ls),
(1078,681,o),
(1215,818,o),
(1215,1039,cs),
(1215,1335,o),
(975,1514,o),
(645,1514,cs),
(385,1514,o),
(184,1396,o),
(118,1186,cs),
(82,1073,o),
(145,928,o),
(280,928,cs),
(364,928,o),
(434,982,o),
(459,1057,cs),
(490,1149,o),
(557,1194,o),
(644,1194,cs),
(755,1194,o),
(829,1122,o),
(829,1016,cs),
(829,887,o),
(718,809,o),
(635,742,cs),
(124,329,ls),
(82,295,o),
(55,243,o),
(55,185,cs),
(55,83,o),
(138,0,o),
(240,0,cs)
);
}
);
};
layerId = m006;
shapes = (
{
closed = 1;
nodes = (
(975,1514,o),
(1215,1335,o),
(1215,1039,cs),
(1215,816,o),
(1071,690,o),
(880,520,cs),
(659,323,l),
(639,322,l),
(1078,322,ls),
(1168,322,o),
(1239,250,o),
(1239,161,cs),
(1239,161,ls),
(1239,72,o),
(1167,1,o),
(1078,1,cs),
(290,0,ls),
(188,0,o),
(105,83,o),
(105,185,cs),
(105,185,ls),
(105,243,o),
(133,293,o),
(174,329,cs),
(635,742,ls),
(715,813,o),
(829,887,o),
(829,1016,cs),
(829,1122,o),
(755,1194,o),
(644,1194,cs),
(557,1194,o),
(490,1149,o),
(459,1057,cs),
(434,982,o),
(364,928,o),
(280,928,cs),
(280,928,ls),
(145,928,o),
(82,1073,o),
(118,1186,cs),
(184,1396,o),
(385,1514,o),
(645,1514,cs)
);
}
);
width = 1291;
},
{
background = {
shapes = (
{
closed = 1;
nodes = (
(1006,0,l),
(1006,46,l),
(158,46,l),
(158,47,l),
(652,542,ls),
(890,781,o),
(980,916,o),
(980,1088,cs),
(980,1331,o),
(797,1510,o),
(536,1510,cs),
(275,1510,o),
(92,1331,o),
(92,1088,c),
(138,1088,l),
(138,1305,o),
(301,1464,o),
(536,1464,cs),
(771,1464,o),
(934,1305,o),
(934,1088,cs),
(934,929,o),
(847,802,o),
(615,570,cs),
(92,46,l),
(92,0,l)
);
}
);
};
layerId = m007;
shapes = (
{
closed = 1;
nodes = (
(797,1510,o),
(980,1331,o),
(980,1088,cs),
(980,916,o),
(890,781,o),
(652,542,cs),
(158,47,l),
(158,46,l),
(993,46,ls),
(1000,46,o),
(1006,40,o),
(1006,33,cs),
(1006,13,ls),
(1006,6,o),
(1000,0,o),
(993,0,cs),
(105,0,ls),
(98,0,o),
(92,6,o),
(92,13,cs),
(92,42,ls),
(92,45,o),
(93,47,o),
(95,49,cs),
(615,570,ls),
(847,802,o),
(934,929,o),
(934,1088,cs),
(934,1305,o),
(771,1464,o),
(536,1464,cs),
(306,1464,o),
(145,1311,o),
(138,1101,cs),
(138,1093,o),
(132,1088,o),
(125,1088,cs),
(105,1088,ls),
(98,1088,o),
(92,1094,o),
(92,1102,cs),
(99,1338,o),
(280,1510,o),
(536,1510,cs)
);
}
);
width = 1098;
},
{
background = {
shapes = (
{
closed = 1;
nodes = (
(1064,0,l),
(1064,160,l),
(329,160,l),
(329,162,l),
(732,528,ls),
(951,727,o),
(1055,871,o),
(1055,1063,cs),
(1055,1328,o),
(858,1514,o),
(579,1514,cs),
(284,1514,o),
(91,1305,o),
(91,1008,c),
(259,1008,l),
(259,1220,o),
(376,1354,o),
(580,1354,cs),
(769,1354,o),
(885,1240,o),
(885,1056,cs),
(885,903,o),
(804,808,o),
(615,635,cs),
(85,151,l),
(85,0,l)
);
}
);
};
layerId = m008;
shapes = (
{
closed = 1;
nodes = (
(858,1514,o),
(1055,1328,o),
(1055,1063,cs),
(1055,871,o),
(951,727,o),
(732,528,cs),
(329,162,l),
(329,160,l),
(1031,160,ls),
(1050,160,o),
(1064,146,o),
(1064,127,cs),
(1064,33,ls),
(1064,14,o),
(1050,0,o),
(1031,0,cs),
(118,0,ls),
(99,0,o),
(85,14,o),
(85,33,cs),
(85,139,ls),
(85,146,o),
(88,153,o),
(94,159,cs),
(615,635,ls),
(804,808,o),
(885,903,o),
(885,1056,cs),
(885,1240,o),
(769,1354,o),
(580,1354,cs),
(386,1354,o),
(271,1233,o),
(260,1040,cs),
(259,1021,o),
(246,1008,o),
(228,1008,cs),
(125,1008,ls),
(106,1008,o),
(91,1022,o),
(92,1042,cs),
(106,1321,o),
(295,1514,o),
(579,1514,cs)
);
}
);
width = 1149;
},
{
background = {
shapes = (
{
closed = 1;
nodes = (
(1219,0,l),
(1219,322,l),
(639,322,l),
(639,324,l),
(880,520,ls),
(1078,681,o),
(1215,816,o),
(1215,1039,cs),
(1215,1335,o),
(975,1514,o),
(645,1514,cs),
(284,1514,o),
(60,1299,o),
(60,952,c),
(441,952,l),
(441,1107,o),
(523,1194,o),
(644,1194,cs),
(755,1194,o),
(829,1122,o),
(829,1016,cs),
(829,887,o),
(718,809,o),
(635,742,cs),
(75,290,l),
(75,0,l)
);
}
);
};
layerId = m009;
shapes = (
{
closed = 1;
nodes = (
(975,1514,o),
(1215,1335,o),
(1215,1039,cs),
(1215,816,o),
(1078,681,o),
(880,520,cs),
(639,323,l),
(639,322,l),
(1146,322,ls),
(1188,322,o),
(1219,291,o),
(1219,249,cs),
(1219,73,ls),
(1219,31,o),
(1188,0,o),
(1146,0,cs),
(148,0,ls),
(106,0,o),
(75,31,o),
(75,73,cs),
(75,261,ls),
(75,280,o),
(83,296,o),
(98,308,cs),
(635,742,ls),
(718,809,o),
(829,887,o),
(829,1016,cs),
(829,1122,o),
(755,1194,o),
(644,1194,cs),
(541,1194,o),
(467,1131,o),
(447,1018,cs),
(440,979,o),
(414,952,o),
(376,952,cs),
(138,952,ls),
(94,952,o),
(59,986,o),
(64,1031,cs),
(96,1331,o),
(312,1514,o),
(645,1514,cs)
);
}
);
width = 1291;
}
);
unicode = 50;
}
{
color = 4;
glyphname = three;
kernLeft = three;
kernRight = eight;
layers = (
{
background = {
shapes = (
{
closed = 1;
nodes = (
(294,1514,o),
(78,1305,o),
(78,1032,c),
(466,1032,l),
(466,1139,o),
(548,1214,o),
(658,1214,cs),
(763,1214,o),
(839,1145,o),
(839,1050,cs),
(839,953,o),
(760,896,o),
(626,896,cs),
(482,896,l),
(482,616,l),
(626,616,ls),
(765,616,o),
(854,551,o),
(854,451,cs),
(854,354,o),
(771,286,o),
(652,286,cs),
(520,286,o),
(440,371,o),
(440,512,c),
(50,512,l),
(50,234,o),
(228,-24,o),
(654,-24,cs),
(1019,-24,o),
(1266,165,o),
(1266,420,cs),
(1266,598,o),
(1146,756,o),
(922,779,c),
(922,782,l),
(1091,802,o),
(1220,918,o),
(1220,1100,cs),
(1220,1343,o),
(988,1514,o),
(658,1514,cs)
);
}
);
};
layerId = m01;
shapes = (
{
closed = 1;
nodes = (
(294,1514,o),
(78,1305,o),
(78,1032,cs),
(78,1032,o),
(78,1032,o),
(78,1032,cs),
(466,1032,ls),
(466,1032,o),
(466,1032,o),
(466,1032,cs),
(466,1139,o),
(548,1214,o),
(658,1214,cs),
(763,1214,o),
(839,1145,o),
(839,1050,cs),
(839,953,o),
(760,896,o),
(626,896,cs),
(482,896,ls),
(482,896,o),
(482,896,o),
(482,896,cs),
(482,616,ls),
(482,616,o),
(482,616,o),
(482,616,cs),
(626,616,ls),
(765,616,o),
(854,551,o),
(854,451,cs),
(854,354,o),
(771,286,o),
(652,286,cs),
(520,286,o),
(440,372,o),
(440,512,cs),
(440,512,o),
(440,512,o),
(440,512,cs),
(50,512,ls),
(50,512,o),
(50,512,o),
(50,512,cs),
(50,234,o),
(228,-24,o),
(654,-24,cs),
(1019,-24,o),
(1266,165,o),
(1266,420,cs),
(1266,598,o),
(1146,756,o),
(922,779,c),
(922,781,l),
(1091,802,o),
(1220,918,o),
(1220,1100,cs),
(1220,1343,o),
(988,1514,o),
(658,1514,cs)
);
}
);
width = 1306;
},
{
background = {
shapes = (
{
closed = 1;
nodes = (
(829,-20,o),
(1024,158,o),
(1024,386,cs),
(1024,576,o),
(882,728,o),
(661,769,c),
(661,770,l),
(857,814,o),
(976,954,o),
(976,1128,cs),
(976,1347,o),
(796,1510,o),
(545,1510,cs),
(292,1510,o),
(107,1347,o),
(107,1118,c),
(153,1118,l),
(153,1321,o),
(318,1464,o),
(545,1464,cs),
(772,1464,o),
(930,1320,o),
(930,1128,cs),
(930,922,o),
(743,792,o),
(499,792,cs),
(477,792,l),
(477,744,l),
(499,744,ls),
(776,744,o),
(978,601,o),
(978,386,cs),
(978,187,o),
(806,26,o),
(547,26,cs),
(304,26,o),
(116,171,o),
(116,372,c),
(70,372,l),
(70,145,o),
(277,-20,o),
(547,-20,cs)
);
}
);
};
layerId = "45635B2B-919A-4B12-975B-2FA0A7CA8B35";
shapes = (
{
closed = 1;
nodes = (
(292,1510,o),
(107,1347,o),
(107,1118,cs),
(107,1118,o),
(107,1118,o),
(107,1118,cs),
(153,1118,ls),
(153,1118,o),
(153,1118,o),
(153,1118,cs),
(153,1321,o),
(318,1464,o),
(545,1464,cs),
(772,1464,o),
(930,1320,o),
(930,1128,cs),
(930,922,o),
(743,792,o),
(499,792,cs),
(477,792,ls),
(477,792,o),
(477,792,o),
(477,792,cs),
(477,744,ls),
(477,744,o),
(477,744,o),
(477,744,cs),
(499,744,ls),
(776,744,o),
(978,601,o),
(978,386,cs),
(978,187,o),
(806,26,o),
(547,26,cs),
(304,26,o),
(116,171,o),
(116,372,cs),
(116,372,o),
(116,372,o),
(116,372,cs),
(70,372,ls),
(70,372,o),
(70,372,o),
(70,372,cs),
(70,144,o),
(277,-20,o),
(547,-20,cs),
(829,-20,o),
(1024,158,o),
(1024,386,cs),
(1024,576,o),
(882,728,o),
(661,769,c),
(661,770,l),
(857,814,o),
(976,954,o),
(976,1128,cs),
(976,1347,o),
(796,1510,o),
(545,1510,cs)
);
}
);
width = 1088;
},
{
background = {
shapes = (
{
closed = 1;
nodes = (
(327,1514,o),
(128,1326,o),
(128,1056,c),
(302,1056,l),
(302,1244,o),
(418,1356,o),
(608,1356,cs),
(793,1356,o),
(914,1254,o),
(914,1086,cs),
(914,940,o),
(784,844,o),
(592,844,cs),
(472,844,l),
(472,684,l),
(592,684,ls),
(811,684,o),
(960,579,o),
(960,420,cs),
(960,245,o),
(820,134,o),
(616,134,cs),
(403,134,o),
(278,257,o),
(278,468,c),
(96,468,l),
(96,177,o),
(312,-24,o),
(620,-24,cs),
(916,-24,o),
(1136,159,o),
(1136,420,cs),
(1136,596,o),
(1012,735,o),
(822,767,c),
(822,770,l),
(988,821,o),
(1090,945,o),
(1090,1096,cs),
(1090,1339,o),
(883,1514,o),
(609,1514,cs)
);
}
);
};
layerId = "B487E3D2-4ABF-4A2A-A195-DC6AACAFF568";
shapes = (
{
closed = 1;
nodes = (
(327,1514,o),
(128,1326,o),
(128,1056,cs),
(128,1056,o),
(128,1056,o),
(128,1056,cs),
(302,1056,ls),
(302,1056,o),
(302,1056,o),
(302,1056,cs),
(302,1244,o),
(418,1356,o),
(608,1356,cs),
(793,1356,o),
(914,1254,o),
(914,1086,cs),
(914,940,o),
(784,844,o),
(592,844,cs),
(472,844,ls),
(472,844,o),
(472,844,o),
(472,844,cs),
(472,684,ls),
(472,684,o),
(472,684,o),
(472,684,cs),
(592,684,ls),
(811,684,o),
(960,579,o),
(960,420,cs),
(960,245,o),
(820,134,o),
(616,134,cs),
(403,134,o),
(278,257,o),
(278,468,cs),
(278,468,o),
(278,468,o),
(278,468,cs),
(96,468,ls),
(96,468,o),
(96,468,o),
(96,468,cs),
(96,177,o),
(312,-24,o),
(620,-24,cs),
(916,-24,o),
(1136,159,o),
(1136,420,cs),
(1136,596,o),
(1012,735,o),
(822,767,c),
(822,770,l),
(988,821,o),
(1090,945,o),
(1090,1096,cs),
(1090,1339,o),
(883,1514,o),
(609,1514,cs)
);
}
);
width = 1226;
},
{
background = {
shapes = (
{
closed = 1;
nodes = (
(916,-24,o),
(1136,159,o),
(1136,420,cs),
(1136,596,o),
(1012,735,o),
(822,767,c),
(822,770,l),
(988,821,o),
(1090,945,o),
(1090,1096,cs),
(1090,1339,o),
(883,1514,o),
(609,1514,cs),
(363,1514,o),
(180,1371,o),
(138,1149,cs),
(128,1095,o),
(168,1047,o),
(222,1047,cs),
(265,1047,o),
(301,1078,o),
(308,1119,cs),
(333,1271,o),
(442,1356,o),
(608,1356,cs),
(793,1356,o),
(914,1254,o),
(914,1086,cs),
(914,940,o),
(784,844,o),
(592,844,cs),
(532,844,ls),
(488,844,o),
(452,808,o),
(452,764,cs),
(452,720,o),
(488,684,o),
(532,684,cs),
(592,684,ls),
(811,684,o),
(960,578,o),
(960,420,cs),
(960,245,o),
(820,134,o),
(616,134,cs),
(429,134,o),
(310,229,o),
(284,401,cs),
(277,445,o),
(240,477,o),
(194,477,cs),
(138,477,o),
(96,426,o),
(106,370,cs),
(151,130,o),
(350,-24,o),
(620,-24,cs)
);
}
);
};
layerId = m004;
shapes = (
{
closed = 1;
nodes = (
(363,1514,o),
(180,1371,o),
(138,1149,cs),
(128,1095,o),
(168,1047,o),
(222,1047,cs),
(222,1047,ls),
(265,1047,o),
(301,1078,o),
(308,1119,cs),
(333,1271,o),
(442,1356,o),
(608,1356,cs),
(793,1356,o),
(914,1254,o),
(914,1086,cs),
(914,940,o),
(784,844,o),
(592,844,cs),
(532,844,ls),
(488,844,o),
(452,808,o),
(452,764,cs),
(452,764,ls),
(452,720,o),
(488,684,o),
(532,684,cs),
(592,684,ls),
(811,684,o),
(960,579,o),
(960,420,cs),
(960,245,o),
(820,134,o),
(616,134,cs),
(429,134,o),
(310,229,o),
(284,401,cs),
(277,445,o),
(240,477,o),
(194,477,cs),
(194,477,ls),
(138,477,o),
(96,426,o),
(106,370,cs),
(151,130,o),
(350,-24,o),
(620,-24,cs),
(916,-24,o),
(1136,159,o),
(1136,420,cs),
(1136,596,o),
(1012,735,o),
(822,767,c),
(822,770,l),
(988,821,o),
(1090,945,o),
(1090,1096,cs),
(1090,1339,o),
(883,1514,o),
(609,1514,cs)
);
}
);
width = 1226;
},
{
background = {
shapes = (
{
closed = 1;
nodes = (
(829,-20,o),
(1024,158,o),
(1024,386,cs),
(1024,576,o),
(882,728,o),
(661,769,c),
(661,770,l),
(857,814,o),
(976,954,o),
(976,1128,cs),
(976,1347,o),
(796,1510,o),
(545,1510,cs),
(301,1510,o),
(120,1358,o),
(108,1140,cs),
(107,1127,o),
(118,1116,o),
(131,1116,cs),
(143,1116,o),
(153,1125,o),
(154,1137,cs),
(165,1331,o),
(326,1464,o),
(545,1464,cs),
(772,1464,o),
(930,1320,o),
(930,1128,cs),
(930,922,o),
(743,792,o),
(499,794,cs),
(487,794,o),
(477,784,o),
(477,772,cs),
(477,764,ls),
(477,752,o),
(487,742,o),
(499,742,cs),
(776,744,o),
(978,601,o),
(978,386,cs),
(978,187,o),
(806,26,o),
(547,26,cs),
(313,26,o),
(129,161,o),
(117,353,cs),
(116,365,o),
(106,374,o),
(94,374,cs),
(81,374,o),
(70,363,o),
(71,350,cs),
(85,133,o),
(287,-20,o),
(547,-20,cs)
);
}
);
};
layerId = m005;
shapes = (
{
closed = 1;
nodes = (
(301,1510,o),
(120,1358,o),
(108,1140,cs),
(107,1127,o),
(118,1116,o),
(131,1116,cs),
(131,1116,ls),
(143,1116,o),
(153,1125,o),
(154,1137,cs),
(165,1331,o),
(326,1464,o),
(545,1464,cs),
(772,1464,o),
(930,1320,o),
(930,1128,cs),
(930,922,o),
(743,792,o),
(497,792,cs),
(497,792,ls),
(484,792,o),
(473,782,o),
(473,768,cs),
(473,768,ls),
(473,754,o),
(484,744,o),
(497,744,cs),
(497,744,ls),
(775,744,o),
(978,601,o),
(978,386,cs),
(978,187,o),
(806,26,o),
(547,26,cs),
(313,26,o),
(129,161,o),
(117,353,cs),
(116,365,o),
(106,374,o),
(94,374,cs),
(94,374,ls),
(81,374,o),
(70,363,o),
(71,350,cs),
(85,133,o),
(287,-20,o),
(547,-20,cs),
(829,-20,o),
(1024,158,o),
(1024,386,cs),
(1024,576,o),
(882,728,o),
(661,769,c),
(661,770,l),
(857,814,o),
(976,954,o),
(976,1128,cs),
(976,1347,o),
(796,1510,o),
(545,1510,cs)
);
}
);
width = 1088;
},
{
background = {
shapes = (
{
closed = 1;
nodes = (
(437,1514,o),
(273,1433,o),
(178,1302,cs),
(90,1177,o),
(175,1021,o),
(301,1021,cs),
(376,1021,o),
(438,1057,o),
(467,1112,cs),
(503,1179,o),
(572,1214,o),
(658,1214,cs),
(763,1214,o),
(839,1145,o),
(839,1050,cs),
(839,953,o),
(760,896,o),
(626,896,cs),
(610,896,ls),
(533,896,o),
(470,833,o),
(470,756,cs),
(470,679,o),
(533,616,o),
(610,616,cs),
(626,616,ls),
(765,616,o),
(854,551,o),
(854,451,cs),
(854,354,o),
(771,286,o),
(652,286,cs),
(548,286,o),
(475,328,o),
(439,412,cs),
(413,474,o),
(345,516,o),
(261,516,cs),
(124,516,o),
(68,362,o),
(119,261,cs),
(202,94,o),
(372,-24,o),
(654,-24,cs),
(1019,-24,o),
(1266,165,o),
(1266,420,cs),
(1266,598,o),
(1146,756,o),
(922,779,c),
(922,781,o),
(989,773,o),
(1090,843,cs),
(1169,898,o),
(1220,986,o),
(1220,1100,cs),
(1220,1343,o),
(988,1514,o),
(658,1514,cs)
);
}
);
};
layerId = m006;
shapes = (
{
closed = 1;
nodes = (
(437,1514,o),
(271,1434,o),
(178,1302,cs),
(89,1176,o),
(175,1021,o),
(301,1021,cs),
(301,1021,ls),
(376,1021,o),
(438,1057,o),
(467,1112,cs),
(503,1179,o),
(572,1214,o),
(658,1214,cs),
(763,1214,o),
(839,1145,o),
(839,1050,cs),
(839,953,o),
(760,896,o),
(626,896,cs),
(626,896,ls),
(533,896,o),
(470,833,o),
(470,756,cs),
(470,756,ls),
(470,679,o),
(533,616,o),
(626,616,cs),
(626,616,ls),
(765,616,o),
(854,551,o),
(854,451,cs),
(854,354,o),
(771,286,o),
(652,286,cs),
(548,286,o),
(475,328,o),
(439,412,cs),
(412,474,o),
(345,516,o),
(261,516,cs),
(261,516,ls),
(124,516,o),
(69,362,o),
(119,261,cs),
(202,94,o),
(372,-24,o),
(654,-24,cs),
(1019,-24,o),
(1266,165,o),
(1266,420,cs),
(1266,598,o),
(1146,756,o),
(922,779,c),
(922,781,l),
(1091,802,o),
(1220,918,o),
(1220,1100,cs),
(1220,1343,o),
(988,1514,o),
(658,1514,cs)
);
}
);
width = 1306;
},
{
background = {
shapes = (
{
closed = 1;
nodes = (
(829,-20,o),
(1024,158,o),
(1024,386,cs),
(1024,576,o),
(882,728,o),
(661,769,c),
(661,770,l),
(857,814,o),
(976,954,o),
(976,1128,cs),
(976,1347,o),
(796,1510,o),
(545,1510,cs),
(292,1510,o),
(107,1347,o),
(107,1118,c),
(153,1118,l),
(153,1321,o),
(318,1464,o),
(545,1464,cs),
(772,1464,o),
(930,1320,o),
(930,1128,cs),
(930,922,o),
(743,792,o),
(499,792,cs),
(477,792,l),
(477,744,l),
(499,744,ls),
(776,744,o),
(978,601,o),
(978,386,cs),
(978,187,o),
(806,26,o),
(547,26,cs),
(304,26,o),
(116,171,o),
(116,372,c),
(70,372,l),
(70,145,o),
(277,-20,o),
(547,-20,cs)
);
}
);
};
layerId = m007;
shapes = (
{
closed = 1;
nodes = (
(297,1510,o),
(114,1353,o),
(107,1132,cs),
(107,1124,o),
(114,1118,o),
(121,1118,cs),
(140,1118,ls),
(147,1118,o),
(153,1123,o),
(153,1131,cs),
(160,1327,o),
(323,1464,o),
(545,1464,cs),
(772,1464,o),
(930,1320,o),
(930,1128,cs),
(930,922,o),
(743,792,o),
(499,792,cs),
(490,792,ls),
(483,792,o),
(477,786,o),
(477,779,cs),
(477,757,ls),
(477,750,o),
(483,744,o),
(490,744,cs),
(499,744,ls),
(776,744,o),
(978,601,o),
(978,386,cs),
(978,187,o),
(806,26,o),
(547,26,cs),
(309,26,o),
(124,165,o),
(116,359,cs),
(116,367,o),
(110,372,o),
(103,372,cs),
(84,372,ls),
(77,372,o),
(70,366,o),
(70,358,cs),
(78,138,o),
(282,-20,o),
(547,-20,cs),
(829,-20,o),
(1024,158,o),
(1024,386,cs),
(1024,576,o),
(882,728,o),
(661,769,c),
(661,770,l),
(857,814,o),
(976,954,o),
(976,1128,cs),
(976,1347,o),
(796,1510,o),
(545,1510,cs)
);
}
);
width = 1088;
},
{
background = {
shapes = (
{
closed = 1;
nodes = (
(327,1514,o),
(128,1326,o),
(128,1056,c),
(302,1056,l),
(302,1244,o),
(418,1356,o),
(608,1356,cs),
(793,1356,o),
(914,1254,o),
(914,1086,cs),
(914,940,o),
(784,844,o),
(592,844,cs),
(472,844,l),
(472,684,l),
(592,684,ls),
(811,684,o),
(960,579,o),
(960,420,cs),
(960,245,o),
(820,134,o),
(616,134,cs),
(403,134,o),
(278,257,o),
(278,468,c),
(96,468,l),
(96,177,o),
(312,-24,o),
(620,-24,cs),
(916,-24,o),
(1136,159,o),
(1136,420,cs),
(1136,596,o),
(1012,735,o),
(822,767,c),
(822,770,l),
(988,821,o),
(1090,945,o),
(1090,1096,cs),
(1090,1339,o),
(883,1514,o),
(609,1514,cs)
);
}
);
};
layerId = m008;
shapes = (
{
closed = 1;
nodes = (
(339,1514,o),
(145,1342,o),
(129,1090,cs),
(128,1070,o),
(143,1056,o),
(162,1056,cs),
(271,1056,ls),
(289,1056,o),
(302,1069,o),
(303,1087,cs),
(315,1256,o),
(429,1356,o),
(608,1356,cs),
(793,1356,o),
(914,1254,o),
(914,1086,cs),
(914,940,o),
(784,844,o),
(592,844,cs),
(505,844,ls),
(486,844,o),
(472,830,o),
(472,811,cs),
(472,717,ls),
(472,698,o),
(486,684,o),
(505,684,cs),
(592,684,ls),
(811,684,o),
(960,579,o),
(960,420,cs),
(960,245,o),
(820,134,o),
(616,134,cs),
(414,134,o),
(291,245,o),
(279,436,cs),
(278,455,o),
(265,468,o),
(247,468,cs),
(130,468,ls),
(111,468,o),
(96,454,o),
(97,434,cs),
(113,161,o),
(324,-24,o),
(620,-24,cs),
(916,-24,o),
(1136,159,o),
(1136,420,cs),
(1136,596,o),
(1012,735,o),
(822,767,c),
(822,770,l),
(988,821,o),
(1090,945,o),
(1090,1096,cs),
(1090,1339,o),
(883,1514,o),
(609,1514,cs)
);
}
);
width = 1226;
},
{
background = {
shapes = (
{
closed = 1;
nodes = (
(294,1514,o),
(78,1305,o),
(78,1032,c),
(466,1032,l),
(466,1139,o),
(548,1214,o),
(658,1214,cs),
(763,1214,o),
(839,1145,o),
(839,1050,cs),
(839,953,o),
(760,896,o),
(626,896,cs),
(482,896,l),
(482,616,l),
(626,616,ls),
(765,616,o),
(854,551,o),
(854,451,cs),
(854,354,o),
(771,286,o),
(652,286,cs),
(520,286,o),
(440,371,o),
(440,512,c),
(50,512,l),
(50,234,o),
(228,-24,o),
(654,-24,cs),
(1019,-24,o),
(1266,165,o),
(1266,420,cs),
(1266,598,o),
(1146,756,o),
(922,779,c),
(922,782,l),
(1091,802,o),
(1220,918,o),
(1220,1100,cs),
(1220,1343,o),
(988,1514,o),
(658,1514,cs)
);
}
);
};
layerId = m009;
shapes = (
{
closed = 1;
nodes = (
(331,1514,o),
(123,1345,o),
(84,1112,cs),
(77,1067,o),
(113,1032,o),
(159,1032,cs),
(408,1032,ls),
(442,1032,o),
(464,1055,o),
(474,1089,cs),
(498,1165,o),
(569,1214,o),
(658,1214,cs),
(763,1214,o),
(839,1145,o),
(839,1050,cs),
(839,953,o),
(760,896,o),
(626,896,cs),
(555,896,ls),
(513,896,o),
(482,865,o),
(482,823,cs),
(482,689,ls),
(482,647,o),
(513,616,o),
(555,616,cs),
(626,616,ls),
(765,616,o),
(854,551,o),
(854,451,cs),
(854,354,o),
(771,286,o),
(652,286,cs),
(541,286,o),
(467,346,o),
(446,448,cs),
(438,486,o),
(413,512,o),
(376,512,cs),
(129,512,ls),
(84,512,o),
(49,478,o),
(55,434,cs),
(86,187,o),
(268,-24,o),
(654,-24,cs),
(1019,-24,o),
(1266,165,o),
(1266,420,cs),
(1266,598,o),
(1146,756,o),
(922,779,c),
(922,781,l),
(1091,802,o),
(1220,918,o),
(1220,1101,cs),
(1220,1344,o),
(988,1515,o),
(658,1514,cs)
);
}
);
width = 1306;
}
);
metricRight = "=zero";
unicode = 51;
}
{
color = 4;
glyphname = four;
kernLeft = four;
kernRight = four;
layers = (
{
background = {
shapes = (
{
closed = 1;
nodes = (
(1348,288,l),
(1348,594,l),
(439,594,l),
(439,596,l),
(791,1118,l),
(934,1118,l),
(934,1490,l),
(671,1490,l),
(64,602,l),
(64,288,l)
);
},
{
closed = 1;
nodes = (
(1182,0,l),
(1182,1490,l),
(792,1490,l),
(792,522,l),
(792,384,l),
(792,0,l)
);
}
);
};
layerId = m01;
shapes = (
{
closed = 1;
nodes = (
(934,1490,l),
(671,1490,ls),
(671,1490,o),
(671,1490,o),
(671,1490,cs),
(64,602,ls),
(64,602,o),
(64,602,o),
(64,602,cs),
(64,288,ls),
(64,288,o),
(64,288,o),
(64,288,cs),
(1348,288,ls),
(1348,288,o),
(1348,288,o),
(1348,288,cs),
(1348,594,ls),
(1348,594,o),
(1348,594,o),
(1348,594,cs),
(439,594,l),
(439,595,l),
(791,1118,l),
(934,1118,l)
);
},
{
closed = 1;
nodes = (
(1182,0,ls),
(1182,0,o),
(1182,0,o),
(1182,0,cs),
(1182,1490,ls),
(1182,1490,o),
(1182,1490,o),
(1182,1490,cs),
(792,1490,l),
(792,1417,l),
(792,0,ls),
(792,0,o),
(792,0,o),
(792,0,cs)
);
}
);
width = 1414;
},
{
background = {
shapes = (
{
closed = 1;
nodes = (
(1122,422,l),
(1122,468,l),
(131,468,l),
(131,469,l),
(841,1434,l),
(872,1434,l),
(872,1490,l),
(825,1490,l),
(64,456,l),
(64,422,l)
);
},
{
closed = 1;
nodes = (
(887,0,l),
(887,1490,l),
(841,1490,l),
(841,450,l),
(841,436,l),
(841,0,l)
);
}
);
};
layerId = "45635B2B-919A-4B12-975B-2FA0A7CA8B35";
shapes = (
{
closed = 1;
nodes = (
(872,1490,l),
(825,1490,ls),
(825,1490,o),
(825,1490,o),
(825,1490,cs),
(64,456,ls),
(64,456,o),
(64,456,o),
(64,456,cs),
(64,422,ls),
(64,422,o),
(64,422,o),
(64,422,cs),
(1122,422,ls),
(1122,422,o),
(1122,422,o),
(1122,422,cs),
(1122,468,ls),
(1122,468,o),
(1122,468,o),
(1122,468,cs),
(131,468,l),
(131,469,l),
(841,1434,l),
(872,1434,l)
);
},
{
closed = 1;
nodes = (
(887,0,ls),
(887,0,o),
(887,0,o),
(887,0,cs),
(887,1490,ls),
(887,1490,o),
(887,1490,o),
(887,1490,cs),
(841,1490,l),
(841,1477,l),
(841,0,ls),
(841,0,o),
(841,0,o),
(841,0,cs)
);
}
);
width = 1186;
},
{
background = {
shapes = (
{
closed = 1;
nodes = (
(1213,360,l),
(1213,520,l),
(256,520,l),
(256,522,l),
(811,1288,l),
(875,1288,l),
(875,1490,l),
(765,1490,l),
(52,508,l),
(52,360,l)
);
},
{
closed = 1;
nodes = (
(985,0,l),
(985,1490,l),
(813,1490,l),
(813,474,l),
(813,404,l),
(813,0,l)
);
}
);
};
layerId = "B487E3D2-4ABF-4A2A-A195-DC6AACAFF568";
shapes = (
{
closed = 1;
nodes = (
(875,1490,l),
(765,1490,ls),
(765,1490,o),
(765,1490,o),
(765,1490,cs),
(52,508,ls),
(52,508,o),
(52,508,o),
(52,508,cs),
(52,360,ls),
(52,360,o),
(52,360,o),
(52,360,cs),
(1213,360,ls),
(1213,360,o),
(1213,360,o),
(1213,360,cs),
(1213,520,ls),
(1213,520,o),
(1213,520,o),
(1213,520,cs),
(256,520,l),
(256,521,l),
(811,1288,l),
(875,1288,l)
);
},
{
closed = 1;
nodes = (
(985,0,ls),
(985,0,o),
(985,0,o),
(985,0,cs),
(985,1490,ls),
(985,1490,o),
(985,1490,o),
(985,1490,cs),
(813,1490,l),
(813,1457,l),
(813,0,ls),
(813,0,o),
(813,0,o),
(813,0,cs)
);
}
);
width = 1265;
},
{
background = {
shapes = (
{
closed = 1;
nodes = (
(1142,360,ls),
(1186,360,o),
(1222,396,o),
(1222,440,cs),
(1222,484,o),
(1186,520,o),
(1142,520,cs),
(256,520,l),
(256,521,ls),
(256,521,o),
(267,537,o),
(294,575,cs),
(769,1229,ls),
(799,1270,o),
(821,1288,o),
(843,1288,cs),
(863,1288,o),
(875,1322,o),
(875,1383,cs),
(875,1430,ls),
(875,1467,o),
(844,1499,o),
(806,1499,cs),
(784,1499,o),
(763,1488,o),
(751,1471,cs),
(63,523,ls),
(51,506,o),
(43,485,o),
(43,462,cs),
(43,406,o),
(89,360,o),
(145,360,cs)
);
},
{
closed = 1;
nodes = (
(985,77,cs),
(985,1413,ls),
(985,1460,o),
(946,1499,o),
(899,1499,cs),
(852,1499,o),
(813,1460,o),
(813,1413,cs),
(813,77,ls),
(813,30,o),
(852,-9,o),
(899,-9,cs),
(946,-9,o),
(985,30,o)
);
},
{
closed = 1;
nodes = (
(925,1264,o),
(985,1323,o),
(985,1394,cs),
(985,1464,o),
(925,1524,o),
(855,1524,cs),
(813,1524,o),
(775,1503,o),
(751,1471,cs),
(735,1449,o),
(725,1422,o),
(725,1394,cs),
(725,1323,o),
(784,1264,o),
(855,1264,cs)
);
}
);
};
layerId = m004;
shapes = (
{
closed = 1;
nodes = (
(855,1514,l),
(855,1514,ls),
(813,1514,o),
(774,1493,o),
(751,1461,cs),
(63,523,ls),
(51,506,o),
(43,485,o),
(43,462,cs),
(43,462,ls),
(43,406,o),
(89,360,o),
(145,360,cs),
(1142,360,ls),
(1186,360,o),
(1222,396,o),
(1222,440,cs),
(1222,440,ls),
(1222,484,o),
(1186,520,o),
(1142,520,cs),
(256,520,l),
(255,520,l),
(813,1278,l),
(855,1278,l)
);
},
{
closed = 1;
nodes = (
(899,-9,ls),
(946,-9,o),
(985,30,o),
(985,77,cs),
(985,1384,ls),
(985,1450,o),
(925,1514,o),
(855,1514,cs),
(855,1514,l),
(813,1447,l),
(813,77,ls),
(813,30,o),
(852,-9,o),
(899,-9,cs)
);
}
);
width = 1265;
},
{
background = {
shapes = (
{
closed = 1;
nodes = (
(1101,422,ls),
(1113,422,o),
(1124,432,o),
(1124,445,cs),
(1124,458,o),
(1113,468,o),
(1101,468,cs),
(131,468,l),
(131,469,ls),
(131,469,o),
(141,481,o),
(153,498,cs),
(830,1419,ls),
(837,1429,o),
(844,1434,o),
(849,1434,cs),
(866,1434,o),
(878,1450,o),
(873,1467,cs),
(869,1481,o),
(857,1492,o),
(842,1492,cs),
(832,1492,o),
(823,1487,o),
(818,1480,cs),
(66,459,ls),
(63,455,o),
(62,450,o),
(62,445,cs),
(62,432,o),
(73,422,o),
(85,422,cs)
);
},
{
closed = 1;
nodes = (
(887,21,cs),
(887,1469,ls),
(887,1481,o),
(877,1492,o),
(864,1492,cs),
(851,1492,o),
(841,1481,o),
(841,1469,cs),
(841,21,ls),
(841,9,o),
(851,-2,o),
(864,-2,cs),
(877,-2,o),
(887,9,o)
);
},
{
closed = 1;
nodes = (
(871,1422,o),
(887,1438,o),
(887,1459,cs),
(887,1481,o),
(871,1497,o),
(849,1497,cs),
(836,1497,o),
(824,1490,o),
(818,1480,cs),
(814,1474,o),
(812,1467,o),
(812,1459,cs),
(812,1438,o),
(828,1422,o),
(849,1422,cs)
);
}
);
};
layerId = m005;
shapes = (
{
closed = 1;
nodes = (
(849,1497,l),
(849,1497,ls),
(836,1497,o),
(823,1487,o),
(818,1480,cs),
(66,459,ls),
(63,455,o),
(62,450,o),
(62,445,cs),
(62,445,ls),
(62,432,o),
(73,422,o),
(85,422,cs),
(1101,422,ls),
(1113,422,o),
(1124,432,o),
(1124,445,cs),
(1124,445,ls),
(1124,458,o),
(1113,468,o),
(1101,468,cs),
(131,468,l),
(130,468,l),
(841,1435,l),
(849,1435,l)
);
},
{
closed = 1;
nodes = (
(864,-2,ls),
(877,-2,o),
(887,9,o),
(887,21,cs),
(887,1459,ls),
(887,1481,o),
(871,1497,o),
(849,1497,cs),
(849,1497,l),
(841,1477,l),
(841,21,ls),
(841,9,o),
(851,-2,o),
(864,-2,cs)
);
}
);
width = 1186;
},
{
background = {
shapes = (
{
closed = 1;
nodes = (
(1215,288,ls),
(1299,288,o),
(1368,356,o),
(1368,441,cs),
(1368,526,o),
(1299,594,o),
(1215,594,cs),
(439,594,l),
(439,595,l),
(699,982,l),
(934,1331,l),
(934,1347,ls),
(934,1437,o),
(861,1510,o),
(771,1510,cs),
(715,1510,o),
(665,1482,o),
(636,1439,cs),
(82,628,ls),
(58,593,o),
(44,551,o),
(44,505,cs),
(44,385,o),
(141,288,o),
(261,288,cs)
);
},
{
closed = 1;
nodes = (
(1182,175,cs),
(1182,1315,ls),
(1182,1422,o),
(1095,1510,o),
(987,1510,cs),
(879,1510,o),
(792,1422,o),
(792,1315,cs),
(792,175,ls),
(792,68,o),
(879,-20,o),
(987,-20,cs),
(1095,-20,o),
(1182,68,o)
);
},
{
closed = 1;
nodes = (
(1051,990,o),
(1183,1122,o),
(1183,1285,cs),
(1183,1448,o),
(1051,1580,o),
(888,1580,cs),
(781,1580,o),
(688,1524,o),
(636,1439,cs),
(609,1394,o),
(593,1341,o),
(593,1285,cs),
(593,1122,o),
(725,990,o),
(888,990,cs)
);
}
);
};
layerId = m006;
shapes = (
{
closed = 1;
nodes = (
(878,1514,l),
(878,1514,ls),
(771,1514,o),
(682,1455,o),
(626,1373,cs),
(102,628,ls),
(78,593,o),
(64,551,o),
(64,505,cs),
(64,505,ls),
(64,385,o),
(161,288,o),
(281,288,cs),
(1205,288,ls),
(1289,288,o),
(1358,356,o),
(1358,441,cs),
(1358,441,ls),
(1358,526,o),
(1289,594,o),
(1205,594,cs),
(459,594,l),
(459,595,l),
(782,1054,l),
(878,1054,l)
);
},
{
closed = 1;
nodes = (
(977,-20,ls),
(1085,-20,o),
(1172,68,o),
(1172,175,cs),
(1173,1219,ls),
(1173,1382,o),
(1041,1514,o),
(878,1514,cs),
(878,1514,l),
(782,1351,l),
(782,175,ls),
(782,68,o),
(869,-20,o),
(977,-20,cs)
);
}
);
width = 1414;
},
{
background = {
shapes = (
{
closed = 1;
nodes = (
(1122,422,l),
(1122,468,l),
(131,468,l),
(131,469,l),
(841,1434,l),
(872,1434,l),
(872,1490,l),
(825,1490,l),
(64,456,l),
(64,422,l)
);
},
{
closed = 1;
nodes = (
(887,0,l),
(887,1490,l),
(841,1490,l),
(841,450,l),
(841,436,l),
(841,0,l)
);
}
);
};
layerId = m007;
shapes = (
{
closed = 1;
nodes = (
(872,1490,l),
(831,1490,ls),
(828,1490,o),
(824,1488,o),
(822,1485,cs),
(66,459,ls),
(65,457,o),
(64,455,o),
(64,453,cs),
(64,435,ls),
(64,428,o),
(70,422,o),
(77,422,cs),
(1109,422,ls),
(1116,422,o),
(1122,428,o),
(1122,435,cs),
(1122,455,ls),
(1122,462,o),
(1116,468,o),
(1109,468,cs),
(131,468,l),
(131,469,l),
(841,1434,l),
(872,1434,l)
);
},
{
closed = 1;
nodes = (
(874,0,ls),
(881,0,o),
(887,6,o),
(887,13,cs),
(887,1477,ls),
(887,1484,o),
(881,1490,o),
(874,1490,cs),
(841,1490,l),
(841,1477,l),
(841,13,ls),
(841,6,o),
(847,0,o),
(854,0,cs)
);
}
);
width = 1186;
},
{
background = {
shapes = (
{
closed = 1;
nodes = (
(1213,360,l),
(1213,520,l),
(256,520,l),
(256,522,l),
(811,1288,l),
(875,1288,l),
(875,1490,l),
(765,1490,l),
(52,508,l),
(52,360,l)
);
},
{
closed = 1;
nodes = (
(985,0,l),
(985,1490,l),
(813,1490,l),
(813,474,l),
(813,404,l),
(813,0,l)
);
}
);
};
layerId = m008;
shapes = (
{
closed = 1;
nodes = (
(875,1490,l),
(779,1490,ls),
(770,1490,o),
(762,1486,o),
(757,1479,cs),
(57,515,ls),
(54,510,o),
(52,505,o),
(52,500,cs),
(52,393,ls),
(52,374,o),
(66,360,o),
(85,360,cs),
(1180,360,ls),
(1199,360,o),
(1213,374,o),
(1213,393,cs),
(1213,487,ls),
(1213,506,o),
(1199,520,o),
(1180,520,cs),
(256,520,l),
(256,521,l),
(811,1288,l),
(875,1288,l)
);
},
{
closed = 1;
nodes = (
(952,0,ls),
(971,0,o),
(985,14,o),
(985,33,cs),
(985,1457,ls),
(985,1476,o),
(971,1490,o),
(952,1490,cs),
(813,1490,l),
(813,1457,l),
(813,33,ls),
(813,14,o),
(827,0,o),
(846,0,cs)
);
}
);
width = 1265;
},
{
background = {
shapes = (
{
closed = 1;
nodes = (
(1348,288,l),
(1348,594,l),
(439,594,l),
(439,596,l),
(791,1118,l),
(934,1118,l),
(934,1490,l),
(671,1490,l),
(64,602,l),
(64,288,l)
);
},
{
closed = 1;
nodes = (
(1182,0,l),
(1182,1490,l),
(792,1490,l),
(792,522,l),
(792,384,l),
(792,0,l)
);
}
);
};
layerId = m009;
shapes = (
{
closed = 1;
nodes = (
(934,1490,l),
(704,1490,ls),
(683,1490,o),
(664,1481,o),
(652,1463,cs),
(74,617,ls),
(67,607,o),
(64,596,o),
(64,584,cs),
(64,361,ls),
(64,319,o),
(95,288,o),
(137,288,cs),
(1275,288,ls),
(1317,288,o),
(1348,319,o),
(1348,361,cs),
(1348,521,ls),
(1348,563,o),
(1317,594,o),
(1275,594,cs),
(439,594,l),
(439,595,l),
(791,1118,l),
(934,1118,l)
);
},
{
closed = 1;
nodes = (
(1109,0,ls),
(1151,0,o),
(1182,31,o),
(1182,73,cs),
(1182,1417,ls),
(1182,1459,o),
(1151,1490,o),
(1109,1490,cs),
(792,1490,l),
(792,1417,l),
(792,73,ls),
(792,31,o),
(823,0,o),
(865,0,cs)
);
}
);
width = 1414;
}
);
unicode = 52;
}
{
color = 4;
glyphname = five;
layers = (
{
background = {
shapes = (
{
closed = 1;
nodes = (
(989,-24,o),
(1225,200,o),
(1225,512,cs),
(1225,795,o),
(975,1017,o),
(710,1017,cs),
(600,1017,o),
(507,985,o),
(446,925,c),
(444,925,l),
(463,1166,l),
(1133,1166,l),
(1133,1490,l),
(99,1490,l),
(57,600,l),
(429,600,l),
(452,674,o),
(527,724,o),
(630,724,cs),
(750,724,o),
(835,631,o),
(835,500,cs),
(835,370,o),
(752,282,o),
(630,282,cs),
(510,282,o),
(420,366,o),
(420,480,c),
(35,480,l),
(55,166,o),
(283,-24,o),
(627,-24,cs)
);
}
);
};
layerId = m01;
shapes = (
{
closed = 1;
nodes = (
(989,-24,o),
(1225,200,o),
(1225,512,cs),
(1225,795,o),
(975,1017,o),
(710,1017,cs),
(600,1017,o),
(507,985,o),
(446,925,c),
(444,925,l),
(463,1166,l),
(1133,1166,ls),
(1133,1166,o),
(1133,1166,o),
(1133,1166,cs),
(1133,1490,ls),
(1133,1490,o),
(1133,1490,o),
(1133,1490,cs),
(99,1490,ls),
(99,1490,o),
(99,1490,o),
(99,1490,cs),
(57,600,ls),
(57,600,o),
(57,600,o),
(57,600,cs),
(429,600,ls),
(429,600,o),
(429,600,o),
(429,600,cs),
(452,674,o),
(527,724,o),
(630,724,cs),
(750,724,o),
(835,631,o),
(835,500,cs),
(835,370,o),
(752,282,o),
(630,282,cs),
(510,282,o),
(420,366,o),
(420,480,cs),
(420,480,o),
(420,480,o),
(420,480,cs),
(35,480,ls),
(35,480,o),
(35,480,o),
(35,480,cs),
(55,166,o),
(283,-24,o),
(627,-24,cs)
);
}
);
width = 1265;
},
{
background = {
shapes = (
{
closed = 1;
nodes = (
(776,-20,o),
(978,186,o),
(978,462,cs),
(978,740,o),
(781,940,o),
(507,940,cs),
(333,940,o),
(206,859,o),
(148,784,c),
(147,784,l),
(205,1444,l),
(953,1444,l),
(953,1490,l),
(163,1490,l),
(93,688,l),
(135,688,l),
(187,815,o),
(343,894,o),
(508,894,cs),
(756,894,o),
(932,715,o),
(932,462,cs),
(932,215,o),
(753,26,o),
(493,26,cs),
(261,26,o),
(110,170,o),
(110,372,c),
(64,372,l),
(64,145,o),
(237,-20,o),
(493,-20,cs)
);
}
);
};
layerId = "45635B2B-919A-4B12-975B-2FA0A7CA8B35";
shapes = (
{
closed = 1;
nodes = (
(776,-20,o),
(978,186,o),
(978,462,cs),
(978,740,o),
(781,940,o),
(507,940,cs),
(333,940,o),
(206,859,o),
(148,784,c),
(147,784,l),
(205,1444,l),
(953,1444,ls),
(953,1444,o),
(953,1444,o),
(953,1444,cs),
(953,1490,ls),
(953,1490,o),
(953,1490,o),
(953,1490,cs),
(163,1490,ls),
(163,1490,o),
(163,1490,o),
(163,1490,cs),
(93,688,ls),
(93,688,o),
(93,688,o),
(93,688,cs),
(135,688,ls),
(135,688,o),
(135,688,o),
(135,688,cs),
(187,815,o),
(347,894,o),
(508,894,cs),
(756,894,o),
(932,715,o),
(932,462,cs),
(932,215,o),
(753,26,o),
(493,26,cs),
(267,26,o),
(110,170,o),
(110,372,cs),
(110,372,o),
(110,372,o),
(110,372,cs),
(64,372,ls),
(64,372,o),
(64,372,o),
(64,372,cs),
(64,145,o),
(243,-20,o),
(493,-20,cs)
);
}
);
width = 1042;
},
{
background = {
shapes = (
{
closed = 1;
nodes = (
(891,-20,o),
(1091,190,o),
(1091,490,cs),
(1091,785,o),
(902,996,o),
(628,996,cs),
(488,996,o),
(372,948,o),
(278,847,c),
(276,847,l),
(312,1330,l),
(1009,1330,l),
(1009,1490,l),
(149,1490,l),
(99,640,l),
(272,640,l),
(318,767,o),
(442,834,o),
(606,834,cs),
(791,834,o),
(917,689,o),
(917,488,cs),
(917,286,o),
(786,140,o),
(593,140,cs),
(411,140,o),
(276,263,o),
(260,432,c),
(80,432,l),
(91,174,o),
(306,-20,o),
(593,-20,cs)
);
}
);
};
layerId = "B487E3D2-4ABF-4A2A-A195-DC6AACAFF568";
shapes = (
{
closed = 1;
nodes = (
(891,-20,o),
(1091,190,o),
(1091,490,cs),
(1091,785,o),
(902,996,o),
(628,996,cs),
(488,996,o),
(372,948,o),
(278,847,c),
(276,847,l),
(312,1330,l),
(1009,1330,ls),
(1009,1330,o),
(1009,1330,o),
(1009,1330,cs),
(1009,1490,ls),
(1009,1490,o),
(1009,1490,o),
(1009,1490,cs),
(149,1490,ls),
(149,1490,o),
(149,1490,o),
(149,1490,cs),
(99,640,ls),
(99,640,o),
(99,640,o),
(99,640,cs),
(272,640,ls),
(272,640,o),
(272,640,o),
(272,640,cs),
(318,767,o),
(442,834,o),
(606,834,cs),
(791,834,o),
(917,689,o),
(917,488,cs),
(917,286,o),
(786,140,o),
(593,140,cs),
(411,140,o),
(276,263,o),
(260,432,cs),
(260,432,o),
(260,432,o),
(260,432,cs),
(80,432,ls),
(80,432,o),
(80,432,o),
(80,432,cs),
(91,174,o),
(306,-20,o),
(593,-20,cs)
);
}
);
width = 1181;
},
{
background = {
shapes = (
{
closed = 1;
nodes = (
(891,-20,o),
(1091,190,o),
(1091,490,cs),
(1091,785,o),
(902,996,o),
(628,996,cs),
(488,996,o),
(372,948,o),
(278,847,c),
(277,847,ls),
(277,847,o),
(278,882,o),
(283,945,cs),
(305,1239,ls),
(309,1298,o),
(343,1330,o),
(403,1330,cs),
(938,1330,ls),
(982,1330,o),
(1018,1366,o),
(1018,1410,cs),
(1018,1454,o),
(982,1490,o),
(938,1490,cs),
(241,1490,ls),
(181,1490,o),
(148,1459,o),
(144,1398,cs),
(105,738,ls),
(102,682,o),
(145,631,o),
(206,631,cs),
(244,631,o),
(278,651,o),
(295,682,cs),
(352,784,o),
(464,834,o),
(606,834,cs),
(791,834,o),
(917,689,o),
(917,488,cs),
(917,286,o),
(786,140,o),
(593,140,cs),
(434,140,o),
(311,234,o),
(272,375,cs),
(262,413,o),
(226,441,o),
(185,441,cs),
(122,441,o),
(83,379,o),
(98,327,cs),
(157,120,o),
(349,-20,o),
(593,-20,cs)
);
}
);
};
layerId = m004;
shapes = (
{
closed = 1;
nodes = (
(891,-20,o),
(1091,190,o),
(1091,490,cs),
(1091,785,o),
(902,996,o),
(628,996,cs),
(488,996,o),
(372,948,o),
(278,847,c),
(277,847,l),
(312,1330,l),
(938,1330,ls),
(982,1330,o),
(1018,1366,o),
(1018,1410,cs),
(1018,1410,ls),
(1018,1454,o),
(982,1490,o),
(938,1490,cs),
(241,1490,ls),
(181,1490,o),
(148,1459,o),
(144,1398,cs),
(105,738,ls),
(102,682,o),
(145,631,o),
(206,631,cs),
(206,631,ls),
(244,631,o),
(278,651,o),
(295,682,cs),
(352,784,o),
(464,834,o),
(606,834,cs),
(791,834,o),
(917,689,o),
(917,488,cs),
(917,286,o),
(786,140,o),
(593,140,cs),
(434,140,o),
(311,234,o),
(272,375,cs),
(262,413,o),
(226,441,o),
(185,441,cs),
(185,441,ls),
(122,441,o),
(83,379,o),
(98,327,cs),
(157,120,o),
(349,-20,o),
(593,-20,cs)
);
}
);
width = 1181;
},
{
background = {
shapes = (
{
closed = 1;
nodes = (
(776,-20,o),
(978,186,o),
(978,462,cs),
(978,740,o),
(781,940,o),
(507,940,cs),
(333,940,o),
(206,859,o),
(148,784,c),
(148,784,ls),
(148,784,o),
(149,809,o),
(151,831,cs),
(203,1421,ls),
(204,1437,o),
(213,1444,o),
(228,1444,cs),
(932,1444,ls),
(944,1444,o),
(955,1454,o),
(955,1467,cs),
(955,1480,o),
(944,1490,o),
(932,1490,cs),
(186,1490,ls),
(171,1490,o),
(162,1483,o),
(161,1467,cs),
(95,712,ls),
(94,699,o),
(104,686,o),
(119,686,cs),
(129,686,o),
(137,691,o),
(141,700,cs),
(198,821,o),
(349,894,o),
(508,894,cs),
(756,894,o),
(932,715,o),
(932,462,cs),
(932,215,o),
(753,26,o),
(493,26,cs),
(269,26,o),
(121,160,o),
(111,353,cs),
(110,366,o),
(100,374,o),
(88,374,cs),
(75,374,o),
(64,363,o),
(65,350,cs),
(76,133,o),
(246,-20,o),
(493,-20,cs)
);
}
);
};
layerId = m005;
shapes = (
{
closed = 1;
nodes = (
(776,-20,o),
(978,186,o),
(978,462,cs),
(978,740,o),
(781,940,o),
(507,940,cs),
(333,940,o),
(206,859,o),
(148,784,c),
(147,784,l),
(205,1444,l),
(932,1444,ls),
(944,1444,o),
(955,1454,o),
(955,1467,cs),
(955,1467,ls),
(955,1480,o),
(944,1490,o),
(932,1490,cs),
(186,1490,ls),
(171,1490,o),
(162,1483,o),
(161,1467,cs),
(95,712,ls),
(94,699,o),
(104,686,o),
(119,686,cs),
(119,686,ls),
(129,686,o),
(137,691,o),
(141,700,cs),
(198,821,o),
(347,894,o),
(508,894,cs),
(756,894,o),
(932,715,o),
(932,462,cs),
(932,215,o),
(753,26,o),
(493,26,cs),
(267,26,o),
(121,160,o),
(111,353,cs),
(110,366,o),
(100,374,o),
(88,374,cs),
(88,374,ls),
(75,374,o),
(64,363,o),
(65,350,cs),
(76,133,o),
(243,-20,o),
(493,-20,cs)
);
}
);
width = 1042;
},
{
background = {
shapes = (
{
closed = 1;
nodes = (
(989,-24,o),
(1225,200,o),
(1225,512,cs),
(1225,795,o),
(975,1017,o),
(710,1017,cs),
(592,1017,o),
(490,992,o),
(429,945,c),
(427,945,l),
(438,1166,l),
(667,1166,l),
(991,1166,ls),
(1080,1166,o),
(1153,1239,o),
(1153,1328,cs),
(1153,1417,o),
(1080,1490,o),
(991,1490,cs),
(307,1490,ls),
(171,1490,o),
(96,1418,o),
(89,1283,cs),
(67,833,ls),
(61,710,o),
(159,600,o),
(289,600,cs),
(354,600,o),
(401,632,o),
(456,676,cs),
(498,709,o),
(556,724,o),
(630,724,cs),
(750,724,o),
(835,631,o),
(835,500,cs),
(835,370,o),
(752,282,o),
(630,282,cs),
(549,282,o),
(497,312,o),
(444,378,cs),
(398,436,o),
(339,471,o),
(265,471,cs),
(109,471,o),
(58,311,o),
(125,205,cs),
(217,54,o),
(398,-24,o),
(627,-24,cs)
);
}
);
};
layerId = m006;
shapes = (
{
closed = 1;
nodes = (
(989,-24,o),
(1225,200,o),
(1225,512,cs),
(1225,795,o),
(985,1017,o),
(710,1017,cs),
(600,1017,o),
(507,985,o),
(446,925,c),
(444,925,l),
(463,1166,l),
(1011,1166,ls),
(1100,1166,o),
(1173,1239,o),
(1173,1328,cs),
(1173,1328,ls),
(1173,1417,o),
(1100,1490,o),
(1011,1490,cs),
(307,1490,ls),
(171,1490,o),
(96,1418,o),
(89,1283,cs),
(67,833,ls),
(61,710,o),
(159,600,o),
(289,600,cs),
(289,600,ls),
(354,600,o),
(401,632,o),
(456,676,cs),
(498,709,o),
(556,724,o),
(630,724,cs),
(750,724,o),
(835,631,o),
(835,500,cs),
(835,370,o),
(752,282,o),
(630,282,cs),
(545,282,o),
(490,311,o),
(434,378,cs),
(386,436,o),
(329,471,o),
(255,471,cs),
(255,471,ls),
(99,471,o),
(49,311,o),
(115,205,cs),
(210,53,o),
(393,-24,o),
(627,-24,cs)
);
}
);
width = 1265;
},
{
background = {
shapes = (
{
closed = 1;
nodes = (
(776,-20,o),
(978,186,o),
(978,462,cs),
(978,740,o),
(781,940,o),
(507,940,cs),
(333,940,o),
(206,859,o),
(148,784,c),
(147,784,l),
(205,1444,l),
(953,1444,l),
(953,1490,l),
(163,1490,l),
(93,688,l),
(135,688,l),
(187,815,o),
(343,894,o),
(508,894,cs),
(756,894,o),
(932,715,o),
(932,462,cs),
(932,215,o),
(753,26,o),
(493,26,cs),
(261,26,o),
(110,170,o),
(110,372,c),
(64,372,l),
(64,145,o),
(237,-20,o),
(493,-20,cs)
);
}
);
};
layerId = m007;
shapes = (
{
closed = 1;
nodes = (
(776,-20,o),
(978,186,o),
(978,462,cs),
(978,740,o),
(781,940,o),
(507,940,cs),
(333,940,o),
(206,859,o),
(148,784,c),
(147,784,l),
(205,1444,l),
(938,1444,ls),
(946,1444,o),
(953,1451,o),
(953,1459,cs),
(953,1475,ls),
(953,1483,o),
(946,1490,o),
(938,1490,cs),
(177,1490,ls),
(169,1490,o),
(163,1484,o),
(162,1476,cs),
(94,705,ls),
(93,696,o),
(101,688,o),
(110,688,cs),
(126,688,ls),
(131,688,o),
(136,691,o),
(139,696,cs),
(194,818,o),
(347,894,o),
(508,894,cs),
(756,894,o),
(932,715,o),
(932,462,cs),
(932,215,o),
(753,26,o),
(493,26,cs),
(267,26,o),
(118,163,o),
(110,357,cs),
(110,366,o),
(103,372,o),
(95,372,cs),
(80,372,ls),
(71,372,o),
(64,365,o),
(64,356,cs),
(72,137,o),
(243,-20,o),
(493,-20,cs)
);
}
);
width = 1042;
},
{
layerId = m008;
shapes = (
{
closed = 1;
nodes = (
(891,-20,o),
(1091,190,o),
(1091,490,cs),
(1091,785,o),
(902,996,o),
(628,996,cs),
(488,996,o),
(372,948,o),
(278,847,c),
(276,847,l),
(312,1330,l),
(976,1330,ls),
(995,1330,o),
(1009,1344,o),
(1009,1363,cs),
(1009,1457,ls),
(1009,1476,o),
(995,1490,o),
(976,1490,cs),
(179,1490,ls),
(162,1490,o),
(148,1477,o),
(147,1460,cs),
(101,675,ls),
(100,654,o),
(114,640,o),
(134,640,cs),
(252,640,ls),
(264,640,o),
(274,647,o),
(279,658,cs),
(330,773,o),
(450,834,o),
(606,834,cs),
(791,834,o),
(917,689,o),
(917,488,cs),
(917,286,o),
(786,140,o),
(593,140,cs),
(421,140,o),
(291,250,o),
(264,405,cs),
(261,421,o),
(249,432,o),
(233,432,cs),
(116,432,ls),
(96,432,o),
(80,416,o),
(83,396,cs),
(111,156,o),
(320,-20,o),
(593,-20,cs)
);
}
);
width = 1181;
},
{
layerId = m009;
shapes = (
{
closed = 1;
nodes = (
(989,-24,o),
(1225,200,o),
(1225,512,cs),
(1225,795,o),
(975,1017,o),
(710,1017,cs),
(600,1017,o),
(507,985,o),
(446,925,c),
(445,925,l),
(462,1166,l),
(1068,1166,ls),
(1105,1166,o),
(1133,1194,o),
(1133,1231,cs),
(1133,1425,ls),
(1133,1462,o),
(1105,1490,o),
(1068,1490,cs),
(160,1490,ls),
(124,1490,o),
(98,1465,o),
(96,1429,cs),
(60,669,ls),
(58,630,o),
(87,600,o),
(126,600,cs),
(393,600,ls),
(415,600,o),
(432,613,o),
(443,633,cs),
(476,688,o),
(543,724,o),
(630,724,cs),
(750,724,o),
(835,631,o),
(835,500,cs),
(835,370,o),
(752,282,o),
(630,282,cs),
(529,282,o),
(450,341,o),
(427,427,cs),
(419,458,o),
(399,480,o),
(367,480,cs),
(111,480,ls),
(68,480,o),
(36,447,o),
(44,404,cs),
(94,136,o),
(312,-24,o),
(627,-24,cs)
);
}
);
width = 1265;
}
);
metricRight = "=zero";
unicode = 53;
}
{
color = 4;
glyphname = six;
kernLeft = six;
layers = (
{
background = {
shapes = (
{
closed = 1;
nodes = (
(1034,-24,o),
(1282,186,o),
(1282,498,cs),
(1282,789,o),
(1062,1000,o),
(758,1000,cs),
(609,1000,o),
(498,950,o),
(420,838,c),
(418,838,l),
(418,1069,o),
(498,1210,o),
(673,1210,cs),
(786,1210,o),
(863,1150,o),
(880,1056,c),
(1262,1056,l),
(1237,1311,o),
(1017,1514,o),
(688,1514,cs),
(282,1514,o),
(40,1210,o),
(40,728,cs),
(40,254,o),
(279,-24,o),
(686,-24,cs)
);
},
{
closed = 1;
nodes = (
(563,288,o),
(476,376,o),
(476,498,cs),
(476,620,o),
(563,708,o),
(682,708,cs),
(803,708,o),
(890,620,o),
(890,498,cs),
(890,376,o),
(803,288,o),
(682,288,cs)
);
}
);
};
layerId = m01;
shapes = (
{
closed = 1;
nodes = (
(1034,-24,o),
(1282,186,o),
(1282,498,cs),
(1282,789,o),
(1062,1000,o),
(758,1000,cs),
(609,1000,o),
(498,950,o),
(420,838,c),
(418,838,l),
(418,1069,o),
(498,1210,o),
(673,1210,cs),
(786,1210,o),
(863,1150,o),
(880,1056,cs),
(880,1056,o),
(880,1056,o),
(880,1056,cs),
(1262,1056,ls),
(1262,1056,o),
(1262,1056,o),
(1262,1056,cs),
(1237,1311,o),
(1017,1514,o),
(688,1514,cs),
(282,1514,o),
(40,1210,o),
(40,728,cs),
(40,254,o),
(279,-24,o),
(686,-24,cs)
);
},
{
closed = 1;
nodes = (
(563,288,o),
(476,376,o),
(476,498,cs),
(476,620,o),
(563,708,o),
(682,708,cs),
(803,708,o),
(890,620,o),
(890,498,cs),
(890,376,o),
(803,288,o),
(682,288,cs)
);
}
);
width = 1322;
},
{
background = {
shapes = (
{
closed = 1;
nodes = (
(820,-16,o),
(1004,202,o),
(1004,450,cs),
(1004,716,o),
(792,914,o),
(537,914,cs),
(328,914,o),
(149,782,o),
(110,609,c),
(109,609,l),
(101,1187,o),
(281,1460,o),
(562,1460,cs),
(756,1460,o),
(899,1336,o),
(926,1152,c),
(972,1152,l),
(945,1364,o),
(779,1506,o),
(562,1506,cs),
(186,1506,o),
(64,1081,o),
(64,678,cs),
(64,212,o),
(271,-16,o),
(547,-16,cs)
);
},
{
closed = 1;
nodes = (
(343,30,o),
(194,163,o),
(137,426,cs),
(87,659,o),
(283,868,o),
(537,868,cs),
(774,868,o),
(958,684,o),
(958,450,cs),
(958,220,o),
(785,30,o),
(547,30,cs)
);
}
);
};
layerId = "45635B2B-919A-4B12-975B-2FA0A7CA8B35";
shapes = (
{
closed = 1;
nodes = (
(820,-16,o),
(1004,202,o),
(1004,450,cs),
(1004,716,o),
(792,914,o),
(537,914,cs),
(328,914,o),
(149,782,o),
(110,609,c),
(109,609,l),
(101,1187,o),
(281,1460,o),
(562,1460,cs),
(756,1460,o),
(899,1336,o),
(926,1152,cs),
(926,1152,o),
(926,1152,o),
(926,1152,cs),
(972,1152,ls),
(972,1152,o),
(972,1152,o),
(972,1152,cs),
(945,1364,o),
(779,1506,o),
(562,1506,cs),
(186,1506,o),
(64,1081,o),
(64,678,cs),
(64,212,o),
(271,-16,o),
(547,-16,cs)
);
},
{
closed = 1;
nodes = (
(343,30,o),
(194,163,o),
(137,426,cs),
(87,659,o),
(283,868,o),
(537,868,cs),
(774,868,o),
(958,684,o),
(958,450,cs),
(958,220,o),
(785,30,o),
(547,30,cs)
);
}
);
width = 1068;
},
{
background = {
shapes = (
{
closed = 1;
nodes = (
(901,-24,o),
(1106,182,o),
(1106,476,cs),
(1106,759,o),
(907,970,o),
(638,970,cs),
(478,970,o),
(332,895,o),
(264,780,c),
(262,780,l),
(262,1113,o),
(385,1354,o),
(643,1354,cs),
(794,1354,o),
(890,1262,o),
(918,1118,c),
(1094,1118,l),
(1066,1355,o),
(891,1514,o),
(632,1514,cs),
(258,1514,o),
(90,1183,o),
(90,682,cs),
(90,232,o),
(278,-24,o),
(608,-24,cs)
);
},
{
closed = 1;
nodes = (
(430,136,o),
(286,287,o),
(286,474,cs),
(286,660,o),
(433,810,o),
(614,810,cs),
(793,810,o),
(932,664,o),
(932,476,cs),
(932,287,o),
(788,136,o),
(608,136,cs)
);
}
);
};
layerId = "B487E3D2-4ABF-4A2A-A195-DC6AACAFF568";
shapes = (
{
closed = 1;
nodes = (
(901,-24,o),
(1106,182,o),
(1106,476,cs),
(1106,759,o),
(907,970,o),
(638,970,cs),
(478,970,o),
(332,895,o),
(264,780,c),
(262,780,l),
(262,1113,o),
(385,1354,o),
(643,1354,cs),
(794,1354,o),
(890,1262,o),
(918,1118,cs),
(918,1118,o),
(918,1118,o),
(918,1118,cs),
(1094,1118,ls),
(1094,1118,o),
(1094,1118,o),
(1094,1118,cs),
(1066,1355,o),
(891,1514,o),
(632,1514,cs),
(258,1514,o),
(90,1183,o),
(90,682,cs),
(90,232,o),
(278,-24,o),
(608,-24,cs)
);
},
{
closed = 1;
nodes = (
(430,136,o),
(286,287,o),
(286,474,cs),
(286,660,o),
(433,810,o),
(614,810,cs),
(793,810,o),
(932,664,o),
(932,476,cs),
(932,287,o),
(788,136,o),
(608,136,cs)
);
}
);
width = 1196;
},
{
background = {
shapes = (
{
closed = 1;
nodes = (
(901,-24,o),
(1106,182,o),
(1106,476,cs),
(1106,759,o),
(907,970,o),
(638,970,cs),
(478,970,o),
(332,895,o),
(264,780,c),
(263,780,ls),
(263,780,o),
(261,815,o),
(266,878,cs),
(288,1159,o),
(411,1354,o),
(643,1354,cs),
(774,1354,o),
(863,1285,o),
(903,1168,cs),
(915,1133,o),
(947,1109,o),
(985,1109,cs),
(1055,1109,o),
(1083,1181,o),
(1068,1225,cs),
(1005,1404,o),
(848,1514,o),
(632,1514,cs),
(258,1514,o),
(90,1183,o),
(90,682,cs),
(90,232,o),
(278,-24,o),
(608,-24,cs)
);
},
{
closed = 1;
nodes = (
(430,136,o),
(286,287,o),
(286,474,cs),
(286,660,o),
(433,810,o),
(614,810,cs),
(793,810,o),
(932,664,o),
(932,476,cs),
(932,287,o),
(788,136,o),
(608,136,cs)
);
}
);
};
layerId = m004;
shapes = (
{
closed = 1;
nodes = (
(901,-24,o),
(1106,182,o),
(1106,476,cs),
(1106,759,o),
(907,970,o),
(638,970,cs),
(478,970,o),
(332,895,o),
(264,780,c),
(262,780,l),
(262,1113,o),
(385,1354,o),
(643,1354,cs),
(774,1354,o),
(863,1285,o),
(903,1168,cs),
(915,1133,o),
(948,1109,o),
(985,1109,cs),
(985,1109,ls),
(1055,1109,o),
(1083,1181,o),
(1068,1225,cs),
(1005,1404,o),
(848,1514,o),
(632,1514,cs),
(258,1514,o),
(90,1183,o),
(90,682,cs),
(90,232,o),
(278,-24,o),
(608,-24,cs)
);
},
{
closed = 1;
nodes = (
(430,136,o),
(286,287,o),
(286,474,cs),
(286,660,o),
(433,810,o),
(614,810,cs),
(793,810,o),
(932,664,o),
(932,476,cs),
(932,287,o),
(788,136,o),
(608,136,cs)
);
}
);
width = 1196;
},
{
background = {
shapes = (
{
closed = 1;
nodes = (
(820,-16,o),
(1004,202,o),
(1004,450,cs),
(1004,716,o),
(792,914,o),
(537,914,cs),
(328,914,o),
(149,782,o),
(110,609,c),
(110,609,ls),
(111,609,o),
(1646,3033,o),
(357,1399,cs),
(416,1440,o),
(485,1460,o),
(562,1460,cs),
(749,1460,o),
(889,1344,o),
(923,1168,cs),
(925,1158,o),
(934,1150,o),
(945,1150,cs),
(960,1150,o),
(970,1164,o),
(968,1177,cs),
(931,1376,o),
(770,1506,o),
(562,1506,cs),
(186,1506,o),
(64,1081,o),
(64,678,cs),
(64,212,o),
(271,-16,o),
(547,-16,cs)
);
},
{
closed = 1;
nodes = (
(343,30,o),
(194,163,o),
(137,426,cs),
(87,659,o),
(283,868,o),
(537,868,cs),
(774,868,o),
(958,684,o),
(958,450,cs),
(958,220,o),
(785,30,o),
(547,30,cs)
);
}
);
};
layerId = m005;
shapes = (
{
closed = 1;
nodes = (
(820,-16,o),
(1004,202,o),
(1004,450,cs),
(1004,716,o),
(792,914,o),
(537,914,cs),
(328,914,o),
(149,782,o),
(110,609,c),
(109,609,l),
(101,1187,o),
(281,1460,o),
(562,1460,cs),
(749,1460,o),
(889,1344,o),
(923,1168,cs),
(925,1158,o),
(934,1150,o),
(945,1150,cs),
(945,1150,ls),
(960,1150,o),
(970,1164,o),
(968,1177,cs),
(931,1376,o),
(770,1506,o),
(562,1506,cs),
(186,1506,o),
(64,1081,o),
(64,678,cs),
(64,212,o),
(271,-16,o),
(547,-16,cs)
);
},
{
closed = 1;
nodes = (
(343,30,o),
(194,163,o),
(137,426,cs),
(87,659,o),
(283,868,o),
(537,868,cs),
(774,868,o),
(958,684,o),
(958,450,cs),
(958,220,o),
(785,30,o),
(547,30,cs)
);
}
);
width = 1068;
},
{
background = {
shapes = (
{
closed = 1;
nodes = (
(1034,-24,o),
(1282,186,o),
(1282,498,cs),
(1282,789,o),
(1062,1000,o),
(758,1000,cs),
(609,1000,o),
(498,950,o),
(420,838,c),
(419,838,ls),
(419,838,o),
(398,928,o),
(457,1067,cs),
(496,1159,o),
(567,1210,o),
(673,1210,cs),
(763,1210,o),
(821,1175,o),
(872,1119,cs),
(910,1078,o),
(979,1032,o),
(1054,1032,cs),
(1191,1032,o),
(1274,1180,o),
(1161,1327,cs),
(1068,1449,o),
(892,1514,o),
(688,1514,cs),
(282,1514,o),
(40,1210,o),
(40,728,cs),
(40,254,o),
(279,-24,o),
(686,-24,cs)
);
},
{
closed = 1;
nodes = (
(563,288,o),
(476,376,o),
(476,498,cs),
(476,620,o),
(563,708,o),
(682,708,cs),
(803,708,o),
(890,620,o),
(890,498,cs),
(890,376,o),
(803,288,o),
(682,288,cs)
);
},
{
closed = 1;
nodes = (
(1132,1046,o),
(1199,1113,o),
(1199,1196,cs),
(1199,1279,o),
(1132,1346,o),
(1049,1346,cs),
(966,1346,o),
(899,1279,o),
(899,1196,cs),
(899,1113,o),
(966,1046,o),
(1049,1046,cs)
);
}
);
};
layerId = m006;
shapes = (
{
closed = 1;
nodes = (
(1034,-24,o),
(1282,186,o),
(1282,498,cs),
(1282,789,o),
(1062,1000,o),
(758,1000,cs),
(609,1000,o),
(498,950,o),
(420,838,c),
(418,838,l),
(418,1069,o),
(498,1210,o),
(673,1210,cs),
(763,1210,o),
(820,1175,o),
(872,1119,cs),
(910,1078,o),
(979,1032,o),
(1054,1032,cs),
(1054,1032,ls),
(1191,1032,o),
(1273,1180,o),
(1161,1327,cs),
(1068,1449,o),
(892,1514,o),
(688,1514,cs),
(282,1514,o),
(40,1210,o),
(40,728,cs),
(40,254,o),
(279,-24,o),
(686,-24,cs)
);
},
{
closed = 1;
nodes = (
(563,288,o),
(476,376,o),
(476,498,cs),
(476,620,o),
(563,708,o),
(682,708,cs),
(803,708,o),
(890,620,o),
(890,498,cs),
(890,376,o),
(803,288,o),
(682,288,cs)
);
}
);
width = 1322;
},
{
layerId = m007;
shapes = (
{
closed = 1;
nodes = (
(820,-16,o),
(1004,202,o),
(1004,450,cs),
(1004,716,o),
(792,914,o),
(537,914,cs),
(328,914,o),
(149,782,o),
(110,609,c),
(109,609,l),
(101,1187,o),
(281,1460,o),
(562,1460,cs),
(752,1460,o),
(893,1341,o),
(924,1164,cs),
(925,1157,o),
(931,1152,o),
(938,1152,cs),
(953,1152,ls),
(963,1152,o),
(971,1160,o),
(969,1170,cs),
(935,1372,o),
(773,1506,o),
(562,1506,cs),
(186,1506,o),
(64,1081,o),
(64,678,cs),
(64,212,o),
(271,-16,o),
(547,-16,cs)
);
},
{
closed = 1;
nodes = (
(343,30,o),
(194,163,o),
(137,426,cs),
(87,659,o),
(283,868,o),
(537,868,cs),
(774,868,o),
(958,684,o),
(958,450,cs),
(958,220,o),
(785,30,o),
(547,30,cs)
);
}
);
width = 1068;
},
{
layerId = m008;
shapes = (
{
closed = 1;
nodes = (
(901,-24,o),
(1106,182,o),
(1106,476,cs),
(1106,759,o),
(907,970,o),
(638,970,cs),
(478,970,o),
(332,895,o),
(264,780,c),
(262,780,l),
(262,1113,o),
(385,1354,o),
(643,1354,cs),
(785,1354,o),
(879,1272,o),
(913,1142,cs),
(916,1127,o),
(928,1118,o),
(942,1118,cs),
(1054,1118,ls),
(1076,1118,o),
(1092,1136,o),
(1088,1158,cs),
(1046,1373,o),
(876,1514,o),
(632,1514,cs),
(258,1514,o),
(90,1183,o),
(90,682,cs),
(90,232,o),
(278,-24,o),
(608,-24,cs)
);
},
{
closed = 1;
nodes = (
(430,136,o),
(286,287,o),
(286,474,cs),
(286,660,o),
(433,810,o),
(614,810,cs),
(793,810,o),
(932,664,o),
(932,476,cs),
(932,287,o),
(788,136,o),
(608,136,cs)
);
}
);
width = 1196;
},
{
layerId = m009;
shapes = (
{
closed = 1;
nodes = (
(1034,-24,o),
(1282,186,o),
(1282,498,cs),
(1282,789,o),
(1062,1000,o),
(758,1000,cs),
(609,1000,o),
(498,950,o),
(420,838,c),
(418,838,l),
(418,1069,o),
(498,1210,o),
(673,1210,cs),
(767,1210,o),
(836,1169,o),
(866,1101,cs),
(878,1074,o),
(899,1056,o),
(928,1056,cs),
(1169,1056,ls),
(1220,1056,o),
(1259,1098,o),
(1244,1147,cs),
(1181,1358,o),
(977,1514,o),
(688,1514,cs),
(282,1514,o),
(40,1210,o),
(40,728,cs),
(40,254,o),
(279,-24,o),
(686,-24,cs)
);
},
{
closed = 1;
nodes = (
(563,288,o),
(476,376,o),
(476,498,cs),
(476,620,o),
(563,708,o),
(682,708,cs),
(803,708,o),
(890,620,o),
(890,498,cs),
(890,376,o),
(803,288,o),
(682,288,cs)
);
}
);
width = 1322;
}
);
metricLeft = "=zero";
metricRight = "=zero";
unicode = 54;
}
{
color = 4;
glyphname = seven;
layers = (
{
background = {
shapes = (
{
closed = 1;
nodes = (
(558,0,l),
(1146,1166,l),
(1146,1490,l),
(40,1490,l),
(40,1152,l),
(726,1152,l),
(726,1150,l),
(142,0,l)
);
}
);
};
layerId = m01;
shapes = (
{
closed = 1;
nodes = (
(558,0,ls),
(558,0,o),
(558,0,o),
(558,0,cs),
(1146,1166,ls),
(1146,1166,o),
(1146,1166,o),
(1146,1166,cs),
(1146,1490,ls),
(1146,1490,o),
(1146,1490,o),
(1146,1490,cs),
(40,1490,ls),
(40,1490,o),
(40,1490,o),
(40,1490,cs),
(40,1152,ls),
(40,1152,o),
(40,1152,o),
(40,1152,cs),
(726,1152,l),
(726,1150,l),
(142,0,ls),
(142,0,o),
(142,0,o),
(142,0,cs)
);
}
);
width = 1186;
},
{
background = {
shapes = (
{
closed = 1;
nodes = (
(272,0,l),
(996,1442,l),
(996,1490,l),
(60,1490,l),
(60,1444,l),
(945,1444,l),
(945,1443,l),
(221,0,l)
);
}
);
};
layerId = "45635B2B-919A-4B12-975B-2FA0A7CA8B35";
shapes = (
{
closed = 1;
nodes = (
(264,0,ls),
(269,0,o),
(274,2,o),
(276,7,cs),
(994,1438,ls),
(996,1442,o),
(996,1442,o),
(996,1445,cs),
(996,1475,ls),
(996,1483,o),
(989,1490,o),
(981,1490,cs),
(75,1490,ls),
(67,1490,o),
(60,1483,o),
(60,1475,cs),
(60,1459,ls),
(60,1451,o),
(67,1444,o),
(75,1444,cs),
(945,1444,l),
(945,1443,l),
(234,26,ls),
(228,13,o),
(235,0,o),
(247,0,cs)
);
}
);
width = 1056;
},
{
background = {
shapes = (
{
closed = 1;
nodes = (
(342,0,l),
(1006,1320,l),
(1006,1490,l),
(50,1490,l),
(50,1330,l),
(825,1330,l),
(825,1329,l),
(153,0,l)
);
}
);
};
layerId = "B487E3D2-4ABF-4A2A-A195-DC6AACAFF568";
shapes = (
{
closed = 1;
nodes = (
(342,0,ls),
(342,0,o),
(342,0,o),
(342,0,cs),
(1006,1320,ls),
(1006,1320,o),
(1006,1320,o),
(1006,1320,cs),
(1006,1490,ls),
(1006,1490,o),
(1006,1490,o),
(1006,1490,cs),
(50,1490,ls),
(50,1490,o),
(50,1490,o),
(50,1490,cs),
(50,1330,ls),
(50,1330,o),
(50,1330,o),
(50,1330,cs),
(825,1330,l),
(825,1330,l),
(153,0,ls),
(153,0,o),
(153,0,o),
(153,0,cs)
);
}
);
width = 1056;
},
{
background = {
shapes = (
{
closed = 1;
nodes = (
(361,37,cs),
(1002,1312,ls),
(1010,1329,o),
(1015,1347,o),
(1015,1367,cs),
(1015,1435,o),
(959,1490,o),
(892,1490,cs),
(121,1490,ls),
(77,1490,o),
(41,1454,o),
(41,1410,cs),
(41,1366,o),
(77,1330,o),
(121,1330,cs),
(825,1330,l),
(825,1330,ls),
(825,1330,o),
(801,1282,o),
(768,1217,cs),
(210,113,ls),
(183,59,o),
(220,-9,o),
(286,-9,cs),
(318,-9,o),
(347,10,o)
);
}
);
};
layerId = m004;
shapes = (
{
closed = 1;
nodes = (
(286,-9,ls),
(318,-9,o),
(347,10,o),
(361,37,cs),
(1002,1312,ls),
(1010,1329,o),
(1015,1347,o),
(1015,1367,cs),
(1015,1367,ls),
(1015,1435,o),
(959,1490,o),
(892,1490,cs),
(121,1490,ls),
(77,1490,o),
(41,1454,o),
(41,1410,cs),
(41,1410,ls),
(41,1366,o),
(77,1330,o),
(121,1330,cs),
(825,1330,l),
(825,1330,l),
(210,113,ls),
(183,59,o),
(220,-9,o),
(286,-9,cs)
);
}
);
width = 1056;
},
{
background = {
shapes = (
{
closed = 1;
nodes = (
(277,10,cs),
(995,1439,ls),
(997,1444,o),
(998,1449,o),
(998,1455,cs),
(998,1474,o),
(982,1490,o),
(963,1490,cs),
(81,1490,ls),
(69,1490,o),
(58,1480,o),
(58,1467,cs),
(58,1454,o),
(69,1444,o),
(81,1444,cs),
(945,1444,l),
(945,1444,ls),
(945,1444,o),
(939,1431,o),
(931,1414,cs),
(240,38,ls),
(228,13,o),
(241,-2,o),
(257,-2,cs),
(266,-2,o),
(273,2,o)
);
},
{
closed = 1;
nodes = (
(266,3,o),
(273,10,o),
(273,19,cs),
(273,28,o),
(266,35,o),
(257,35,cs),
(248,35,o),
(241,28,o),
(241,19,cs),
(241,10,o),
(248,3,o),
(257,3,cs)
);
}
);
};
layerId = m005;
shapes = (
{
closed = 1;
nodes = (
(257,-2,ls),
(266,-2,o),
(273,2,o),
(277,10,cs),
(995,1439,ls),
(997,1444,o),
(998,1449,o),
(998,1455,cs),
(998,1455,ls),
(998,1474,o),
(982,1490,o),
(963,1490,cs),
(81,1490,ls),
(69,1490,o),
(58,1480,o),
(58,1467,cs),
(58,1467,ls),
(58,1454,o),
(69,1444,o),
(81,1444,cs),
(945,1444,l),
(945,1443,l),
(240,38,ls),
(228,13,o),
(241,-2,o),
(257,-2,cs)
);
}
);
width = 1056;
},
{
background = {
shapes = (
{
closed = 1;
nodes = (
(599,82,cs),
(1142,1157,ls),
(1158,1188,o),
(1166,1223,o),
(1166,1261,cs),
(1166,1387,o),
(1063,1490,o),
(937,1490,cs),
(189,1490,ls),
(96,1490,o),
(20,1414,o),
(20,1321,cs),
(20,1228,o),
(96,1152,o),
(189,1152,cs),
(726,1152,l),
(726,1151,ls),
(726,1151,o),
(709,1117,o),
(663,1026,cs),
(268,249,ls),
(206,129,o),
(292,-20,o),
(434,-20,cs),
(506,-20,o),
(569,22,o)
);
}
);
};
layerId = m006;
shapes = (
{
closed = 1;
nodes = (
(434,-20,ls),
(506,-20,o),
(569,22,o),
(599,82,cs),
(1142,1157,ls),
(1158,1188,o),
(1166,1223,o),
(1166,1261,cs),
(1166,1261,ls),
(1166,1387,o),
(1063,1490,o),
(937,1490,cs),
(189,1490,ls),
(96,1490,o),
(20,1414,o),
(20,1321,cs),
(20,1321,ls),
(20,1228,o),
(96,1152,o),
(189,1152,cs),
(726,1152,l),
(726,1150,l),
(268,249,ls),
(207,129,o),
(292,-20,o),
(434,-20,cs)
);
}
);
width = 1186;
},
{
layerId = m007;
shapes = (
{
closed = 1;
nodes = (
(264,0,ls),
(269,0,o),
(274,2,o),
(276,7,cs),
(994,1438,ls),
(996,1442,o),
(996,1442,o),
(996,1445,cs),
(996,1475,ls),
(996,1483,o),
(989,1490,o),
(981,1490,cs),
(75,1490,ls),
(67,1490,o),
(60,1483,o),
(60,1475,cs),
(60,1459,ls),
(60,1451,o),
(67,1444,o),
(75,1444,cs),
(945,1444,l),
(945,1443,l),
(234,26,ls),
(228,13,o),
(235,0,o),
(247,0,cs)
);
}
);
width = 1056;
},
{
layerId = m008;
shapes = (
{
closed = 1;
nodes = (
(324,0,ls),
(335,0,o),
(345,6,o),
(350,16,cs),
(1003,1315,ls),
(1005,1318,o),
(1006,1322,o),
(1006,1326,cs),
(1006,1457,ls),
(1006,1476,o),
(992,1490,o),
(973,1490,cs),
(83,1490,ls),
(64,1490,o),
(50,1476,o),
(50,1457,cs),
(50,1363,ls),
(50,1344,o),
(64,1330,o),
(83,1330,cs),
(825,1330,l),
(825,1330,l),
(182,57,ls),
(168,28,o),
(185,0,o),
(216,0,cs)
);
}
);
width = 1056;
},
{
layerId = m009;
shapes = (
{
closed = 1;
nodes = (
(518,0,ls),
(543,0,o),
(565,12,o),
(576,35,cs),
(1140,1154,ls),
(1144,1162,o),
(1146,1170,o),
(1146,1179,cs),
(1146,1417,ls),
(1146,1459,o),
(1115,1490,o),
(1073,1490,cs),
(113,1490,ls),
(71,1490,o),
(40,1459,o),
(40,1417,cs),
(40,1225,ls),
(40,1183,o),
(71,1152,o),
(113,1152,cs),
(726,1152,l),
(726,1150,l),
(207,127,ls),
(175,64,o),
(214,0,o),
(285,0,cs)
);
}
);
width = 1186;
}
);
metricRight = "=|";
unicode = 55;
}
{
color = 8;
glyphname = eight;
kernLeft = eight;
kernRight = eight;
layers = (
{
layerId = m01;
shapes = (
{
closed = 1;
nodes = (
(1029,-24,o),
(1274,146,o),
(1274,404,cs),
(1274,609,o),
(1124,740,o),
(880,772,c),
(880,771,l),
(1098,803,o),
(1228,919,o),
(1228,1106,cs),
(1228,1355,o),
(1005,1514,o),
(656,1514,cs),
(315,1514,o),
(86,1350,o),
(86,1106,cs),
(86,919,o),
(217,802,o),
(434,771,c),
(434,772,l),
(190,740,o),
(40,609,o),
(40,404,cs),
(40,146,o),
(284,-24,o),
(656,-24,cs)
);
},
{
closed = 1;
nodes = (
(542,254,o),
(460,330,o),
(460,436,cs),
(460,541,o),
(542,616,o),
(656,616,cs),
(771,616,o),
(854,541,o),
(854,436,cs),
(854,331,o),
(770,254,o),
(656,254,cs)
);
},
{
closed = 1;
nodes = (
(550,907,o),
(482,969,o),
(482,1066,cs),
(482,1163,o),
(550,1225,o),
(656,1225,cs),
(763,1225,o),
(832,1163,o),
(832,1066,cs),
(832,969,o),
(763,907,o),
(656,907,cs)
);
}
);
width = 1314;
},
{
layerId = "45635B2B-919A-4B12-975B-2FA0A7CA8B35";
shapes = (
{
closed = 1;
nodes = (
(790,-16,o),
(998,160,o),
(998,384,cs),
(998,578,o),
(845,737,o),
(645,770,c),
(645,769,l),
(843,818,o),
(949,969,o),
(949,1132,cs),
(949,1345,o),
(759,1506,o),
(531,1506,cs),
(301,1506,o),
(115,1343,o),
(115,1132,cs),
(115,968,o),
(221,819,o),
(417,769,c),
(417,770,l),
(216,737,o),
(64,578,o),
(64,384,cs),
(64,160,o),
(274,-16,o),
(531,-16,cs)
);
},
{
closed = 1;
nodes = (
(295,30,o),
(110,184,o),
(110,385,cs),
(110,587,o),
(295,745,o),
(531,745,cs),
(767,745,o),
(952,587,o),
(952,385,cs),
(952,184,o),
(767,30,o),
(531,30,cs)
);
},
{
closed = 1;
nodes = (
(324,791,o),
(161,941,o),
(161,1133,cs),
(161,1318,o),
(324,1460,o),
(531,1460,cs),
(739,1460,o),
(903,1318,o),
(903,1133,cs),
(903,941,o),
(739,791,o),
(531,791,cs)
);
}
);
width = 1062;
},
{
layerId = "B487E3D2-4ABF-4A2A-A195-DC6AACAFF568";
shapes = (
{
closed = 1;
nodes = (
(891,-24,o),
(1102,151,o),
(1102,396,cs),
(1102,593,o),
(962,756,o),
(782,779,c),
(782,778,l),
(934,806,o),
(1046,939,o),
(1046,1114,cs),
(1046,1344,o),
(854,1514,o),
(596,1514,cs),
(336,1514,o),
(144,1344,o),
(144,1114,cs),
(144,938,o),
(255,806,o),
(410,778,c),
(410,779,l),
(229,757,o),
(90,595,o),
(90,396,cs),
(90,151,o),
(300,-24,o),
(596,-24,cs)
);
},
{
closed = 1;
nodes = (
(396,136,o),
(266,242,o),
(266,404,cs),
(266,571,o),
(404,692,o),
(596,692,cs),
(787,692,o),
(924,571,o),
(924,404,cs),
(924,241,o),
(795,136,o),
(596,136,cs)
);
},
{
closed = 1;
nodes = (
(431,846,o),
(318,950,o),
(318,1102,cs),
(318,1254,o),
(430,1356,o),
(596,1356,cs),
(761,1356,o),
(872,1254,o),
(872,1102,cs),
(872,949,o),
(760,846,o),
(596,846,cs)
);
}
);
width = 1192;
},
{
layerId = m004;
shapes = (
{
closed = 1;
nodes = (
(891,-24,o),
(1102,151,o),
(1102,396,cs),
(1102,593,o),
(962,756,o),
(782,779,c),
(782,778,l),
(934,806,o),
(1046,939,o),
(1046,1114,cs),
(1046,1344,o),
(854,1514,o),
(596,1514,cs),
(336,1514,o),
(144,1344,o),
(144,1114,cs),
(144,938,o),
(255,806,o),
(410,778,c),
(410,779,l),
(229,757,o),
(90,595,o),
(90,396,cs),
(90,151,o),
(300,-24,o),
(596,-24,cs)
);
},
{
closed = 1;
nodes = (
(396,136,o),
(266,242,o),
(266,404,cs),
(266,571,o),
(404,692,o),
(596,692,cs),
(787,692,o),
(924,571,o),
(924,404,cs),
(924,241,o),
(795,136,o),
(596,136,cs)
);
},
{
closed = 1;
nodes = (
(431,846,o),
(318,950,o),
(318,1102,cs),
(318,1254,o),
(430,1356,o),
(596,1356,cs),
(761,1356,o),
(872,1254,o),
(872,1102,cs),
(872,949,o),
(760,846,o),
(596,846,cs)
);
}
);
width = 1192;
},
{
layerId = m005;
shapes = (
{
closed = 1;
nodes = (
(790,-16,o),
(998,160,o),
(998,384,cs),
(998,578,o),
(845,737,o),
(645,770,c),
(645,769,l),
(843,818,o),
(949,969,o),
(949,1132,cs),
(949,1345,o),
(759,1506,o),
(531,1506,cs),
(301,1506,o),
(115,1343,o),
(115,1132,cs),
(115,968,o),
(221,819,o),
(417,769,c),
(417,770,l),
(216,737,o),
(64,578,o),
(64,384,cs),
(64,160,o),
(274,-16,o),
(531,-16,cs)
);
},
{
closed = 1;
nodes = (
(295,30,o),
(110,184,o),
(110,385,cs),
(110,587,o),
(295,745,o),
(531,745,cs),
(767,745,o),
(952,587,o),
(952,385,cs),
(952,184,o),
(767,30,o),
(531,30,cs)
);
},
{
closed = 1;
nodes = (
(324,791,o),
(161,941,o),
(161,1133,cs),
(161,1318,o),
(324,1460,o),
(531,1460,cs),
(739,1460,o),
(903,1318,o),
(903,1133,cs),
(903,941,o),
(739,791,o),
(531,791,cs)
);
}
);
width = 1062;
},
{
layerId = m006;
shapes = (
{
closed = 1;
nodes = (
(1029,-24,o),
(1274,146,o),
(1274,404,cs),
(1274,609,o),
(1124,740,o),
(880,772,c),
(880,771,l),
(1098,803,o),
(1228,919,o),
(1228,1106,cs),
(1228,1355,o),
(1005,1514,o),
(656,1514,cs),
(315,1514,o),
(86,1350,o),
(86,1106,cs),
(86,919,o),
(217,802,o),
(434,771,c),
(434,772,l),
(190,740,o),
(40,609,o),
(40,404,cs),
(40,146,o),
(284,-24,o),
(656,-24,cs)
);
},
{
closed = 1;
nodes = (
(542,254,o),
(460,330,o),
(460,436,cs),
(460,541,o),
(542,616,o),
(656,616,cs),
(771,616,o),
(854,541,o),
(854,436,cs),
(854,331,o),
(770,254,o),
(656,254,cs)
);
},
{
closed = 1;
nodes = (
(550,907,o),
(482,969,o),
(482,1066,cs),
(482,1163,o),
(550,1225,o),
(656,1225,cs),
(763,1225,o),
(832,1163,o),
(832,1066,cs),
(832,969,o),
(763,907,o),
(656,907,cs)
);
}
);
width = 1314;
},
{
layerId = m007;
shapes = (
{
closed = 1;
nodes = (
(790,-16,o),
(998,160,o),
(998,384,cs),
(998,578,o),
(845,737,o),
(645,770,c),
(645,769,l),
(843,818,o),
(949,969,o),
(949,1132,cs),
(949,1345,o),
(759,1506,o),
(531,1506,cs),
(301,1506,o),
(115,1343,o),
(115,1132,cs),
(115,968,o),
(221,819,o),
(417,769,c),
(417,770,l),
(216,737,o),
(64,578,o),
(64,384,cs),
(64,160,o),
(274,-16,o),
(531,-16,cs)
);
},
{
closed = 1;
nodes = (
(295,30,o),
(110,184,o),
(110,385,cs),
(110,587,o),
(295,745,o),
(531,745,cs),
(767,745,o),
(952,587,o),
(952,385,cs),
(952,184,o),
(767,30,o),
(531,30,cs)
);
},
{
closed = 1;
nodes = (
(324,791,o),
(161,941,o),
(161,1133,cs),
(161,1318,o),
(324,1460,o),
(531,1460,cs),
(739,1460,o),
(903,1318,o),
(903,1133,cs),
(903,941,o),
(739,791,o),
(531,791,cs)
);
}
);
width = 1062;
},
{
layerId = m008;
shapes = (
{
closed = 1;
nodes = (
(891,-24,o),
(1102,151,o),
(1102,396,cs),
(1102,593,o),
(962,756,o),
(782,779,c),
(782,778,l),
(934,806,o),
(1046,939,o),
(1046,1114,cs),
(1046,1344,o),
(854,1514,o),
(596,1514,cs),
(336,1514,o),
(144,1344,o),
(144,1114,cs),
(144,938,o),
(255,806,o),
(410,778,c),
(410,779,l),
(229,757,o),
(90,595,o),
(90,396,cs),
(90,151,o),
(300,-24,o),
(596,-24,cs)
);
},
{
closed = 1;
nodes = (
(396,136,o),
(266,242,o),
(266,404,cs),
(266,571,o),
(404,692,o),
(596,692,cs),
(787,692,o),
(924,571,o),
(924,404,cs),
(924,241,o),
(795,136,o),
(596,136,cs)
);
},
{
closed = 1;
nodes = (
(431,846,o),
(318,950,o),
(318,1102,cs),
(318,1254,o),
(430,1356,o),
(596,1356,cs),
(761,1356,o),
(872,1254,o),
(872,1102,cs),
(872,949,o),
(760,846,o),
(596,846,cs)
);
}
);
width = 1192;
},
{
layerId = m009;
shapes = (
{
closed = 1;
nodes = (
(1029,-24,o),
(1274,146,o),
(1274,404,cs),
(1274,609,o),
(1124,740,o),
(880,772,c),
(880,771,l),
(1098,803,o),
(1228,919,o),
(1228,1106,cs),
(1228,1355,o),
(1005,1514,o),
(656,1514,cs),
(315,1514,o),
(86,1350,o),
(86,1106,cs),
(86,919,o),
(217,802,o),
(434,771,c),
(434,772,l),
(190,740,o),
(40,609,o),
(40,404,cs),
(40,146,o),
(284,-24,o),
(656,-24,cs)
);
},
{
closed = 1;
nodes = (
(542,254,o),
(460,330,o),
(460,436,cs),
(460,541,o),
(542,616,o),
(656,616,cs),
(771,616,o),
(854,541,o),
(854,436,cs),
(854,331,o),
(770,254,o),
(656,254,cs)
);
},
{
closed = 1;
nodes = (
(550,907,o),
(482,969,o),
(482,1066,cs),
(482,1163,o),
(550,1225,o),
(656,1225,cs),
(763,1225,o),
(832,1163,o),
(832,1066,cs),
(832,969,o),
(763,907,o),
(656,907,cs)
);
}
);
width = 1314;
}
);
metricLeft = "=zero";
metricRight = "=zero";
unicode = 56;
}
{
export = 0;
glyphname = A;
kernLeft = A;
kernRight = A;
layers = (
{
layerId = "45635B2B-919A-4B12-975B-2FA0A7CA8B35";
width = 1218;
},
{
layerId = m007;
shapes = (
{
closed = 1;
nodes = (
(69,0,l),
(499,1154,ls),
(539,1261,o),
(578,1367,o),
(617,1474,c),
(599,1474,l),
(638,1367,o),
(677,1261,o),
(717,1154,cs),
(1149,0,l),
(1198,0,l),
(640,1490,l),
(577,1490,l),
(20,0,l)
);
},
{
closed = 1;
nodes = (
(977,491,l),
(977,537,l),
(241,537,l),
(241,491,l)
);
}
);
width = 1218;
},
{
layerId = m005;
width = 1218;
},
{
layerId = "B487E3D2-4ABF-4A2A-A195-DC6AACAFF568";
width = 1338;
},
{
layerId = m008;
shapes = (
{
closed = 1;
nodes = (
(208,0,l),
(530,898,ls),
(573,1017,o),
(619,1154,o),
(698,1402,c),
(646,1402,l),
(725,1154,o),
(771,1017,o),
(813,898,cs),
(1126,0,l),
(1318,0,l),
(774,1490,l),
(570,1490,l),
(20,0,l)
);
},
{
closed = 1;
nodes = (
(1034,418,l),
(1034,578,l),
(304,578,l),
(304,418,l)
);
}
);
width = 1338;
},
{
layerId = m004;
width = 1338;
},
{
layerId = m01;
width = 1565;
},
{
layerId = m009;
shapes = (
{
closed = 1;
nodes = (
(455,0,l),
(628,578,ls),
(703,829,o),
(771,1067,o),
(838,1331,c),
(726,1331,l),
(790,1067,o),
(858,829,o),
(930,578,cs),
(1097,0,l),
(1565,0,l),
(1060,1490,l),
(500,1490,l),
(0,0,l)
);
},
{
closed = 1;
nodes = (
(1193,245,l),
(1193,565,l),
(373,565,l),
(373,245,l)
);
}
);
width = 1565;
},
{
layerId = m006;
width = 1565;
}
);
metricRight = "=|";
unicode = 65;
}
{
export = 0;
glyphname = D;
kernLeft = B;
kernRight = D;
layers = (
{
layerId = "45635B2B-919A-4B12-975B-2FA0A7CA8B35";
width = 1334;
},
{
layerId = m007;
shapes = (
{
closed = 1;
nodes = (
(996,0,o),
(1250,275,o),
(1250,750,cs),
(1250,1214,o),
(1007,1490,o),
(596,1490,cs),
(192,1490,l),
(192,1444,l),
(596,1444,ls),
(983,1444,o),
(1204,1185,o),
(1204,750,cs),
(1204,309,o),
(972,46,o),
(558,46,cs),
(192,46,l),
(192,0,l),
(558,0,ls)
);
},
{
closed = 1;
nodes = (
(168,1490,l),
(168,0,l),
(214,0,l),
(214,1490,l)
);
}
);
width = 1334;
},
{
layerId = m005;
width = 1334;
},
{
layerId = "B487E3D2-4ABF-4A2A-A195-DC6AACAFF568";
width = 1412;
},
{
layerId = m008;
shapes = (
{
closed = 1;
nodes = (
(1062,0,o),
(1322,282,o),
(1322,748,cs),
(1322,1210,o),
(1062,1490,o),
(628,1490,cs),
(242,1490,l),
(242,1330,l),
(616,1330,ls),
(966,1330,o),
(1142,1108,o),
(1142,748,cs),
(1142,384,o),
(966,160,o),
(596,160,cs),
(250,160,l),
(250,0,l),
(608,0,ls)
);
},
{
closed = 1;
nodes = (
(148,1490,l),
(148,0,l),
(328,0,l),
(328,1490,l)
);
}
);
width = 1412;
},
{
layerId = m004;
width = 1412;
},
{
layerId = m01;
width = 1456;
},
{
layerId = m009;
shapes = (
{
closed = 1;
nodes = (
(1121,0,o),
(1416,292,o),
(1416,744,cs),
(1416,1197,o),
(1116,1490,o),
(656,1490,cs),
(248,1490,l),
(248,1146,l),
(630,1146,ls),
(881,1146,o),
(996,1017,o),
(996,744,cs),
(996,473,o),
(885,344,o),
(642,344,cs),
(254,344,l),
(254,0,l),
(662,0,l)
);
},
{
closed = 1;
nodes = (
(80,1490,l),
(80,0,l),
(496,0,l),
(496,1490,l)
);
}
);
width = 1456;
},
{
layerId = m006;
width = 1456;
}
);
metricLeft = "=H";
metricRight = "=O";
unicode = 68;
}
{
export = 0;
glyphname = H;
kernLeft = B;
kernRight = H;
layers = (
{
background = {
shapes = (
{
closed = 1;
nodes = (
(214,0,l),
(214,738,l),
(1162,738,l),
(1162,0,l),
(1208,0,l),
(1208,1490,l),
(1162,1490,l),
(1162,784,l),
(214,784,l),
(214,1490,l),
(168,1490,l),
(168,0,l)
);
}
);
};
layerId = "45635B2B-919A-4B12-975B-2FA0A7CA8B35";
shapes = (
{
closed = 1;
nodes = (
(199,0,ls),
(207,0,o),
(214,7,o),
(214,15,cs),
(214,738,l),
(1162,738,l),
(1162,15,ls),
(1162,7,o),
(1169,0,o),
(1177,0,cs),
(1193,0,ls),
(1201,0,o),
(1208,7,o),
(1208,15,cs),
(1208,1475,ls),
(1208,1483,o),
(1201,1490,o),
(1193,1490,cs),
(1177,1490,ls),
(1169,1490,o),
(1162,1483,o),
(1162,1475,cs),
(1162,784,l),
(214,784,l),
(214,1475,ls),
(214,1483,o),
(207,1490,o),
(199,1490,cs),
(183,1490,ls),
(175,1490,o),
(168,1483,o),
(168,1475,cs),
(168,15,ls),
(168,7,o),
(175,0,o),
(183,0,cs)
);
}
);
width = 1376;
},
{
layerId = m007;
shapes = (
{
closed = 1;
nodes = (
(199,0,ls),
(207,0,o),
(214,7,o),
(214,15,cs),
(214,738,l),
(1162,738,l),
(1162,15,ls),
(1162,7,o),
(1169,0,o),
(1177,0,cs),
(1193,0,ls),
(1201,0,o),
(1208,7,o),
(1208,15,cs),
(1208,1475,ls),
(1208,1483,o),
(1201,1490,o),
(1193,1490,cs),
(1177,1490,ls),
(1169,1490,o),
(1162,1483,o),
(1162,1475,cs),
(1162,784,l),
(214,784,l),
(214,1475,ls),
(214,1483,o),
(207,1490,o),
(199,1490,cs),
(183,1490,ls),
(175,1490,o),
(168,1483,o),
(168,1475,cs),
(168,15,ls),
(168,7,o),
(175,0,o),
(183,0,cs)
);
}
);
width = 1376;
},
{
background = {
shapes = (
{
closed = 1;
nodes = (
(214,21,cs),
(214,714,ls),
(214,729,o),
(223,738,o),
(238,738,cs),
(1138,738,ls),
(1153,738,o),
(1162,729,o),
(1162,714,cs),
(1162,21,ls),
(1162,9,o),
(1172,-2,o),
(1185,-2,cs),
(1198,-2,o),
(1208,9,o),
(1208,21,cs),
(1208,1469,ls),
(1208,1481,o),
(1198,1492,o),
(1185,1492,cs),
(1172,1492,o),
(1162,1481,o),
(1162,1469,cs),
(1162,808,ls),
(1162,793,o),
(1153,784,o),
(1138,784,cs),
(238,784,ls),
(223,784,o),
(214,793,o),
(214,808,cs),
(214,1469,ls),
(214,1481,o),
(204,1492,o),
(191,1492,cs),
(178,1492,o),
(168,1481,o),
(168,1469,cs),
(168,21,ls),
(168,9,o),
(178,-2,o),
(191,-2,cs),
(204,-2,o),
(214,9,o)
);
}
);
};
layerId = m005;
shapes = (
{
closed = 1;
nodes = (
(199,0,ls),
(207,0,o),
(214,7,o),
(214,15,cs),
(214,738,l),
(1162,738,l),
(1162,15,ls),
(1162,7,o),
(1169,0,o),
(1177,0,cs),
(1193,0,ls),
(1201,0,o),
(1208,7,o),
(1208,15,cs),
(1208,1475,ls),
(1208,1483,o),
(1201,1490,o),
(1193,1490,cs),
(1177,1490,ls),
(1169,1490,o),
(1162,1483,o),
(1162,1475,cs),
(1162,784,l),
(214,784,l),
(214,1475,ls),
(214,1483,o),
(207,1490,o),
(199,1490,cs),
(183,1490,ls),
(175,1490,o),
(168,1483,o),
(168,1475,cs),
(168,15,ls),
(168,7,o),
(175,0,o),
(183,0,cs)
);
}
);
width = 1376;
},
{
background = {
shapes = (
{
closed = 1;
nodes = (
(328,0,l),
(328,683,l),
(1122,683,l),
(1122,0,l),
(1302,0,l),
(1302,1490,l),
(1122,1490,l),
(1122,843,l),
(328,843,l),
(328,1490,l),
(148,1490,l),
(148,0,l)
);
}
);
};
layerId = "B487E3D2-4ABF-4A2A-A195-DC6AACAFF568";
shapes = (
{
closed = 1;
nodes = (
(295,0,ls),
(314,0,o),
(328,14,o),
(328,33,cs),
(328,683,l),
(1122,683,l),
(1122,33,ls),
(1122,14,o),
(1136,0,o),
(1155,0,cs),
(1269,0,ls),
(1288,0,o),
(1302,14,o),
(1302,33,cs),
(1302,1457,ls),
(1302,1476,o),
(1288,1490,o),
(1269,1490,cs),
(1155,1490,ls),
(1136,1490,o),
(1122,1476,o),
(1122,1457,cs),
(1122,843,l),
(328,843,l),
(328,1457,ls),
(328,1476,o),
(314,1490,o),
(295,1490,cs),
(181,1490,ls),
(162,1490,o),
(148,1476,o),
(148,1457,cs),
(148,33,ls),
(148,14,o),
(162,0,o),
(181,0,cs)
);
}
);
width = 1450;
},
{
layerId = m008;
shapes = (
{
closed = 1;
nodes = (
(295,0,ls),
(314,0,o),
(328,14,o),
(328,33,cs),
(328,683,l),
(1122,683,l),
(1122,33,ls),
(1122,14,o),
(1136,0,o),
(1155,0,cs),
(1269,0,ls),
(1288,0,o),
(1302,14,o),
(1302,33,cs),
(1302,1457,ls),
(1302,1476,o),
(1288,1490,o),
(1269,1490,cs),
(1155,1490,ls),
(1136,1490,o),
(1122,1476,o),
(1122,1457,cs),
(1122,843,l),
(328,843,l),
(328,1457,ls),
(328,1476,o),
(314,1490,o),
(295,1490,cs),
(181,1490,ls),
(162,1490,o),
(148,1476,o),
(148,1457,cs),
(148,33,ls),
(148,14,o),
(162,0,o),
(181,0,cs)
);
}
);
width = 1450;
},
{
background = {
shapes = (
{
closed = 1;
nodes = (
(328,81,cs),
(328,588,ls),
(328,649,o),
(362,683,o),
(423,683,cs),
(1027,683,ls),
(1088,683,o),
(1122,649,o),
(1122,588,cs),
(1122,81,ls),
(1122,32,o),
(1162,-9,o),
(1212,-9,cs),
(1262,-9,o),
(1302,32,o),
(1302,81,cs),
(1302,1409,ls),
(1302,1458,o),
(1262,1499,o),
(1212,1499,cs),
(1162,1499,o),
(1122,1458,o),
(1122,1409,cs),
(1122,938,ls),
(1122,877,o),
(1088,843,o),
(1027,843,cs),
(423,843,ls),
(362,843,o),
(328,877,o),
(328,938,cs),
(328,1409,ls),
(328,1458,o),
(288,1499,o),
(238,1499,cs),
(188,1499,o),
(148,1458,o),
(148,1409,cs),
(148,81,ls),
(148,32,o),
(188,-9,o),
(238,-9,cs),
(288,-9,o),
(328,32,o)
);
}
);
};
layerId = m004;
shapes = (
{
closed = 1;
nodes = (
(295,0,ls),
(314,0,o),
(328,14,o),
(328,33,cs),
(328,683,l),
(1122,683,l),
(1122,33,ls),
(1122,14,o),
(1136,0,o),
(1155,0,cs),
(1269,0,ls),
(1288,0,o),
(1302,14,o),
(1302,33,cs),
(1302,1457,ls),
(1302,1476,o),
(1288,1490,o),
(1269,1490,cs),
(1155,1490,ls),
(1136,1490,o),
(1122,1476,o),
(1122,1457,cs),
(1122,843,l),
(328,843,l),
(328,1457,ls),
(328,1476,o),
(314,1490,o),
(295,1490,cs),
(181,1490,ls),
(162,1490,o),
(148,1476,o),
(148,1457,cs),
(148,33,ls),
(148,14,o),
(162,0,o),
(181,0,cs)
);
}
);
width = 1450;
},
{
background = {
shapes = (
{
closed = 1;
nodes = (
(496,0,l),
(496,581,l),
(992,581,l),
(992,0,l),
(1408,0,l),
(1408,1490,l),
(992,1490,l),
(992,933,l),
(496,933,l),
(496,1490,l),
(80,1490,l),
(80,0,l)
);
}
);
};
layerId = m01;
shapes = (
{
closed = 1;
nodes = (
(423,0,ls),
(465,0,o),
(496,31,o),
(496,73,cs),
(496,581,l),
(992,581,l),
(992,73,ls),
(992,31,o),
(1023,0,o),
(1065,0,cs),
(1335,0,ls),
(1377,0,o),
(1408,31,o),
(1408,73,cs),
(1408,1417,ls),
(1408,1459,o),
(1377,1490,o),
(1335,1490,cs),
(1065,1490,ls),
(1023,1490,o),
(992,1459,o),
(992,1417,cs),
(992,933,l),
(496,933,l),
(496,1417,ls),
(496,1459,o),
(465,1490,o),
(423,1490,cs),
(153,1490,ls),
(111,1490,o),
(80,1459,o),
(80,1417,cs),
(80,73,ls),
(80,31,o),
(111,0,o),
(153,0,cs)
);
}
);
width = 1488;
},
{
layerId = m009;
shapes = (
{
closed = 1;
nodes = (
(423,0,ls),
(465,0,o),
(496,31,o),
(496,73,cs),
(496,581,l),
(992,581,l),
(992,73,ls),
(992,31,o),
(1023,0,o),
(1065,0,cs),
(1335,0,ls),
(1377,0,o),
(1408,31,o),
(1408,73,cs),
(1408,1417,ls),
(1408,1459,o),
(1377,1490,o),
(1335,1490,cs),
(1065,1490,ls),
(1023,1490,o),
(992,1459,o),
(992,1417,cs),
(992,933,l),
(496,933,l),
(496,1417,ls),
(496,1459,o),
(465,1490,o),
(423,1490,cs),
(153,1490,ls),
(111,1490,o),
(80,1459,o),
(80,1417,cs),
(80,73,ls),
(80,31,o),
(111,0,o),
(153,0,cs)
);
}
);
width = 1488;
},
{
background = {
shapes = (
{
closed = 1;
nodes = (
(496,188,cs),
(496,368,ls),
(496,506,o),
(571,581,o),
(709,581,cs),
(779,581,ls),
(917,581,o),
(992,506,o),
(992,368,cs),
(992,188,ls),
(992,74,o),
(1085,-20,o),
(1200,-20,cs),
(1315,-20,o),
(1408,74,o),
(1408,188,cs),
(1408,1302,ls),
(1408,1416,o),
(1315,1510,o),
(1200,1510,cs),
(1085,1510,o),
(992,1416,o),
(992,1302,cs),
(992,1146,ls),
(992,1008,o),
(917,933,o),
(779,933,cs),
(709,933,ls),
(571,933,o),
(496,1008,o),
(496,1146,cs),
(496,1302,ls),
(496,1416,o),
(403,1510,o),
(288,1510,cs),
(173,1510,o),
(80,1416,o),
(80,1302,cs),
(80,188,ls),
(80,74,o),
(173,-20,o),
(288,-20,cs),
(403,-20,o),
(496,74,o)
);
}
);
};
layerId = m006;
shapes = (
{
closed = 1;
nodes = (
(423,0,ls),
(465,0,o),
(496,31,o),
(496,73,cs),
(496,581,l),
(992,581,l),
(992,73,ls),
(992,31,o),
(1023,0,o),
(1065,0,cs),
(1335,0,ls),
(1377,0,o),
(1408,31,o),
(1408,73,cs),
(1408,1417,ls),
(1408,1459,o),
(1377,1490,o),
(1335,1490,cs),
(1065,1490,ls),
(1023,1490,o),
(992,1459,o),
(992,1417,cs),
(992,933,l),
(496,933,l),
(496,1417,ls),
(496,1459,o),
(465,1490,o),
(423,1490,cs),
(153,1490,ls),
(111,1490,o),
(80,1459,o),
(80,1417,cs),
(80,73,ls),
(80,31,o),
(111,0,o),
(153,0,cs)
);
}
);
width = 1488;
}
);
metricRight = "=|";
unicode = 72;
}
{
color = 4;
glyphname = I;
kernLeft = B;
kernRight = H;
layers = (
{
background = {
shapes = (
{
closed = 1;
nodes = (
(168,1490,l),
(168,0,l),
(214,0,l),
(214,1490,l)
);
}
);
};
layerId = "45635B2B-919A-4B12-975B-2FA0A7CA8B35";
shapes = (
{
closed = 1;
nodes = (
(168,1490,ls),
(168,1490,o),
(168,1490,o),
(168,1490,cs),
(168,0,ls),
(168,0,o),
(168,0,o),
(168,0,cs),
(214,0,ls),
(214,0,o),
(214,0,o),
(214,0,cs),
(214,1490,ls),
(214,1490,o),
(214,1490,o),
(214,1490,cs)
);
}
);
width = 382;
},
{
layerId = m007;
shapes = (
{
closed = 1;
nodes = (
(183,1490,ls),
(175,1490,o),
(168,1483,o),
(168,1475,cs),
(168,15,ls),
(168,7,o),
(175,0,o),
(183,0,cs),
(199,0,ls),
(207,0,o),
(214,7,o),
(214,15,cs),
(214,1475,ls),
(214,1483,o),
(207,1490,o),
(199,1490,cs)
);
}
);
width = 382;
},
{
background = {
shapes = (
{
closed = 1;
nodes = (
(168,1469,cs),
(168,21,ls),
(168,9,o),
(178,-2,o),
(191,-2,cs),
(204,-2,o),
(214,9,o),
(214,21,cs),
(214,1469,ls),
(214,1481,o),
(204,1492,o),
(191,1492,cs),
(178,1492,o),
(168,1481,o)
);
}
);
};
layerId = m005;
shapes = (
{
closed = 1;
nodes = (
(191,1492,ls),
(178,1492,o),
(168,1481,o),
(168,1469,cs),
(168,21,ls),
(168,9,o),
(178,-2,o),
(191,-2,cs),
(191,-2,ls),
(204,-2,o),
(214,9,o),
(214,21,cs),
(214,1469,ls),
(214,1481,o),
(204,1492,o),
(191,1492,cs)
);
}
);
width = 382;
},
{
background = {
shapes = (
{
closed = 1;
nodes = (
(148,1490,l),
(148,0,l),
(328,0,l),
(328,1490,l)
);
}
);
};
layerId = "B487E3D2-4ABF-4A2A-A195-DC6AACAFF568";
shapes = (
{
closed = 1;
nodes = (
(148,1490,ls),
(148,1490,o),
(148,1490,o),
(148,1490,cs),
(148,0,ls),
(148,0,o),
(148,0,o),
(148,0,cs),
(328,0,ls),
(328,0,o),
(328,0,o),
(328,0,cs),
(328,1490,ls),
(328,1490,o),
(328,1490,o),
(328,1490,cs)
);
}
);
width = 476;
},
{
layerId = m008;
shapes = (
{
closed = 1;
nodes = (
(181,1490,ls),
(162,1490,o),
(148,1476,o),
(148,1457,cs),
(148,33,ls),
(148,14,o),
(162,0,o),
(181,0,cs),
(295,0,ls),
(314,0,o),
(328,14,o),
(328,33,cs),
(328,1457,ls),
(328,1476,o),
(314,1490,o),
(295,1490,cs)
);
}
);
width = 476;
},
{
background = {
shapes = (
{
closed = 1;
nodes = (
(148,1409,cs),
(148,81,ls),
(148,32,o),
(188,-9,o),
(238,-9,cs),
(288,-9,o),
(328,32,o),
(328,81,cs),
(328,1409,ls),
(328,1458,o),
(288,1499,o),
(238,1499,cs),
(188,1499,o),
(148,1458,o)
);
}
);
};
layerId = m004;
shapes = (
{
closed = 1;
nodes = (
(238,1499,ls),
(188,1499,o),
(148,1458,o),
(148,1409,cs),
(148,81,ls),
(148,32,o),
(188,-9,o),
(238,-9,cs),
(238,-9,ls),
(288,-9,o),
(328,32,o),
(328,81,cs),
(328,1409,ls),
(328,1458,o),
(288,1499,o),
(238,1499,cs)
);
}
);
width = 476;
},
{
background = {
shapes = (
{
closed = 1;
nodes = (
(80,1490,l),
(80,0,l),
(496,0,l),
(496,1490,l)
);
}
);
};
layerId = m01;
shapes = (
{
closed = 1;
nodes = (
(80,1490,ls),
(80,1490,o),
(80,1490,o),
(80,1490,cs),
(80,0,ls),
(80,0,o),
(80,0,o),
(80,0,cs),
(496,0,ls),
(496,0,o),
(496,0,o),
(496,0,cs),
(496,1490,ls),
(496,1490,o),
(496,1490,o),
(496,1490,cs)
);
}
);
width = 576;
},
{
layerId = m009;
shapes = (
{
closed = 1;
nodes = (
(153,1490,ls),
(111,1490,o),
(80,1459,o),
(80,1417,cs),
(80,73,ls),
(80,31,o),
(111,0,o),
(153,0,cs),
(423,0,ls),
(465,0,o),
(496,31,o),
(496,73,cs),
(496,1417,ls),
(496,1459,o),
(465,1490,o),
(423,1490,cs)
);
}
);
width = 576;
},
{
background = {
shapes = (
{
closed = 1;
nodes = (
(80,1302,cs),
(80,188,ls),
(80,74,o),
(173,-20,o),
(288,-20,cs),
(403,-20,o),
(496,74,o),
(496,188,cs),
(496,1302,ls),
(496,1416,o),
(403,1510,o),
(288,1510,cs),
(173,1510,o),
(80,1416,o)
);
}
);
};
layerId = m006;
shapes = (
{
closed = 1;
nodes = (
(288,1510,ls),
(173,1510,o),
(80,1416,o),
(80,1302,cs),
(80,188,ls),
(80,74,o),
(173,-20,o),
(288,-20,cs),
(288,-20,ls),
(403,-20,o),
(496,74,o),
(496,188,cs),
(496,1302,ls),
(496,1416,o),
(403,1510,o),
(288,1510,cs)
);
}
);
width = 576;
}
);
metricLeft = "=H";
metricRight = "=H";
unicode = 73;
}
{
export = 0;
glyphname = M;
kernLeft = B;
kernRight = H;
layers = (
{
layerId = "45635B2B-919A-4B12-975B-2FA0A7CA8B35";
width = 1704;
},
{
layerId = m007;
shapes = (
{
closed = 1;
nodes = (
(214,0,l),
(214,1136,ls),
(214,1243,o),
(213,1349,o),
(213,1456,c),
(199,1456,l),
(244,1349,o),
(290,1243,o),
(336,1136,cs),
(829,0,l),
(875,0,l),
(1368,1136,ls),
(1414,1243,o),
(1460,1349,o),
(1505,1456,c),
(1491,1456,l),
(1491,1349,o),
(1490,1243,o),
(1490,1136,cs),
(1490,0,l),
(1536,0,l),
(1536,1490,l),
(1472,1490,l),
(958,304,ls),
(919,213,o),
(879,123,o),
(840,32,c),
(864,32,l),
(825,123,o),
(786,213,o),
(747,304,cs),
(232,1490,l),
(168,1490,l),
(168,0,l)
);
}
);
width = 1704;
},
{
layerId = m005;
width = 1704;
},
{
layerId = "B487E3D2-4ABF-4A2A-A195-DC6AACAFF568";
width = 1756;
},
{
layerId = m008;
shapes = (
{
closed = 1;
nodes = (
(326,0,l),
(326,864,ls),
(326,992,o),
(322,1163,o),
(318,1312,c),
(284,1312,l),
(355,1124,o),
(419,956,o),
(456,864,cs),
(804,0,l),
(952,0,l),
(1298,864,ls),
(1335,956,o),
(1396,1124,o),
(1464,1312,c),
(1439,1312,l),
(1435,1163,o),
(1431,992,o),
(1431,864,cs),
(1431,0,l),
(1608,0,l),
(1608,1490,l),
(1362,1490,l),
(990,528,ls),
(957,442,o),
(887,258,o),
(861,180,c),
(902,180,l),
(874,258,o),
(805,442,o),
(771,528,cs),
(393,1490,l),
(148,1490,l),
(148,0,l)
);
}
);
width = 1756;
},
{
layerId = m004;
width = 1756;
},
{
layerId = m01;
width = 1894;
},
{
layerId = m009;
shapes = (
{
closed = 1;
nodes = (
(488,0,l),
(488,576,ls),
(488,712,o),
(472,1035,o),
(472,1264,c),
(419,1264,l),
(478,1035,o),
(560,719,o),
(604,576,cs),
(780,0,l),
(1116,0,l),
(1289,576,ls),
(1332,719,o),
(1412,1035,o),
(1469,1264,c),
(1422,1264,l),
(1422,1035,o),
(1406,712,o),
(1406,576,cs),
(1406,0,l),
(1814,0,l),
(1814,1490,l),
(1191,1490,l),
(1059,1024,ls),
(1014,864,o),
(929,528,o),
(895,368,c),
(1002,368,l),
(968,528,o),
(882,864,o),
(836,1024,cs),
(702,1490,l),
(80,1490,l),
(80,0,l)
);
}
);
width = 1894;
},
{
layerId = m006;
width = 1894;
}
);
metricLeft = "=H";
metricRight = "=H";
unicode = 77;
}
{
color = 8;
glyphname = O;
kernLeft = C;
kernRight = D;
layers = (
{
layerId = "45635B2B-919A-4B12-975B-2FA0A7CA8B35";
shapes = (
{
closed = 1;
nodes = (
(1068,-16,o),
(1318,289,o),
(1318,744,cs),
(1318,1200,o),
(1068,1506,o),
(702,1506,cs),
(334,1506,o),
(84,1199,o),
(84,744,cs),
(84,291,o),
(333,-16,o),
(702,-16,cs)
);
},
{
closed = 1;
nodes = (
(359,30,o),
(130,320,o),
(130,744,cs),
(130,1175,o),
(364,1460,o),
(702,1460,cs),
(1040,1460,o),
(1272,1172,o),
(1272,744,cs),
(1272,317,o),
(1040,30,o),
(702,30,cs)
);
}
);
width = 1402;
},
{
layerId = m007;
shapes = (
{
closed = 1;
nodes = (
(1068,-16,o),
(1318,289,o),
(1318,744,cs),
(1318,1200,o),
(1068,1506,o),
(702,1506,cs),
(334,1506,o),
(84,1199,o),
(84,744,cs),
(84,291,o),
(333,-16,o),
(702,-16,cs)
);
},
{
closed = 1;
nodes = (
(359,30,o),
(130,320,o),
(130,744,cs),
(130,1175,o),
(364,1460,o),
(702,1460,cs),
(1040,1460,o),
(1272,1172,o),
(1272,744,cs),
(1272,317,o),
(1040,30,o),
(702,30,cs)
);
}
);
width = 1402;
},
{
layerId = m005;
shapes = (
{
closed = 1;
nodes = (
(1068,-16,o),
(1318,289,o),
(1318,744,cs),
(1318,1200,o),
(1068,1506,o),
(702,1506,cs),
(334,1506,o),
(84,1199,o),
(84,744,cs),
(84,291,o),
(333,-16,o),
(702,-16,cs)
);
},
{
closed = 1;
nodes = (
(359,30,o),
(130,320,o),
(130,744,cs),
(130,1175,o),
(364,1460,o),
(702,1460,cs),
(1040,1460,o),
(1272,1172,o),
(1272,744,cs),
(1272,317,o),
(1040,30,o),
(702,30,cs)
);
}
);
width = 1402;
},
{
layerId = "B487E3D2-4ABF-4A2A-A195-DC6AACAFF568";
shapes = (
{
closed = 1;
nodes = (
(1162,-24,o),
(1444,297,o),
(1444,744,cs),
(1444,1193,o),
(1162,1514,o),
(767,1514,cs),
(372,1514,o),
(90,1193,o),
(90,744,cs),
(90,297,o),
(372,-24,o),
(767,-24,cs)
);
},
{
closed = 1;
nodes = (
(496,144,o),
(270,358,o),
(270,744,cs),
(270,1132,o),
(496,1346,o),
(767,1346,cs),
(1037,1346,o),
(1264,1132,o),
(1264,744,cs),
(1264,358,o),
(1037,144,o),
(767,144,cs)
);
}
);
width = 1534;
},
{
layerId = m008;
shapes = (
{
closed = 1;
nodes = (
(1162,-24,o),
(1444,297,o),
(1444,744,cs),
(1444,1193,o),
(1162,1514,o),
(767,1514,cs),
(372,1514,o),
(90,1193,o),
(90,744,cs),
(90,297,o),
(372,-24,o),
(767,-24,cs)
);
},
{
closed = 1;
nodes = (
(496,144,o),
(270,358,o),
(270,744,cs),
(270,1132,o),
(496,1346,o),
(767,1346,cs),
(1037,1346,o),
(1264,1132,o),
(1264,744,cs),
(1264,358,o),
(1037,144,o),
(767,144,cs)
);
}
);
width = 1534;
},
{
layerId = m004;
shapes = (
{
closed = 1;
nodes = (
(1162,-24,o),
(1444,297,o),
(1444,744,cs),
(1444,1193,o),
(1162,1514,o),
(767,1514,cs),
(372,1514,o),
(90,1193,o),
(90,744,cs),
(90,297,o),
(372,-24,o),
(767,-24,cs)
);
},
{
closed = 1;
nodes = (
(496,144,o),
(270,358,o),
(270,744,cs),
(270,1132,o),
(496,1346,o),
(767,1346,cs),
(1037,1346,o),
(1264,1132,o),
(1264,744,cs),
(1264,358,o),
(1037,144,o),
(767,144,cs)
);
}
);
width = 1534;
},
{
layerId = m01;
shapes = (
{
closed = 1;
nodes = (
(1169,-24,o),
(1488,247,o),
(1488,744,cs),
(1488,1242,o),
(1169,1514,o),
(764,1514,cs),
(357,1514,o),
(40,1242,o),
(40,744,cs),
(40,250,o),
(357,-24,o),
(764,-24,cs)
);
},
{
closed = 1;
nodes = (
(569,336,o),
(460,487,o),
(460,744,cs),
(460,1002,o),
(569,1154,o),
(764,1154,cs),
(960,1154,o),
(1068,1002,o),
(1068,744,cs),
(1068,487,o),
(960,336,o),
(764,336,cs)
);
}
);
width = 1528;
},
{
layerId = m009;
shapes = (
{
closed = 1;
nodes = (
(1169,-24,o),
(1488,247,o),
(1488,744,cs),
(1488,1242,o),
(1169,1514,o),
(764,1514,cs),
(357,1514,o),
(40,1242,o),
(40,744,cs),
(40,250,o),
(357,-24,o),
(764,-24,cs)
);
},
{
closed = 1;
nodes = (
(569,336,o),
(460,487,o),
(460,744,cs),
(460,1002,o),
(569,1154,o),
(764,1154,cs),
(960,1154,o),
(1068,1002,o),
(1068,744,cs),
(1068,487,o),
(960,336,o),
(764,336,cs)
);
}
);
width = 1528;
},
{
layerId = m006;
shapes = (
{
closed = 1;
nodes = (
(1169,-24,o),
(1488,247,o),
(1488,744,cs),
(1488,1242,o),
(1169,1514,o),
(764,1514,cs),
(357,1514,o),
(40,1242,o),
(40,744,cs),
(40,250,o),
(357,-24,o),
(764,-24,cs)
);
},
{
closed = 1;
nodes = (
(569,336,o),
(460,487,o),
(460,744,cs),
(460,1002,o),
(569,1154,o),
(764,1154,cs),
(960,1154,o),
(1068,1002,o),
(1068,744,cs),
(1068,487,o),
(960,336,o),
(764,336,cs)
);
}
);
width = 1528;
}
);
metricRight = "=|";
unicode = 79;
}
{
export = 0;
glyphname = P;
kernLeft = B;
kernRight = P;
layers = (
{
layerId = "45635B2B-919A-4B12-975B-2FA0A7CA8B35";
width = 1125;
},
{
layerId = m007;
shapes = (
{
closed = 1;
nodes = (
(214,0,l),
(214,1444,l),
(654,1444,ls),
(877,1444,o),
(1034,1293,o),
(1034,1064,cs),
(1034,838,o),
(877,688,o),
(654,688,cs),
(192,688,l),
(192,642,l),
(654,642,ls),
(903,642,o),
(1080,811,o),
(1080,1064,cs),
(1080,1320,o),
(902,1490,o),
(654,1490,cs),
(168,1490,l),
(168,0,l)
);
}
);
width = 1125;
},
{
layerId = m005;
width = 1125;
},
{
layerId = "B487E3D2-4ABF-4A2A-A195-DC6AACAFF568";
width = 1253;
},
{
layerId = m008;
shapes = (
{
closed = 1;
nodes = (
(328,0,l),
(328,1330,l),
(676,1330,ls),
(883,1330,o),
(1010,1219,o),
(1010,1038,cs),
(1010,857,o),
(883,745,o),
(676,745,cs),
(238,745,l),
(238,585,l),
(674,585,ls),
(985,585,o),
(1188,760,o),
(1188,1038,cs),
(1188,1316,o),
(993,1490,o),
(682,1490,cs),
(148,1490,l),
(148,0,l)
);
}
);
width = 1253;
},
{
layerId = m004;
width = 1253;
},
{
layerId = m01;
width = 1327;
},
{
layerId = m009;
shapes = (
{
closed = 1;
nodes = (
(496,0,l),
(496,1148,l),
(682,1148,ls),
(807,1148,o),
(886,1079,o),
(886,970,cs),
(886,861,o),
(807,792,o),
(682,792,cs),
(319,792,l),
(319,450,l),
(713,450,ls),
(1069,450,o),
(1292,651,o),
(1292,970,cs),
(1292,1289,o),
(1069,1490,o),
(713,1490,cs),
(80,1490,l),
(80,0,l)
);
}
);
width = 1327;
},
{
layerId = m006;
width = 1327;
}
);
metricLeft = "=H";
unicode = 80;
}
{
color = 4;
glyphname = asciitilde;
layers = (
{
background = {
shapes = (
{
closed = 1;
nodes = (
(174,482,l),
(188,577,o),
(274,644,o),
(390,642,cs),
(475,642,o),
(531,604,o),
(590,564,cs),
(649,525,o),
(708,484,o),
(794,482,cs),
(917,482,o),
(1017,561,o),
(1048,674,c),
(1000,686,l),
(977,594,o),
(896,530,o),
(794,530,cs),
(723,530,o),
(674,564,o),
(616,602,cs),
(557,642,o),
(489,690,o),
(390,690,cs),
(252,690,o),
(145,607,o),
(128,488,c)
);
}
);
};
layerId = "45635B2B-919A-4B12-975B-2FA0A7CA8B35";
shapes = (
{
closed = 1;
nodes = (
(174,482,ls),
(174,482,o),
(174,482,o),
(174,482,cs),
(188,577,o),
(274,644,o),
(390,642,cs),
(475,641,o),
(531,604,o),
(590,564,cs),
(649,525,o),
(708,484,o),
(794,482,cs),
(911,482,o),
(1017,561,o),
(1048,674,cs),
(1048,674,o),
(1048,674,o),
(1048,674,cs),
(1000,686,ls),
(1000,686,o),
(1000,686,o),
(1000,686,cs),
(977,594,o),
(891,530,o),
(794,530,cs),
(723,530,o),
(674,564,o),
(616,602,cs),
(557,642,o),
(489,690,o),
(390,690,cs),
(252,690,o),
(145,607,o),
(128,488,cs),
(128,488,o),
(128,488,o),
(128,488,cs)
);
}
);
width = 1176;
},
{
layerId = m007;
shapes = (
{
closed = 1;
nodes = (
(160,484,ls),
(168,483,o),
(175,488,o),
(177,496,cs),
(197,583,o),
(280,644,o),
(390,642,cs),
(475,642,o),
(531,604,o),
(590,564,cs),
(649,525,o),
(708,484,o),
(794,482,cs),
(911,482,o),
(1007,554,o),
(1043,658,cs),
(1046,667,o),
(1041,676,o),
(1032,678,cs),
(1014,682,ls),
(1006,684,o),
(999,680,o),
(996,672,cs),
(969,588,o),
(891,530,o),
(794,530,cs),
(723,530,o),
(674,564,o),
(616,602,cs),
(557,642,o),
(489,690,o),
(390,690,cs),
(258,690,o),
(155,614,o),
(131,504,cs),
(129,495,o),
(135,487,o),
(144,486,cs)
);
}
);
width = 1176;
},
{
background = {
shapes = (
{
closed = 1;
nodes = (
(178,500,cs),
(200,586,o),
(282,644,o),
(390,642,cs),
(475,642,o),
(531,604,o),
(590,564,cs),
(649,525,o),
(708,484,o),
(794,482,cs),
(907,482,o),
(1001,549,o),
(1040,650,cs),
(1046,665,o),
(1035,683,o),
(1017,683,cs),
(1007,683,o),
(997,676,o),
(994,667,cs),
(964,585,o),
(888,530,o),
(794,530,cs),
(723,530,o),
(674,564,o),
(616,602,cs),
(557,642,o),
(489,690,o),
(390,690,cs),
(262,690,o),
(161,619,o),
(133,511,cs),
(129,497,o),
(140,482,o),
(155,482,cs),
(166,482,o),
(176,490,o)
);
}
);
};
layerId = m005;
shapes = (
{
closed = 1;
nodes = (
(156,482,ls),
(167,482,o),
(176,490,o),
(179,500,cs),
(201,586,o),
(283,643,o),
(391,642,cs),
(476,641,o),
(532,604,o),
(591,564,cs),
(650,525,o),
(709,483,o),
(795,482,cs),
(908,481,o),
(1002,549,o),
(1041,650,cs),
(1047,665,o),
(1036,683,o),
(1018,683,cs),
(1018,683,ls),
(1008,683,o),
(998,676,o),
(995,667,cs),
(965,585,o),
(880,530,o),
(795,530,cs),
(724,530,o),
(675,564,o),
(617,602,cs),
(558,642,o),
(490,690,o),
(391,690,cs),
(263,690,o),
(162,619,o),
(134,511,cs),
(130,497,o),
(141,482,o),
(156,482,cs)
);
}
);
width = 1176;
},
{
background = {
shapes = (
{
closed = 1;
nodes = (
(294,442,l),
(292,569,o),
(349,620,o),
(428,620,cs),
(479,620,o),
(513,597,o),
(584,536,cs),
(691,443,o),
(762,402,o),
(862,402,cs),
(1009,402,o),
(1153,495,o),
(1150,736,c),
(992,736,l),
(994,620,o),
(941,558,o),
(858,558,cs),
(807,558,o),
(772,581,o),
(702,642,cs),
(595,735,o),
(524,776,o),
(424,776,cs),
(276,776,o),
(132,684,o),
(136,442,c)
);
}
);
};
layerId = "B487E3D2-4ABF-4A2A-A195-DC6AACAFF568";
shapes = (
{
closed = 1;
nodes = (
(294,442,ls),
(294,442,o),
(294,442,o),
(294,442,cs),
(292,569,o),
(349,620,o),
(428,620,cs),
(479,620,o),
(513,597,o),
(584,536,cs),
(691,443,o),
(762,402,o),
(862,402,cs),
(1009,402,o),
(1153,495,o),
(1150,736,cs),
(1150,736,o),
(1150,736,o),
(1150,736,cs),
(992,736,ls),
(992,736,o),
(992,736,o),
(992,736,cs),
(994,620,o),
(941,558,o),
(858,558,cs),
(807,558,o),
(772,581,o),
(702,642,cs),
(595,735,o),
(524,776,o),
(424,776,cs),
(276,776,o),
(132,684,o),
(136,442,cs),
(136,442,o),
(136,442,o),
(136,442,cs)
);
}
);
width = 1286;
},
{
layerId = m008;
shapes = (
{
closed = 1;
nodes = (
(263,442,ls),
(281,442,o),
(293,456,o),
(295,474,cs),
(302,578,o),
(356,620,o),
(428,620,cs),
(479,620,o),
(513,597,o),
(584,536,cs),
(691,443,o),
(762,402,o),
(862,402,cs),
(1002,402,o),
(1139,486,o),
(1149,702,cs),
(1150,722,o),
(1136,736,o),
(1117,736,cs),
(1023,736,ls),
(1005,736,o),
(993,723,o),
(991,704,cs),
(984,609,o),
(933,558,o),
(858,558,cs),
(807,558,o),
(772,581,o),
(702,642,cs),
(595,735,o),
(524,776,o),
(424,776,cs),
(283,776,o),
(146,693,o),
(136,476,cs),
(136,456,o),
(150,442,o),
(169,442,cs)
);
}
);
width = 1286;
},
{
background = {
shapes = (
{
closed = 1;
nodes = (
(298,499,cs),
(313,586,o),
(363,620,o),
(428,620,cs),
(479,620,o),
(513,597,o),
(584,536,cs),
(691,443,o),
(762,402,o),
(862,402,cs),
(989,402,o),
(1115,472,o),
(1144,653,cs),
(1151,699,o),
(1117,745,o),
(1065,745,cs),
(1026,745,o),
(994,717,o),
(987,680,cs),
(973,599,o),
(925,558,o),
(858,558,cs),
(807,558,o),
(772,581,o),
(702,642,cs),
(595,735,o),
(524,776,o),
(424,776,cs),
(296,776,o),
(170,707,o),
(142,524,cs),
(135,479,o),
(169,433,o),
(220,433,cs),
(259,433,o),
(292,461,o)
);
}
);
};
layerId = m004;
shapes = (
{
closed = 1;
nodes = (
(220,433,ls),
(259,433,o),
(291,461,o),
(298,499,cs),
(313,586,o),
(363,620,o),
(428,620,cs),
(479,620,o),
(513,597,o),
(584,536,cs),
(691,443,o),
(762,402,o),
(862,402,cs),
(989,402,o),
(1115,472,o),
(1144,653,cs),
(1151,699,o),
(1117,745,o),
(1065,745,cs),
(1065,745,ls),
(1026,745,o),
(993,717,o),
(987,680,cs),
(973,599,o),
(925,558,o),
(858,558,cs),
(807,558,o),
(772,581,o),
(702,642,cs),
(595,735,o),
(524,776,o),
(424,776,cs),
(296,776,o),
(170,706,o),
(142,524,cs),
(135,479,o),
(169,433,o),
(220,433,cs)
);
}
);
width = 1286;
},
{
background = {
shapes = (
{
closed = 1;
nodes = (
(440,376,l),
(436,492,o),
(483,538,o),
(544,538,cs),
(593,538,o),
(613,516,o),
(666,468,cs),
(765,381,o),
(845,346,o),
(940,346,cs),
(1161,346,o),
(1284,537,o),
(1272,834,c),
(980,834,l),
(984,718,o),
(935,672,o),
(876,672,cs),
(825,672,o),
(796,702,o),
(750,742,cs),
(644,837,o),
(567,864,o),
(480,864,cs),
(250,864,o),
(136,673,o),
(148,376,c)
);
}
);
};
layerId = m01;
shapes = (
{
closed = 1;
nodes = (
(440,376,ls),
(440,376,o),
(440,376,o),
(440,376,cs),
(436,492,o),
(483,538,o),
(544,538,cs),
(593,538,o),
(613,516,o),
(666,468,cs),
(765,381,o),
(845,346,o),
(940,346,cs),
(1161,346,o),
(1284,537,o),
(1272,834,cs),
(1272,834,o),
(1272,834,o),
(1272,834,cs),
(980,834,ls),
(980,834,o),
(980,834,o),
(980,834,cs),
(984,718,o),
(935,672,o),
(876,672,cs),
(825,672,o),
(796,702,o),
(750,742,cs),
(644,837,o),
(567,864,o),
(480,864,cs),
(250,864,o),
(136,673,o),
(148,376,cs),
(148,376,o),
(148,376,o),
(148,376,cs)
);
}
);
width = 1420;
},
{
layerId = m009;
shapes = (
{
closed = 1;
nodes = (
(374,376,ls),
(412,376,o),
(437,404,o),
(445,444,cs),
(458,510,o),
(497,538,o),
(544,538,cs),
(593,538,o),
(613,516,o),
(666,468,cs),
(765,381,o),
(845,346,o),
(940,346,cs),
(1142,346,o),
(1262,505,o),
(1272,759,cs),
(1274,803,o),
(1241,834,o),
(1199,834,cs),
(1045,834,ls),
(1007,834,o),
(983,806,o),
(975,767,cs),
(962,700,o),
(922,672,o),
(876,672,cs),
(825,672,o),
(796,702,o),
(750,742,cs),
(644,837,o),
(567,864,o),
(480,864,cs),
(270,864,o),
(156,704,o),
(148,450,cs),
(146,407,o),
(179,376,o),
(221,376,cs)
);
}
);
width = 1420;
},
{
background = {
shapes = (
{
closed = 1;
nodes = (
(451,461,cs),
(468,517,o),
(503,538,o),
(544,538,cs),
(593,538,o),
(613,516,o),
(666,468,cs),
(765,381,o),
(845,346,o),
(940,346,cs),
(1118,346,o),
(1232,469,o),
(1264,682,cs),
(1277,770,o),
(1209,855,o),
(1115,855,cs),
(1047,855,o),
(988,811,o),
(969,749,cs),
(952,693,o),
(916,672,o),
(876,672,cs),
(825,672,o),
(796,702,o),
(750,742,cs),
(644,837,o),
(567,864,o),
(480,864,cs),
(295,864,o),
(185,740,o),
(155,527,cs),
(143,439,o),
(211,355,o),
(305,355,cs),
(373,355,o),
(432,400,o)
);
}
);
};
layerId = m006;
shapes = (
{
closed = 1;
nodes = (
(305,355,ls),
(373,355,o),
(432,400,o),
(451,461,cs),
(468,517,o),
(503,538,o),
(544,538,cs),
(593,538,o),
(613,516,o),
(666,468,cs),
(765,381,o),
(845,346,o),
(940,346,cs),
(1118,346,o),
(1232,469,o),
(1264,682,cs),
(1277,770,o),
(1209,855,o),
(1115,855,cs),
(1115,855,ls),
(1047,855,o),
(988,811,o),
(969,749,cs),
(952,693,o),
(916,672,o),
(876,672,cs),
(825,672,o),
(796,702,o),
(750,742,cs),
(644,837,o),
(567,864,o),
(480,864,cs),
(295,864,o),
(185,740,o),
(155,527,cs),
(143,439,o),
(211,355,o),
(305,355,cs)
);
}
);
width = 1420;
}
);
metricWidth = plus;
unicode = 126;
}
{
color = 8;
glyphname = degree;
layers = (
{
layerId = "45635B2B-919A-4B12-975B-2FA0A7CA8B35";
shapes = (
{
closed = 1;
nodes = (
(569,905,o),
(704,1040,o),
(704,1208,cs),
(704,1375,o),
(569,1510,o),
(402,1510,cs),
(234,1510,o),
(98,1375,o),
(98,1208,cs),
(98,1040,o),
(234,905,o),
(402,904,cs)
);
},
{
closed = 1;
nodes = (
(260,951,o),
(146,1065,o),
(146,1208,cs),
(146,1349,o),
(260,1464,o),
(402,1464,cs),
(543,1464,o),
(658,1349,o),
(658,1208,cs),
(658,1065,o),
(543,951,o),
(402,952,cs)
);
}
);
width = 802;
},
{
layerId = "B487E3D2-4ABF-4A2A-A195-DC6AACAFF568";
shapes = (
{
closed = 1;
nodes = (
(618,832,o),
(768,982,o),
(768,1166,cs),
(768,1351,o),
(618,1502,o),
(434,1502,cs),
(249,1502,o),
(98,1351,o),
(98,1166,cs),
(98,982,o),
(249,832,o),
(434,832,cs)
);
},
{
closed = 1;
nodes = (
(329,977,o),
(244,1062,o),
(244,1166,cs),
(244,1271,o),
(329,1356,o),
(434,1356,cs),
(538,1356,o),
(622,1271,o),
(622,1166,cs),
(622,1062,o),
(538,977,o),
(434,978,cs)
);
}
);
width = 866;
},
{
layerId = m005;
shapes = (
{
closed = 1;
nodes = (
(569,905,o),
(704,1040,o),
(704,1208,cs),
(704,1375,o),
(569,1510,o),
(402,1510,cs),
(234,1510,o),
(98,1375,o),
(98,1208,cs),
(98,1040,o),
(234,905,o),
(402,904,cs)
);
},
{
closed = 1;
nodes = (
(260,951,o),
(146,1065,o),
(146,1208,cs),
(146,1349,o),
(260,1464,o),
(402,1464,cs),
(543,1464,o),
(658,1349,o),
(658,1208,cs),
(658,1065,o),
(543,951,o),
(402,952,cs)
);
}
);
width = 802;
},
{
layerId = m01;
shapes = (
{
closed = 1;
nodes = (
(664,753,o),
(830,920,o),
(830,1126,cs),
(830,1332,o),
(664,1498,o),
(458,1498,cs),
(252,1498,o),
(86,1332,o),
(86,1126,cs),
(86,920,o),
(252,753,o),
(458,754,cs)
);
},
{
closed = 1;
nodes = (
(389,1001,o),
(334,1057,o),
(334,1126,cs),
(334,1195,o),
(389,1250,o),
(458,1250,cs),
(527,1250,o),
(584,1195,o),
(584,1126,cs),
(584,1057,o),
(527,1001,o),
(458,1000,cs)
);
}
);
width = 916;
},
{
layerId = m009;
shapes = (
{
closed = 1;
nodes = (
(664,753,o),
(830,920,o),
(830,1126,cs),
(830,1332,o),
(664,1498,o),
(458,1498,cs),
(252,1498,o),
(86,1332,o),
(86,1126,cs),
(86,920,o),
(252,753,o),
(458,754,cs)
);
},
{
closed = 1;
nodes = (
(389,1001,o),
(334,1057,o),
(334,1126,cs),
(334,1195,o),
(389,1250,o),
(458,1250,cs),
(527,1250,o),
(584,1195,o),
(584,1126,cs),
(584,1057,o),
(527,1001,o),
(458,1000,cs)
);
}
);
width = 916;
},
{
layerId = m006;
shapes = (
{
closed = 1;
nodes = (
(664,753,o),
(830,920,o),
(830,1126,cs),
(830,1332,o),
(664,1498,o),
(458,1498,cs),
(252,1498,o),
(86,1332,o),
(86,1126,cs),
(86,920,o),
(252,753,o),
(458,754,cs)
);
},
{
closed = 1;
nodes = (
(389,1001,o),
(334,1057,o),
(334,1126,cs),
(334,1195,o),
(389,1250,o),
(458,1250,cs),
(527,1250,o),
(584,1195,o),
(584,1126,cs),
(584,1057,o),
(527,1001,o),
(458,1000,cs)
);
}
);
width = 916;
},
{
layerId = m007;
shapes = (
{
closed = 1;
nodes = (
(569,905,o),
(704,1040,o),
(704,1208,cs),
(704,1375,o),
(569,1510,o),
(402,1510,cs),
(234,1510,o),
(98,1375,o),
(98,1208,cs),
(98,1040,o),
(234,905,o),
(402,904,cs)
);
},
{
closed = 1;
nodes = (
(260,951,o),
(146,1065,o),
(146,1208,cs),
(146,1349,o),
(260,1464,o),
(402,1464,cs),
(543,1464,o),
(658,1349,o),
(658,1208,cs),
(658,1065,o),
(543,951,o),
(402,952,cs)
);
}
);
width = 802;
},
{
layerId = m004;
shapes = (
{
closed = 1;
nodes = (
(618,832,o),
(768,982,o),
(768,1166,cs),
(768,1351,o),
(618,1502,o),
(434,1502,cs),
(249,1502,o),
(98,1351,o),
(98,1166,cs),
(98,982,o),
(249,832,o),
(434,832,cs)
);
},
{
closed = 1;
nodes = (
(329,977,o),
(244,1062,o),
(244,1166,cs),
(244,1271,o),
(329,1356,o),
(434,1356,cs),
(538,1356,o),
(622,1271,o),
(622,1166,cs),
(622,1062,o),
(538,977,o),
(434,978,cs)
);
}
);
width = 866;
},
{
layerId = m008;
shapes = (
{
closed = 1;
nodes = (
(618,832,o),
(768,982,o),
(768,1166,cs),
(768,1351,o),
(618,1502,o),
(434,1502,cs),
(249,1502,o),
(98,1351,o),
(98,1166,cs),
(98,982,o),
(249,832,o),
(434,832,cs)
);
},
{
closed = 1;
nodes = (
(329,977,o),
(244,1062,o),
(244,1166,cs),
(244,1271,o),
(329,1356,o),
(434,1356,cs),
(538,1356,o),
(622,1271,o),
(622,1166,cs),
(622,1062,o),
(538,977,o),
(434,978,cs)
);
}
);
width = 866;
}
);
metricRight = "=|";
unicode = 176;
}
{
color = 4;
glyphname = quoteleft;
layers = (
{
background = {
shapes = (
{
closed = 1;
nodes = (
(150,1056,l),
(236,1490,l),
(196,1490,l),
(100,1056,l)
);
}
);
};
layerId = "45635B2B-919A-4B12-975B-2FA0A7CA8B35";
shapes = (
{
closed = 1;
nodes = (
(150,1056,ls),
(150,1056,o),
(150,1056,o),
(150,1056,cs),
(236,1490,ls),
(236,1490,o),
(236,1490,o),
(236,1490,cs),
(196,1490,ls),
(196,1490,o),
(196,1490,o),
(196,1490,cs),
(100,1056,ls),
(100,1056,o),
(100,1056,o),
(100,1056,cs)
);
}
);
width = 286;
},
{
background = {
shapes = (
{
closed = 1;
nodes = (
(262,1001,l),
(350,1490,l),
(226,1490,l),
(80,1001,l)
);
}
);
};
layerId = "B487E3D2-4ABF-4A2A-A195-DC6AACAFF568";
shapes = (
{
closed = 1;
nodes = (
(262,1001,ls),
(262,1001,o),
(262,1001,o),
(262,1001,cs),
(350,1490,ls),
(350,1490,o),
(350,1490,o),
(350,1490,cs),
(226,1490,ls),
(226,1490,o),
(226,1490,o),
(226,1490,cs),
(80,1001,ls),
(80,1001,o),
(80,1001,o),
(80,1001,cs)
);
}
);
width = 390;
},
{
background = {
shapes = (
{
closed = 1;
nodes = (
(153,1073,cs),
(232,1469,ls),
(234,1481,o),
(225,1492,o),
(212,1492,cs),
(203,1492,o),
(195,1485,o),
(193,1477,cs),
(106,1083,ls),
(103,1068,o),
(114,1054,o),
(130,1054,cs),
(141,1054,o),
(151,1061,o)
);
}
);
};
layerId = m005;
shapes = (
{
closed = 1;
nodes = (
(130,1054,ls),
(141,1054,o),
(151,1061,o),
(153,1073,cs),
(232,1469,ls),
(234,1481,o),
(225,1492,o),
(212,1492,cs),
(212,1492,ls),
(203,1492,o),
(195,1485,o),
(193,1477,cs),
(106,1083,ls),
(103,1068,o),
(114,1054,o),
(130,1054,cs)
);
}
);
width = 285;
},
{
background = {
shapes = (
{
closed = 1;
nodes = (
(434,880,l),
(495,1490,l),
(220,1490,l),
(64,880,l)
);
}
);
};
layerId = m01;
shapes = (
{
closed = 1;
nodes = (
(434,880,ls),
(434,880,o),
(434,880,o),
(434,880,cs),
(495,1490,ls),
(495,1490,o),
(495,1490,o),
(495,1490,cs),
(220,1490,ls),
(220,1490,o),
(220,1490,o),
(220,1490,cs),
(64,880,ls),
(64,880,o),
(64,880,o),
(64,880,cs)
);
}
);
width = 527;
},
{
layerId = m009;
shapes = (
{
closed = 1;
nodes = (
(370,880,ls),
(408,880,o),
(436,906,o),
(440,944,cs),
(487,1407,ls),
(492,1455,o),
(458,1490,o),
(411,1490,cs),
(273,1490,ls),
(241,1490,o),
(215,1471,o),
(207,1439,cs),
(90,980,ls),
(76,925,o),
(111,880,o),
(167,880,cs)
);
}
);
width = 531;
},
{
background = {
shapes = (
{
closed = 1;
nodes = (
(447,1013,cs),
(481,1351,ls),
(489,1436,o),
(423,1510,o),
(337,1510,cs),
(270,1510,o),
(213,1465,o),
(197,1402,cs),
(113,1072,ls),
(87,964,o),
(166,860,o),
(278,860,cs),
(366,860,o),
(439,927,o)
);
}
);
};
layerId = m006;
shapes = (
{
closed = 1;
nodes = (
(278,860,ls),
(366,860,o),
(438,927,o),
(447,1013,cs),
(481,1351,ls),
(490,1436,o),
(423,1510,o),
(337,1510,cs),
(337,1510,ls),
(270,1510,o),
(213,1465,o),
(197,1402,cs),
(113,1072,ls),
(86,965,o),
(166,860,o),
(278,860,cs)
);
}
);
width = 536;
},
{
layerId = m007;
shapes = (
{
closed = 1;
nodes = (
(138,1056,ls),
(145,1056,o),
(151,1061,o),
(152,1068,cs),
(232,1470,ls),
(234,1480,o),
(227,1490,o),
(216,1490,cs),
(207,1490,ls),
(200,1490,o),
(195,1485,o),
(194,1479,cs),
(104,1076,ls),
(102,1065,o),
(110,1056,o),
(121,1056,cs)
);
}
);
width = 284;
},
{
background = {
shapes = (
{
closed = 1;
nodes = (
(273,1061,cs),
(338,1424,ls),
(344,1460,o),
(318,1499,o),
(276,1499,cs),
(247,1499,o),
(223,1481,o),
(215,1454,cs),
(110,1100,ls),
(98,1047,o),
(128,992,o),
(190,992,cs),
(231,992,o),
(266,1021,o)
);
}
);
};
layerId = m004;
shapes = (
{
closed = 1;
nodes = (
(190,992,ls),
(231,992,o),
(266,1021,o),
(273,1061,cs),
(338,1424,ls),
(344,1460,o),
(318,1499,o),
(276,1499,cs),
(276,1499,ls),
(247,1499,o),
(223,1481,o),
(215,1454,cs),
(110,1100,ls),
(95,1048,o),
(128,992,o),
(190,992,cs)
);
}
);
width = 392;
},
{
layerId = m008;
shapes = (
{
closed = 1;
nodes = (
(236,1001,ls),
(251,1001,o),
(264,1010,o),
(267,1026,cs),
(343,1449,ls),
(347,1471,o),
(332,1490,o),
(309,1490,cs),
(248,1490,ls),
(235,1490,o),
(224,1483,o),
(220,1469,cs),
(94,1047,ls),
(87,1022,o),
(103,1001,o),
(129,1001,cs)
);
}
);
width = 390;
}
);
metricRight = "=|/2";
unicode = 8216;
}
{
color = 4;
glyphname = quoteright;
layers = (
{
background = {
shapes = (
{
closed = 1;
nodes = (
(140,1056,l),
(236,1490,l),
(186,1490,l),
(100,1056,l)
);
}
);
};
layerId = "45635B2B-919A-4B12-975B-2FA0A7CA8B35";
shapes = (
{
closed = 1;
nodes = (
(140,1056,ls),
(140,1056,o),
(140,1056,o),
(140,1056,cs),
(236,1490,ls),
(236,1490,o),
(236,1490,o),
(236,1490,cs),
(186,1490,ls),
(186,1490,o),
(186,1490,o),
(186,1490,cs),
(100,1056,ls),
(100,1056,o),
(100,1056,o),
(100,1056,cs)
);
}
);
width = 286;
},
{
background = {
shapes = (
{
closed = 1;
nodes = (
(204,1001,l),
(350,1490,l),
(168,1490,l),
(80,1001,l)
);
}
);
};
layerId = "B487E3D2-4ABF-4A2A-A195-DC6AACAFF568";
shapes = (
{
closed = 1;
nodes = (
(204,1001,ls),
(204,1001,o),
(204,1001,o),
(204,1001,cs),
(350,1490,ls),
(350,1490,o),
(350,1490,o),
(350,1490,cs),
(168,1490,ls),
(168,1490,o),
(168,1490,o),
(168,1490,cs),
(80,1001,ls),
(80,1001,o),
(80,1001,o),
(80,1001,cs)
);
}
);
width = 390;
},
{
background = {
shapes = (
{
closed = 1;
nodes = (
(143,1069,cs),
(230,1463,ls),
(233,1478,o),
(222,1492,o),
(206,1492,cs),
(195,1492,o),
(185,1485,o),
(183,1473,cs),
(104,1077,ls),
(102,1065,o),
(111,1054,o),
(124,1054,cs),
(133,1054,o),
(141,1061,o)
);
}
);
};
layerId = m005;
shapes = (
{
closed = 1;
nodes = (
(124,1054,ls),
(133,1054,o),
(141,1061,o),
(143,1069,cs),
(230,1463,ls),
(233,1478,o),
(222,1492,o),
(206,1492,cs),
(206,1492,ls),
(195,1492,o),
(185,1485,o),
(183,1473,cs),
(104,1077,ls),
(102,1065,o),
(111,1054,o),
(124,1054,cs)
);
}
);
width = 283;
},
{
background = {
shapes = (
{
closed = 1;
nodes = (
(339,880,l),
(495,1490,l),
(125,1490,l),
(64,880,l)
);
}
);
};
layerId = m01;
shapes = (
{
closed = 1;
nodes = (
(339,880,ls),
(339,880,o),
(339,880,o),
(339,880,cs),
(495,1490,ls),
(495,1490,o),
(495,1490,o),
(495,1490,cs),
(125,1490,ls),
(125,1490,o),
(125,1490,o),
(125,1490,cs),
(64,880,ls),
(64,880,o),
(64,880,o),
(64,880,cs)
);
}
);
width = 527;
},
{
layerId = m009;
shapes = (
{
closed = 1;
nodes = (
(286,880,ls),
(318,880,o),
(344,899,o),
(352,931,cs),
(469,1390,ls),
(483,1445,o),
(448,1490,o),
(392,1490,cs),
(189,1490,ls),
(151,1490,o),
(123,1464,o),
(119,1426,cs),
(72,963,ls),
(67,915,o),
(101,880,o),
(148,880,cs)
);
}
);
width = 516;
},
{
background = {
shapes = (
{
closed = 1;
nodes = (
(362,968,cs),
(446,1298,ls),
(472,1415,o),
(386,1510,o),
(281,1510,cs),
(193,1510,o),
(120,1443,o),
(112,1357,cs),
(78,1019,ls),
(70,934,o),
(136,860,o),
(222,860,cs),
(289,860,o),
(346,905,o)
);
}
);
};
layerId = m006;
shapes = (
{
closed = 1;
nodes = (
(222,860,ls),
(289,860,o),
(346,904,o),
(362,968,cs),
(446,1298,ls),
(476,1414,o),
(386,1510,o),
(281,1510,cs),
(281,1510,ls),
(193,1510,o),
(121,1443,o),
(112,1357,cs),
(78,1019,ls),
(69,934,o),
(136,860,o),
(222,860,cs)
);
}
);
width = 506;
},
{
layerId = m007;
shapes = (
{
closed = 1;
nodes = (
(129,1056,ls),
(136,1056,o),
(141,1061,o),
(142,1067,cs),
(232,1470,ls),
(234,1481,o),
(226,1490,o),
(215,1490,cs),
(198,1490,ls),
(191,1490,o),
(185,1485,o),
(184,1478,cs),
(104,1076,ls),
(102,1066,o),
(109,1056,o),
(120,1056,cs)
);
}
);
width = 284;
},
{
background = {
shapes = (
{
closed = 1;
nodes = (
(215,1037,cs),
(320,1391,ls),
(332,1444,o),
(302,1499,o),
(240,1499,cs),
(199,1499,o),
(164,1470,o),
(157,1430,cs),
(92,1067,ls),
(86,1031,o),
(112,992,o),
(154,992,cs),
(183,992,o),
(207,1010,o)
);
}
);
};
layerId = m004;
shapes = (
{
closed = 1;
nodes = (
(154,992,ls),
(183,992,o),
(207,1010,o),
(215,1037,cs),
(320,1391,ls),
(335,1443,o),
(302,1499,o),
(240,1499,cs),
(240,1499,ls),
(199,1499,o),
(164,1470,o),
(157,1430,cs),
(92,1067,ls),
(86,1031,o),
(112,992,o),
(154,992,cs)
);
}
);
width = 377;
},
{
layerId = m008;
shapes = (
{
closed = 1;
nodes = (
(182,1001,ls),
(195,1001,o),
(206,1008,o),
(210,1022,cs),
(336,1444,ls),
(343,1469,o),
(327,1490,o),
(301,1490,cs),
(194,1490,ls),
(179,1490,o),
(166,1481,o),
(163,1465,cs),
(87,1042,ls),
(83,1020,o),
(98,1001,o),
(121,1001,cs)
);
}
);
width = 384;
}
);
metricLeft = "=qouteleft";
metricRight = "=quoteleft";
unicode = 8217;
}
{
color = 4;
glyphname = fraction;
layers = (
{
background = {
shapes = (
{
closed = 1;
nodes = (
(-346,0,l),
(676,1490,l),
(620,1490,l),
(-400,0,l)
);
}
);
};
layerId = "45635B2B-919A-4B12-975B-2FA0A7CA8B35";
shapes = (
{
closed = 1;
nodes = (
(-346,0,ls),
(-346,0,o),
(-346,0,o),
(-346,0,cs),
(676,1490,ls),
(676,1490,o),
(676,1490,o),
(676,1490,cs),
(620,1490,ls),
(620,1490,o),
(620,1490,o),
(620,1490,cs),
(-400,0,ls),
(-400,0,o),
(-400,0,o),
(-400,0,cs)
);
}
);
width = 276;
},
{
background = {
shapes = (
{
closed = 1;
nodes = (
(-296,0,l),
(728,1490,l),
(554,1490,l),
(-470,0,l)
);
}
);
};
layerId = "B487E3D2-4ABF-4A2A-A195-DC6AACAFF568";
shapes = (
{
closed = 1;
nodes = (
(-296,0,ls),
(-296,0,o),
(-296,0,o),
(-296,0,cs),
(728,1490,ls),
(728,1490,o),
(728,1490,o),
(728,1490,cs),
(554,1490,ls),
(554,1490,o),
(554,1490,o),
(554,1490,cs),
(-470,0,ls),
(-470,0,o),
(-470,0,o),
(-470,0,cs)
);
}
);
width = 258;
},
{
background = {
shapes = (
{
closed = 1;
nodes = (
(-357,0,cs),
(-348,0,o),
(-342,4,o),
(-335,15,cs),
(648,1449,ls),
(664,1472,o),
(649,1490,o),
(636,1490,cs),
(625,1490,o),
(616,1485,o),
(609,1475,cs),
(-372,40,ls),
(-384,23,o),
(-376,0,o)
);
}
);
};
layerId = m005;
shapes = (
{
closed = 1;
nodes = (
(-357,0,ls),
(-348,0,o),
(-342,4,o),
(-335,15,cs),
(648,1449,ls),
(664,1472,o),
(649,1490,o),
(636,1490,cs),
(636,1490,ls),
(625,1490,o),
(616,1485,o),
(609,1475,cs),
(-372,40,ls),
(-384,23,o),
(-376,0,o),
(-357,0,cs)
);
}
);
width = 277;
},
{
background = {
shapes = (
{
closed = 1;
nodes = (
(-144,0,l),
(880,1490,l),
(624,1490,l),
(-400,0,l)
);
}
);
};
layerId = m01;
shapes = (
{
closed = 1;
nodes = (
(-144,0,ls),
(-144,0,o),
(-144,0,o),
(-144,0,cs),
(880,1490,ls),
(880,1490,o),
(880,1490,o),
(880,1490,cs),
(624,1490,ls),
(624,1490,o),
(624,1490,o),
(624,1490,cs),
(-400,0,ls),
(-400,0,o),
(-400,0,o),
(-400,0,cs)
);
}
);
width = 480;
},
{
layerId = m009;
shapes = (
{
closed = 1;
nodes = (
(-173,0,ls),
(-155,0,o),
(-137,9,o),
(-127,24,cs),
(791,1360,ls),
(832,1420,o),
(795,1490,o),
(722,1490,cs),
(653,1490,ls),
(635,1490,o),
(617,1481,o),
(607,1466,cs),
(-311,130,ls),
(-352,70,o),
(-315,0,o),
(-242,0,cs)
);
}
);
width = 480;
},
{
background = {
shapes = (
{
closed = 1;
nodes = (
(-126,26,cs),
(780,1345,ls),
(827,1420,o),
(778,1510,o),
(693,1510,cs),
(657,1510,o),
(625,1491,o),
(606,1464,cs),
(-300,145,ls),
(-350,65,o),
(-292,-20,o),
(-213,-20,cs),
(-177,-20,o),
(-145,-1,o)
);
}
);
};
layerId = m006;
shapes = (
{
closed = 1;
nodes = (
(-213,-20,ls),
(-177,-20,o),
(-144,-1,o),
(-126,26,cs),
(780,1345,ls),
(830,1418,o),
(778,1510,o),
(693,1510,cs),
(693,1510,ls),
(657,1510,o),
(625,1491,o),
(606,1464,cs),
(-300,145,ls),
(-354,66,o),
(-292,-20,o),
(-213,-20,cs)
);
}
);
width = 480;
},
{
layerId = m007;
shapes = (
{
closed = 1;
nodes = (
(-353,0,ls),
(-349,0,o),
(-344,2,o),
(-342,6,cs),
(655,1460,ls),
(665,1475,o),
(656,1490,o),
(639,1490,cs),
(627,1490,ls),
(623,1490,o),
(618,1488,o),
(616,1484,cs),
(-379,30,ls),
(-388,16,o),
(-385,0,o),
(-373,0,cs)
);
}
);
width = 275;
},
{
background = {
shapes = (
{
closed = 1;
nodes = (
(-281,22,cs),
(657,1387,ls),
(689,1432,o),
(658,1499,o),
(598,1499,cs),
(573,1499,o),
(552,1486,o),
(539,1468,cs),
(-399,103,ls),
(-431,57,o),
(-400,-9,o),
(-340,-9,cs),
(-315,-9,o),
(-294,4,o)
);
}
);
};
layerId = m004;
shapes = (
{
closed = 1;
nodes = (
(-340,-9,ls),
(-315,-9,o),
(-294,4,o),
(-281,22,cs),
(657,1387,ls),
(688,1432,o),
(658,1499,o),
(599,1499,cs),
(599,1499,ls),
(573,1499,o),
(552,1486,o),
(539,1468,cs),
(-399,103,ls),
(-431,57,o),
(-400,-9,o),
(-340,-9,cs)
);
}
);
width = 257;
},
{
layerId = m008;
shapes = (
{
closed = 1;
nodes = (
(-311,0,ls),
(-302,0,o),
(-293,4,o),
(-288,12,cs),
(683,1425,ls),
(704,1456,o),
(685,1490,o),
(649,1490,cs),
(569,1490,ls),
(560,1490,o),
(551,1486,o),
(546,1478,cs),
(-425,65,ls),
(-446,34,o),
(-427,0,o),
(-391,0,cs)
);
}
);
width = 258;
}
);
metricRight = "=|";
unicode = 8260;
}
{
export = 0;
glyphname = _part.strline;
layers = (
{
layerId = "45635B2B-919A-4B12-975B-2FA0A7CA8B35";
partSelection = {
Width = 2;
};
shapes = (
{
closed = 1;
nodes = (
(0,605,ls),
(0,605,o),
(0,605,o),
(0,605,cs),
(0,559,ls),
(0,559,o),
(0,559,o),
(0,559,cs),
(2048,559,ls),
(2048,559,o),
(2048,559,o),
(2048,559,cs),
(2048,605,ls),
(2048,605,o),
(2048,605,o),
(2048,605,cs)
);
}
);
width = 2048;
},
{
background = {
shapes = (
{
closed = 1;
nodes = (
(178,664,l),
(178,500,l),
(1108,500,l),
(1108,664,l)
);
}
);
};
layerId = "B487E3D2-4ABF-4A2A-A195-DC6AACAFF568";
partSelection = {
Width = 2;
};
shapes = (
{
closed = 1;
nodes = (
(0,664,ls),
(0,664,o),
(0,664,o),
(0,664,cs),
(0,500,ls),
(0,500,o),
(0,500,o),
(0,500,cs),
(2048,500,ls),
(2048,500,o),
(2048,500,o),
(2048,500,cs),
(2048,664,ls),
(2048,664,o),
(2048,664,o),
(2048,664,cs)
);
}
);
width = 2048;
},
{
background = {
shapes = (
{
closed = 1;
nodes = (
(156,768,l),
(156,442,l),
(1232,442,l),
(1232,768,l)
);
}
);
};
layerId = m01;
partSelection = {
Width = 2;
};
shapes = (
{
closed = 1;
nodes = (
(0,768,ls),
(0,768,o),
(0,768,o),
(0,768,cs),
(0,442,ls),
(0,442,o),
(0,442,o),
(0,442,cs),
(2048,442,ls),
(2048,442,o),
(2048,442,o),
(2048,442,cs),
(2048,768,ls),
(2048,768,o),
(2048,768,o),
(2048,768,cs)
);
}
);
width = 2048;
},
{
background = {
shapes = (
{
closed = 1;
nodes = (
(187,605,ls),
(175,605,o),
(164,595,o),
(164,582,cs),
(164,569,o),
(175,559,o),
(187,559,cs),
(989,559,ls),
(1001,559,o),
(1012,569,o),
(1012,582,cs),
(1012,595,o),
(1001,605,o),
(989,605,cs)
);
}
);
};
layerId = m005;
partSelection = {
Width = 2;
};
shapes = (
{
closed = 1;
nodes = (
(21,605,ls),
(9,605,o),
(-2,595,o),
(-2,582,cs),
(-2,582,ls),
(-2,569,o),
(9,559,o),
(21,559,cs),
(2027,559,ls),
(2039,559,o),
(2050,569,o),
(2050,582,cs),
(2050,582,ls),
(2050,595,o),
(2039,605,o),
(2027,605,cs)
);
}
);
width = 2048;
},
{
background = {
shapes = (
{
closed = 1;
nodes = (
(251,664,ls),
(206,664,o),
(169,627,o),
(169,582,cs),
(169,537,o),
(206,500,o),
(251,500,cs),
(1035,500,ls),
(1080,500,o),
(1117,537,o),
(1117,582,cs),
(1117,627,o),
(1080,664,o),
(1035,664,cs)
);
}
);
};
layerId = m004;
partSelection = {
Width = 2;
};
shapes = (
{
closed = 1;
nodes = (
(50,664,ls),
(5,664,o),
(-32,627,o),
(-32,582,cs),
(-32,582,ls),
(-32,537,o),
(5,500,o),
(50,500,cs),
(1998,500,ls),
(2043,500,o),
(2080,537,o),
(2080,582,cs),
(2080,582,ls),
(2080,627,o),
(2043,664,o),
(1998,664,cs)
);
}
);
width = 2048;
},
{
background = {
shapes = (
{
closed = 1;
nodes = (
(299,768,ls),
(209,768,o),
(136,695,o),
(136,605,cs),
(136,515,o),
(209,442,o),
(299,442,cs),
(1089,442,ls),
(1179,442,o),
(1252,515,o),
(1252,605,cs),
(1252,695,o),
(1179,768,o),
(1089,768,cs)
);
}
);
};
layerId = m006;
partSelection = {
Width = 2;
};
shapes = (
{
closed = 1;
nodes = (
(83,768,ls),
(-7,768,o),
(-80,695,o),
(-80,605,cs),
(-80,605,ls),
(-80,515,o),
(-7,442,o),
(83,442,cs),
(1965,442,ls),
(2055,442,o),
(2128,515,o),
(2128,605,cs),
(2128,605,ls),
(2128,695,o),
(2055,768,o),
(1965,768,cs)
);
}
);
width = 2048;
},
{
layerId = m007;
partSelection = {
Width = 2;
};
shapes = (
{
closed = 1;
nodes = (
(13,605,ls),
(6,605,o),
(0,599,o),
(0,592,cs),
(0,572,ls),
(0,565,o),
(6,559,o),
(13,559,cs),
(2035,559,ls),
(2042,559,o),
(2048,565,o),
(2048,572,cs),
(2048,592,ls),
(2048,599,o),
(2042,605,o),
(2035,605,cs)
);
}
);
width = 2048;
},
{
background = {
shapes = (
{
closed = 1;
nodes = (
(178,664,l),
(178,500,l),
(1108,500,l),
(1108,664,l)
);
}
);
};
layerId = m008;
partSelection = {
Width = 2;
};
shapes = (
{
closed = 1;
nodes = (
(33,664,ls),
(14,664,o),
(0,650,o),
(0,631,cs),
(0,533,ls),
(0,514,o),
(14,500,o),
(33,500,cs),
(2015,500,ls),
(2034,500,o),
(2048,514,o),
(2048,533,cs),
(2048,631,ls),
(2048,650,o),
(2034,664,o),
(2015,664,cs)
);
}
);
width = 2048;
},
{
background = {
shapes = (
{
closed = 1;
nodes = (
(156,768,l),
(156,442,l),
(1232,442,l),
(1232,768,l)
);
}
);
};
layerId = m009;
partSelection = {
Width = 2;
};
shapes = (
{
closed = 1;
nodes = (
(73,768,ls),
(31,768,o),
(0,737,o),
(0,695,cs),
(0,515,ls),
(0,473,o),
(31,442,o),
(73,442,cs),
(1975,442,ls),
(2017,442,o),
(2048,473,o),
(2048,515,cs),
(2048,695,ls),
(2048,737,o),
(2017,768,o),
(1975,768,cs)
);
}
);
width = 2048;
},
{
associatedMasterId = "45635B2B-919A-4B12-975B-2FA0A7CA8B35";
layerId = "ACF2A401-DD08-489A-9E31-40DBF216DC84";
name = "L Short";
partSelection = {
Width = 1;
};
shapes = (
{
closed = 1;
nodes = (
(768,605,ls),
(768,605,o),
(768,605,o),
(768,605,cs),
(768,559,ls),
(768,559,o),
(768,559,o),
(768,559,cs),
(1280,559,ls),
(1280,559,o),
(1280,559,o),
(1280,559,cs),
(1280,605,ls),
(1280,605,o),
(1280,605,o),
(1280,605,cs)
);
}
);
width = 2048;
},
{
associatedMasterId = "B487E3D2-4ABF-4A2A-A195-DC6AACAFF568";
background = {
shapes = (
{
closed = 1;
nodes = (
(178,664,l),
(178,500,l),
(1108,500,l),
(1108,664,l)
);
}
);
};
layerId = "2960B400-90D4-4516-8A1C-955F2D782958";
name = "R Short";
partSelection = {
Width = 1;
};
shapes = (
{
closed = 1;
nodes = (
(768,664,ls),
(768,664,o),
(768,664,o),
(768,664,cs),
(768,500,ls),
(768,500,o),
(768,500,o),
(768,500,cs),
(1280,500,ls),
(1280,500,o),
(1280,500,o),
(1280,500,cs),
(1280,664,ls),
(1280,664,o),
(1280,664,o),
(1280,664,cs)
);
}
);
width = 2048;
},
{
associatedMasterId = m01;
background = {
shapes = (
{
closed = 1;
nodes = (
(156,768,l),
(156,442,l),
(1232,442,l),
(1232,768,l)
);
}
);
};
layerId = "60761E33-1650-409D-8005-0AC98518294D";
name = "B Short";
partSelection = {
Width = 1;
};
shapes = (
{
closed = 1;
nodes = (
(768,768,ls),
(768,768,o),
(768,768,o),
(768,768,cs),
(768,442,ls),
(768,442,o),
(768,442,o),
(768,442,cs),
(1280,442,ls),
(1280,442,o),
(1280,442,o),
(1280,442,cs),
(1280,768,ls),
(1280,768,o),
(1280,768,o),
(1280,768,cs)
);
}
);
width = 2048;
},
{
associatedMasterId = m007;
layerId = "A16C722E-A0E5-4D93-8B8D-0075AEA0920A";
name = "LS Short";
partSelection = {
Width = 1;
};
shapes = (
{
closed = 1;
nodes = (
(781,605,ls),
(774,605,o),
(768,599,o),
(768,592,cs),
(768,572,ls),
(768,565,o),
(774,559,o),
(781,559,cs),
(1267,559,ls),
(1274,559,o),
(1280,565,o),
(1280,572,cs),
(1280,592,ls),
(1280,599,o),
(1274,605,o),
(1267,605,cs)
);
}
);
width = 2048;
},
{
associatedMasterId = m008;
background = {
shapes = (
{
closed = 1;
nodes = (
(178,664,l),
(178,500,l),
(1108,500,l),
(1108,664,l)
);
}
);
};
layerId = "64C1DFD4-D40C-429E-9369-3011CA4B264F";
name = "RS Short";
partSelection = {
Width = 1;
};
shapes = (
{
closed = 1;
nodes = (
(801,664,ls),
(782,664,o),
(768,650,o),
(768,631,cs),
(768,533,ls),
(768,514,o),
(782,500,o),
(801,500,cs),
(1247,500,ls),
(1266,500,o),
(1280,514,o),
(1280,533,cs),
(1280,631,ls),
(1280,650,o),
(1266,664,o),
(1247,664,cs)
);
}
);
width = 2048;
},
{
associatedMasterId = m009;
background = {
shapes = (
{
closed = 1;
nodes = (
(156,768,l),
(156,442,l),
(1232,442,l),
(1232,768,l)
);
}
);
};
layerId = "5C7676FC-DF52-4DF1-BD4E-D2A8FF568AA1";
name = "BS Short";
partSelection = {
Width = 1;
};
shapes = (
{
closed = 1;
nodes = (
(841,768,ls),
(799,768,o),
(768,737,o),
(768,695,cs),
(768,515,ls),
(768,473,o),
(799,442,o),
(841,442,cs),
(1207,442,ls),
(1249,442,o),
(1280,473,o),
(1280,515,cs),
(1280,695,ls),
(1280,737,o),
(1249,768,o),
(1207,768,cs)
);
}
);
width = 2048;
},
{
associatedMasterId = m005;
background = {
shapes = (
{
closed = 1;
nodes = (
(187,605,ls),
(175,605,o),
(164,595,o),
(164,582,cs),
(164,569,o),
(175,559,o),
(187,559,cs),
(989,559,ls),
(1001,559,o),
(1012,569,o),
(1012,582,cs),
(1012,595,o),
(1001,605,o),
(989,605,cs)
);
}
);
};
layerId = "19C87494-81DD-462B-B8B3-AF12663C09AB";
name = "LR Short";
partSelection = {
Width = 1;
};
shapes = (
{
closed = 1;
nodes = (
(789,605,ls),
(777,605,o),
(766,595,o),
(766,582,cs),
(766,582,ls),
(766,569,o),
(777,559,o),
(789,559,cs),
(1259,559,ls),
(1271,559,o),
(1282,569,o),
(1282,582,cs),
(1282,582,ls),
(1282,595,o),
(1271,605,o),
(1259,605,cs)
);
}
);
width = 2048;
},
{
associatedMasterId = m004;
background = {
shapes = (
{
closed = 1;
nodes = (
(251,664,ls),
(206,664,o),
(169,627,o),
(169,582,cs),
(169,537,o),
(206,500,o),
(251,500,cs),
(1035,500,ls),
(1080,500,o),
(1117,537,o),
(1117,582,cs),
(1117,627,o),
(1080,664,o),
(1035,664,cs)
);
}
);
};
layerId = "FBE60D09-14F3-4314-A623-247E83AD8F0F";
name = "RR Short";
partSelection = {
Width = 1;
};
shapes = (
{
closed = 1;
nodes = (
(818,664,ls),
(773,664,o),
(736,627,o),
(736,582,cs),
(736,582,ls),
(736,537,o),
(773,500,o),
(818,500,cs),
(1230,500,ls),
(1275,500,o),
(1312,537,o),
(1312,582,cs),
(1312,582,ls),
(1312,627,o),
(1275,664,o),
(1230,664,cs)
);
}
);
width = 2048;
},
{
associatedMasterId = m006;
background = {
shapes = (
{
closed = 1;
nodes = (
(299,768,ls),
(209,768,o),
(136,695,o),
(136,605,cs),
(136,515,o),
(209,442,o),
(299,442,cs),
(1089,442,ls),
(1179,442,o),
(1252,515,o),
(1252,605,cs),
(1252,695,o),
(1179,768,o),
(1089,768,cs)
);
}
);
};
layerId = "22930BE1-540B-49C3-A398-38EA99033425";
name = "BR Short";
partSelection = {
Width = 1;
};
shapes = (
{
closed = 1;
nodes = (
(851,768,ls),
(761,768,o),
(688,695,o),
(688,605,cs),
(688,605,ls),
(688,515,o),
(761,442,o),
(851,442,cs),
(1197,442,ls),
(1287,442,o),
(1360,515,o),
(1360,605,cs),
(1360,605,ls),
(1360,695,o),
(1287,768,o),
(1197,768,cs)
);
}
);
width = 2048;
}
);
metricRight = "=|";
partsSettings = (
{
bottomValue = 512;
name = Width;
topValue = 2048;
}
);
}
{
export = 0;
glyphname = _part.zeroslash;
layers = (
{
anchors = (
{
name = _center;
pos = (541,745);
}
);
background = {
shapes = (
{
closed = 1;
nodes = (
(849,1311,l),
(817,1349,l),
(233,183,l),
(262,138,l)
);
}
);
};
layerId = "45635B2B-919A-4B12-975B-2FA0A7CA8B35";
shapes = (
{
closed = 1;
nodes = (
(859,1331,l),
(827,1369,l),
(223,163,l),
(252,118,l)
);
}
);
width = 1082;
},
{
anchors = (
{
name = _center;
pos = (628,745);
}
);
layerId = "B487E3D2-4ABF-4A2A-A195-DC6AACAFF568";
shapes = (
{
closed = 1;
nodes = (
(973,1264,l),
(831,1334,l),
(283,226,l),
(425,156,l)
);
}
);
width = 1256;
},
{
anchors = (
{
name = _center;
pos = (698,745);
}
);
layerId = m01;
shapes = (
{
closed = 1;
nodes = (
(1038,1266,l),
(906,1332,l),
(358,224,l),
(490,158,l)
);
}
);
width = 1396;
},
{
anchors = (
{
name = _center;
pos = (541,745);
}
);
layerId = m005;
shapes = (
{
closed = 1;
nodes = (
(859,1331,l),
(827,1369,l),
(223,163,l),
(252,118,l)
);
}
);
width = 1082;
},
{
anchors = (
{
name = _center;
pos = (628,745);
}
);
layerId = m004;
shapes = (
{
closed = 1;
nodes = (
(973,1264,l),
(831,1334,l),
(283,226,l),
(425,156,l)
);
}
);
width = 1256;
},
{
anchors = (
{
name = _center;
pos = (698,745);
}
);
layerId = m006;
shapes = (
{
closed = 1;
nodes = (
(1038,1266,l),
(906,1332,l),
(358,224,l),
(490,158,l)
);
}
);
width = 1396;
},
{
anchors = (
{
name = _center;
pos = (541,745);
}
);
layerId = m007;
shapes = (
{
closed = 1;
nodes = (
(859,1331,l),
(827,1369,l),
(223,163,l),
(252,118,l)
);
}
);
width = 1082;
},
{
anchors = (
{
name = _center;
pos = (628,745);
}
);
layerId = m008;
shapes = (
{
closed = 1;
nodes = (
(973,1264,l),
(831,1334,l),
(283,226,l),
(425,156,l)
);
}
);
width = 1256;
},
{
anchors = (
{
name = _center;
pos = (698,745);
}
);
layerId = m009;
shapes = (
{
closed = 1;
nodes = (
(1038,1266,l),
(906,1332,l),
(358,224,l),
(490,158,l)
);
}
);
width = 1396;
}
);
metricRight = "=|";
}
{
export = 0;
glyphname = _zero_percent;
layers = (
{
layerId = "45635B2B-919A-4B12-975B-2FA0A7CA8B35";
shapes = (
{
closed = 1;
nodes = (
(479,878,o),
(593,1007,o),
(593,1191,cs),
(593,1193,ls),
(593,1377,o),
(479,1506,o),
(317,1506,cs),
(154,1506,o),
(40,1377,o),
(40,1193,cs),
(40,1191,ls),
(40,1007,o),
(154,878,o),
(317,878,cs)
);
},
{
closed = 1;
nodes = (
(180,924,o),
(86,1034,o),
(86,1191,cs),
(86,1193,ls),
(86,1350,o),
(180,1460,o),
(317,1460,cs),
(453,1460,o),
(547,1350,o),
(547,1193,cs),
(547,1191,ls),
(547,1034,o),
(453,924,o),
(317,924,cs)
);
}
);
width = 633;
},
{
layerId = "B487E3D2-4ABF-4A2A-A195-DC6AACAFF568";
shapes = (
{
closed = 1;
nodes = (
(529,804,o),
(650,950,o),
(650,1144,cs),
(650,1174,ls),
(650,1368,o),
(529,1514,o),
(342,1514,cs),
(154,1514,o),
(32,1368,o),
(32,1174,cs),
(32,1144,ls),
(32,950,o),
(154,804,o),
(342,804,cs)
);
},
{
closed = 1;
nodes = (
(245,934,o),
(184,1013,o),
(184,1144,cs),
(184,1174,ls),
(184,1305,o),
(245,1384,o),
(342,1384,cs),
(438,1384,o),
(498,1305,o),
(498,1174,cs),
(498,1144,ls),
(498,1013,o),
(438,934,o),
(342,934,cs)
);
}
);
width = 682;
},
{
layerId = m005;
shapes = (
{
closed = 1;
nodes = (
(479,878,o),
(593,1007,o),
(593,1191,cs),
(593,1193,ls),
(593,1377,o),
(479,1506,o),
(317,1506,cs),
(154,1506,o),
(40,1377,o),
(40,1193,cs),
(40,1191,ls),
(40,1007,o),
(154,878,o),
(317,878,cs)
);
},
{
closed = 1;
nodes = (
(180,924,o),
(86,1034,o),
(86,1191,cs),
(86,1193,ls),
(86,1350,o),
(180,1460,o),
(317,1460,cs),
(453,1460,o),
(547,1350,o),
(547,1193,cs),
(547,1191,ls),
(547,1034,o),
(453,924,o),
(317,924,cs)
);
}
);
width = 633;
},
{
layerId = m01;
shapes = (
{
closed = 1;
nodes = (
(617,702,o),
(778,852,o),
(778,1092,cs),
(778,1122,ls),
(778,1363,o),
(617,1514,o),
(400,1514,cs),
(184,1514,o),
(24,1363,o),
(24,1122,cs),
(24,1092,ls),
(24,852,o),
(184,702,o),
(400,702,cs)
);
},
{
closed = 1;
nodes = (
(333,930,o),
(288,979,o),
(288,1092,cs),
(288,1122,ls),
(288,1237,o),
(333,1288,o),
(400,1288,cs),
(468,1288,o),
(514,1237,o),
(514,1122,cs),
(514,1092,ls),
(514,979,o),
(468,930,o),
(400,930,cs)
);
}
);
width = 802;
},
{
layerId = m009;
shapes = (
{
closed = 1;
nodes = (
(617,702,o),
(778,852,o),
(778,1092,cs),
(778,1122,ls),
(778,1363,o),
(617,1514,o),
(400,1514,cs),
(184,1514,o),
(24,1363,o),
(24,1122,cs),
(24,1092,ls),
(24,852,o),
(184,702,o),
(400,702,cs)
);
},
{
closed = 1;
nodes = (
(333,930,o),
(288,979,o),
(288,1092,cs),
(288,1122,ls),
(288,1237,o),
(333,1288,o),
(400,1288,cs),
(468,1288,o),
(514,1237,o),
(514,1122,cs),
(514,1092,ls),
(514,979,o),
(468,930,o),
(400,930,cs)
);
}
);
width = 802;
},
{
layerId = m006;
shapes = (
{
closed = 1;
nodes = (
(617,702,o),
(778,852,o),
(778,1092,cs),
(778,1122,ls),
(778,1363,o),
(617,1514,o),
(400,1514,cs),
(184,1514,o),
(24,1363,o),
(24,1122,cs),
(24,1092,ls),
(24,852,o),
(184,702,o),
(400,702,cs)
);
},
{
closed = 1;
nodes = (
(333,930,o),
(288,979,o),
(288,1092,cs),
(288,1122,ls),
(288,1237,o),
(333,1288,o),
(400,1288,cs),
(468,1288,o),
(514,1237,o),
(514,1122,cs),
(514,1092,ls),
(514,979,o),
(468,930,o),
(400,930,cs)
);
}
);
width = 802;
},
{
layerId = m007;
shapes = (
{
closed = 1;
nodes = (
(479,878,o),
(593,1007,o),
(593,1191,cs),
(593,1193,ls),
(593,1377,o),
(479,1506,o),
(317,1506,cs),
(154,1506,o),
(40,1377,o),
(40,1193,cs),
(40,1191,ls),
(40,1007,o),
(154,878,o),
(317,878,cs)
);
},
{
closed = 1;
nodes = (
(180,924,o),
(86,1034,o),
(86,1191,cs),
(86,1193,ls),
(86,1350,o),
(180,1460,o),
(317,1460,cs),
(453,1460,o),
(547,1350,o),
(547,1193,cs),
(547,1191,ls),
(547,1034,o),
(453,924,o),
(317,924,cs)
);
}
);
width = 633;
},
{
layerId = m004;
shapes = (
{
closed = 1;
nodes = (
(529,804,o),
(650,950,o),
(650,1144,cs),
(650,1174,ls),
(650,1368,o),
(529,1514,o),
(342,1514,cs),
(154,1514,o),
(32,1368,o),
(32,1174,cs),
(32,1144,ls),
(32,950,o),
(154,804,o),
(342,804,cs)
);
},
{
closed = 1;
nodes = (
(245,934,o),
(184,1013,o),
(184,1144,cs),
(184,1174,ls),
(184,1305,o),
(245,1384,o),
(342,1384,cs),
(438,1384,o),
(498,1305,o),
(498,1174,cs),
(498,1144,ls),
(498,1013,o),
(438,934,o),
(342,934,cs)
);
}
);
width = 682;
},
{
layerId = m008;
shapes = (
{
closed = 1;
nodes = (
(529,804,o),
(650,950,o),
(650,1144,cs),
(650,1174,ls),
(650,1368,o),
(529,1514,o),
(342,1514,cs),
(154,1514,o),
(32,1368,o),
(32,1174,cs),
(32,1144,ls),
(32,950,o),
(154,804,o),
(342,804,cs)
);
},
{
closed = 1;
nodes = (
(245,934,o),
(184,1013,o),
(184,1144,cs),
(184,1174,ls),
(184,1305,o),
(245,1384,o),
(342,1384,cs),
(438,1384,o),
(498,1305,o),
(498,1174,cs),
(498,1144,ls),
(498,1013,o),
(438,934,o),
(342,934,cs)
);
}
);
width = 682;
}
);
metricRight = "=|";
}
{
color = 4;
glyphname = four.cv03;
kernLeft = four;
kernRight = four;
layers = (
{
background = {
shapes = (
{
ref = four;
}
);
};
guides = (
{
pos = (0,898);
}
);
layerId = "45635B2B-919A-4B12-975B-2FA0A7CA8B35";
shapes = (
{
closed = 1;
nodes = (
(1122,422,ls),
(1122,422,o),
(1122,422,o),
(1122,422,cs),
(1122,468,ls),
(1122,468,o),
(1122,468,o),
(1122,468,cs),
(131,468,l),
(131,469,l),
(882,1490,ls),
(882,1490,o),
(882,1490,o),
(882,1490,cs),
(825,1490,ls),
(825,1490,o),
(825,1490,o),
(825,1490,cs),
(64,456,ls),
(64,456,o),
(64,456,o),
(64,456,cs),
(64,422,ls),
(64,422,o),
(64,422,o),
(64,422,cs)
);
},
{
closed = 1;
nodes = (
(887,0,ls),
(887,0,o),
(887,0,o),
(887,0,cs),
(887,898,ls),
(887,898,o),
(887,898,o),
(887,898,cs),
(841,898,ls),
(841,898,o),
(841,898,o),
(841,898,cs),
(841,0,ls),
(841,0,o),
(841,0,o),
(841,0,cs)
);
}
);
width = 1186;
},
{
background = {
shapes = (
{
closed = 1;
nodes = (
(1213,360,l),
(1213,520,l),
(256,520,l),
(256,522,l),
(957,1490,l),
(765,1490,l),
(52,508,l),
(52,360,l)
);
},
{
closed = 1;
nodes = (
(985,0,l),
(985,930,l),
(813,930,l),
(813,474,l),
(813,404,l),
(813,0,l)
);
},
{
ref = four;
}
);
};
guides = (
{
pos = (0,930);
}
);
layerId = "B487E3D2-4ABF-4A2A-A195-DC6AACAFF568";
shapes = (
{
closed = 1;
nodes = (
(1213,360,ls),
(1213,360,o),
(1213,360,o),
(1213,360,cs),
(1213,520,ls),
(1213,520,o),
(1213,520,o),
(1213,520,cs),
(256,520,l),
(256,521,l),
(957,1490,ls),
(957,1490,o),
(957,1490,o),
(957,1490,cs),
(765,1490,ls),
(765,1490,o),
(765,1490,o),
(765,1490,cs),
(52,508,ls),
(52,508,o),
(52,508,o),
(52,508,cs),
(52,360,ls),
(52,360,o),
(52,360,o),
(52,360,cs)
);
},
{
closed = 1;
nodes = (
(985,0,ls),
(985,0,o),
(985,0,o),
(985,0,cs),
(985,930,ls),
(985,930,o),
(985,930,o),
(985,930,cs),
(813,930,ls),
(813,930,o),
(813,930,o),
(813,930,cs),
(813,0,ls),
(813,0,o),
(813,0,o),
(813,0,cs)
);
}
);
width = 1265;
},
{
background = {
shapes = (
{
closed = 1;
nodes = (
(1348,288,l),
(1348,594,l),
(471,594,l),
(471,596,l),
(1074,1490,l),
(671,1490,l),
(64,602,l),
(64,288,l)
);
},
{
closed = 1;
nodes = (
(1174,0,l),
(1174,928,l),
(792,928,l),
(792,522,l),
(792,384,l),
(792,0,l)
);
},
{
ref = four;
}
);
};
guides = (
{
pos = (0,928);
}
);
layerId = m01;
shapes = (
{
closed = 1;
nodes = (
(1348,288,ls),
(1348,288,o),
(1348,288,o),
(1348,288,cs),
(1348,594,ls),
(1348,594,o),
(1348,594,o),
(1348,594,cs),
(471,594,l),
(471,595,l),
(1074,1490,l),
(1074,1490,o),
(1074,1490,o),
(1074,1490,cs),
(671,1490,ls),
(671,1490,o),
(671,1490,o),
(671,1490,cs),
(64,602,ls),
(64,602,o),
(64,602,o),
(64,602,cs),
(64,288,ls),
(64,288,o),
(64,288,o),
(64,288,cs)
);
},
{
closed = 1;
nodes = (
(1174,0,ls),
(1174,0,o),
(1174,0,o),
(1174,0,cs),
(1174,928,ls),
(1174,928,o),
(1174,928,o),
(1174,928,cs),
(792,928,ls),
(792,928,o),
(792,928,o),
(792,928,cs),
(792,0,ls),
(792,0,o),
(792,0,o),
(792,0,cs)
);
}
);
width = 1414;
},
{
background = {
shapes = (
{
ref = four;
}
);
};
guides = (
{
pos = (0,898);
}
);
layerId = m007;
shapes = (
{
closed = 1;
nodes = (
(1107,422,ls),
(1115,422,o),
(1122,429,o),
(1122,437,cs),
(1122,453,ls),
(1122,461,o),
(1115,468,o),
(1107,468,cs),
(131,468,l),
(131,469,l),
(859,1458,ls),
(869,1472,o),
(860,1490,o),
(843,1490,cs),
(832,1490,ls),
(828,1490,o),
(823,1488,o),
(821,1485,cs),
(66,459,ls),
(65,457,o),
(64,454,o),
(64,452,cs),
(64,437,ls),
(64,429,o),
(71,422,o),
(79,422,cs)
);
},
{
closed = 1;
nodes = (
(872,0,ls),
(880,0,o),
(887,7,o),
(887,15,cs),
(887,883,ls),
(887,891,o),
(880,898,o),
(872,898,cs),
(856,898,ls),
(848,898,o),
(841,891,o),
(841,883,cs),
(841,15,ls),
(841,7,o),
(848,0,o),
(856,0,cs)
);
}
);
width = 1186;
},
{
background = {
shapes = (
{
ref = four;
}
);
};
guides = (
{
pos = (0,930);
}
);
layerId = m008;
shapes = (
{
closed = 1;
nodes = (
(1180,360,ls),
(1199,360,o),
(1213,374,o),
(1213,393,cs),
(1213,487,ls),
(1213,506,o),
(1199,520,o),
(1180,520,cs),
(256,520,l),
(256,521,l),
(909,1423,ls),
(931,1453,o),
(912,1490,o),
(875,1490,cs),
(779,1490,ls),
(770,1490,o),
(762,1486,o),
(757,1479,cs),
(57,515,ls),
(54,510,o),
(52,505,o),
(52,500,cs),
(52,393,ls),
(52,374,o),
(66,360,o),
(85,360,cs)
);
},
{
closed = 1;
nodes = (
(952,0,ls),
(971,0,o),
(985,14,o),
(985,33,cs),
(985,897,ls),
(985,916,o),
(971,930,o),
(952,930,cs),
(846,930,ls),
(827,930,o),
(813,916,o),
(813,897,cs),
(813,33,ls),
(813,14,o),
(827,0,o),
(846,0,cs)
);
}
);
width = 1265;
},
{
background = {
shapes = (
{
ref = four;
}
);
};
guides = (
{
pos = (0,928);
}
);
layerId = m009;
shapes = (
{
closed = 1;
nodes = (
(1275,288,ls),
(1317,288,o),
(1348,319,o),
(1348,361,cs),
(1348,521,ls),
(1348,563,o),
(1317,594,o),
(1275,594,cs),
(471,594,l),
(471,595,l),
(976,1345,l),
(1022,1413,o),
(980,1490,o),
(899,1490,cs),
(704,1490,ls),
(683,1490,o),
(664,1481,o),
(652,1463,cs),
(74,617,ls),
(67,607,o),
(64,596,o),
(64,584,cs),
(64,361,ls),
(64,319,o),
(95,288,o),
(137,288,cs)
);
},
{
closed = 1;
nodes = (
(1101,0,ls),
(1143,0,o),
(1174,31,o),
(1174,73,cs),
(1174,855,ls),
(1174,897,o),
(1143,928,o),
(1101,928,cs),
(865,928,ls),
(823,928,o),
(792,897,o),
(792,855,cs),
(792,73,ls),
(792,31,o),
(823,0,o),
(865,0,cs)
);
}
);
width = 1414;
},
{
background = {
shapes = (
{
closed = 0;
nodes = (
(814,1475,l),
(66,459,ls),
(63,455,o),
(62,450,o),
(62,445,cs),
(62,432,o),
(73,422,o),
(85,422,cs),
(1101,422,ls),
(1113,422,o),
(1124,432,o),
(1124,445,cs),
(1124,458,o),
(1113,468,o),
(1101,468,cs),
(131,468,l),
(131,469,ls),
(131,469,o),
(141,481,o),
(153,498,cs),
(860,1461,l)
);
},
{
closed = 1;
nodes = (
(877,-2,o),
(887,9,o),
(887,21,cs),
(887,877,ls),
(887,889,o),
(877,900,o),
(864,900,cs),
(851,900,o),
(841,889,o),
(841,877,cs),
(841,21,ls),
(841,9,o),
(851,-2,o),
(864,-2,cs)
);
},
{
closed = 1;
nodes = (
(847,1448,o),
(854,1452,o),
(858,1459,cs),
(866,1473,o),
(857,1493,o),
(839,1493,cs),
(832,1493,o),
(825,1490,o),
(821,1485,cs),
(818,1481,o),
(816,1476,o),
(816,1471,cs),
(816,1458,o),
(826,1448,o),
(839,1448,cs)
);
},
{
ref = four;
}
);
};
guides = (
{
pos = (0,898);
}
);
layerId = m005;
shapes = (
{
closed = 1;
nodes = (
(1101,422,ls),
(1113,422,o),
(1124,432,o),
(1124,445,cs),
(1124,445,ls),
(1124,458,o),
(1113,468,o),
(1101,468,cs),
(131,468,l),
(131,469,l),
(858,1458,ls),
(869,1473,o),
(857,1493,o),
(839,1493,cs),
(839,1493,ls),
(832,1493,o),
(825,1490,o),
(821,1485,cs),
(68,461,ls),
(65,457,o),
(62,451,o),
(62,445,cs),
(62,445,ls),
(62,432,o),
(73,422,o),
(85,422,cs)
);
},
{
closed = 1;
nodes = (
(864,-2,ls),
(877,-2,o),
(887,9,o),
(887,21,cs),
(887,877,ls),
(887,889,o),
(877,900,o),
(864,900,cs),
(864,900,ls),
(851,900,o),
(841,889,o),
(841,877,cs),
(841,21,ls),
(841,9,o),
(851,-2,o),
(864,-2,cs)
);
}
);
width = 1186;
},
{
background = {
shapes = (
{
closed = 1;
nodes = (
(1142,360,ls),
(1186,360,o),
(1222,396,o),
(1222,440,cs),
(1222,484,o),
(1186,520,o),
(1142,520,cs),
(256,520,l),
(256,521,ls),
(256,521,o),
(267,537,o),
(294,575,cs),
(874,1376,ls),
(914,1436,o),
(868,1499,o),
(811,1499,cs),
(785,1499,o),
(762,1487,o),
(748,1467,cs),
(63,523,ls),
(51,506,o),
(43,485,o),
(43,462,cs),
(43,406,o),
(89,360,o),
(145,360,cs)
);
},
{
closed = 1;
nodes = (
(946,-9,o),
(985,30,o),
(985,77,cs),
(985,853,ls),
(985,900,o),
(946,939,o),
(899,939,cs),
(852,939,o),
(813,900,o),
(813,853,cs),
(813,77,ls),
(813,30,o),
(852,-9,o),
(899,-9,cs)
);
},
{
ref = four;
}
);
};
guides = (
{
pos = (0,930);
}
);
layerId = m004;
shapes = (
{
closed = 1;
nodes = (
(1142,360,ls),
(1186,360,o),
(1222,396,o),
(1222,440,cs),
(1222,440,ls),
(1222,484,o),
(1186,520,o),
(1142,520,cs),
(256,520,l),
(256,521,l),
(874,1376,ls),
(916,1434,o),
(868,1499,o),
(811,1499,cs),
(811,1499,ls),
(785,1499,o),
(763,1487,o),
(748,1467,cs),
(63,523,ls),
(51,506,o),
(43,485,o),
(43,462,cs),
(43,462,ls),
(43,406,o),
(89,360,o),
(145,360,cs)
);
},
{
closed = 1;
nodes = (
(899,-9,ls),
(946,-9,o),
(985,30,o),
(985,77,cs),
(985,853,ls),
(985,900,o),
(946,939,o),
(899,939,cs),
(899,939,ls),
(852,939,o),
(813,900,o),
(813,853,cs),
(813,77,ls),
(813,30,o),
(852,-9,o),
(899,-9,cs)
);
}
);
width = 1265;
},
{
background = {
shapes = (
{
closed = 1;
nodes = (
(1215,288,ls),
(1299,288,o),
(1368,356,o),
(1368,441,cs),
(1368,526,o),
(1299,594,o),
(1215,594,cs),
(471,594,l),
(471,595,ls),
(471,595,o),
(494,630,o),
(552,716,cs),
(912,1249,ls),
(982,1348,o),
(915,1510,o),
(773,1510,cs),
(716,1510,o),
(665,1481,o),
(635,1437,cs),
(82,628,ls),
(58,593,o),
(44,551,o),
(44,505,cs),
(44,385,o),
(141,288,o),
(261,288,cs)
);
},
{
closed = 1;
nodes = (
(1174,171,cs),
(1174,757,ls),
(1174,862,o),
(1088,948,o),
(983,948,cs),
(878,948,o),
(792,862,o),
(792,757,cs),
(792,171,ls),
(792,66,o),
(878,-20,o),
(983,-20,cs),
(1088,-20,o),
(1174,66,o)
);
},
{
ref = four;
}
);
};
guides = (
{
pos = (0,928);
}
);
layerId = m006;
shapes = (
{
closed = 1;
nodes = (
(1215,288,ls),
(1299,288,o),
(1368,356,o),
(1368,441,cs),
(1368,441,ls),
(1368,526,o),
(1299,594,o),
(1215,594,cs),
(491,594,l),
(491,595,l),
(932,1249,l),
(1002,1348,o),
(935,1510,o),
(793,1510,cs),
(793,1510,ls),
(736,1510,o),
(685,1481,o),
(655,1437,cs),
(102,628,ls),
(78,593,o),
(64,551,o),
(64,505,cs),
(64,505,ls),
(64,385,o),
(161,288,o),
(281,288,cs)
);
},
{
closed = 1;
nodes = (
(983,-20,ls),
(1088,-20,o),
(1174,66,o),
(1174,171,cs),
(1174,757,ls),
(1174,862,o),
(1088,948,o),
(983,948,cs),
(983,948,ls),
(878,948,o),
(792,862,o),
(792,757,cs),
(792,171,ls),
(792,66,o),
(878,-20,o),
(983,-20,cs)
);
}
);
width = 1424;
}
);
metricLeft = "=four";
metricRight = "=four";
}
{
color = 4;
glyphname = one.cv01;
kernLeft = one;
kernRight = H;
layers = (
{
background = {
shapes = (
{
closed = 1;
nodes = (
(448,0,l),
(448,1490,l),
(408,1490,l),
(371,1304,o),
(205,1244,o),
(76,1244,cs),
(74,1244,l),
(74,1198,l),
(182,1198,o),
(326,1237,o),
(405,1359,c),
(402,1361,l),
(402,0,l)
);
}
);
};
layerId = "45635B2B-919A-4B12-975B-2FA0A7CA8B35";
shapes = (
{
closed = 1;
nodes = (
(402,0,ls),
(402,0,o),
(402,0,o),
(402,0,cs),
(448,0,ls),
(448,0,o),
(448,0,o),
(448,0,cs),
(448,1490,ls),
(448,1490,o),
(448,1490,o),
(448,1490,cs),
(408,1490,ls),
(408,1490,o),
(408,1490,o),
(408,1490,cs),
(371,1304,o),
(205,1244,o),
(74,1244,cs),
(74,1244,o),
(74,1244,o),
(74,1244,cs),
(74,1198,ls),
(74,1198,o),
(74,1198,o),
(74,1198,cs),
(182,1198,o),
(326,1237,o),
(405,1359,c),
(402,1361,l)
);
}
);
width = 616;
},
{
background = {
shapes = (
{
closed = 1;
nodes = (
(592,0,l),
(592,1490,l),
(440,1490,l),
(417,1336,o),
(327,1268,o),
(144,1268,cs),
(118,1268,l),
(118,1118,l),
(288,1118,o),
(349,1118,o),
(440,1118,c),
(418,1140,l),
(418,0,l)
);
}
);
};
layerId = "B487E3D2-4ABF-4A2A-A195-DC6AACAFF568";
shapes = (
{
closed = 1;
nodes = (
(418,0,ls),
(418,0,o),
(418,0,o),
(418,0,cs),
(592,0,ls),
(592,0,o),
(592,0,o),
(592,0,cs),
(592,1490,ls),
(592,1490,o),
(592,1490,o),
(592,1490,cs),
(440,1490,ls),
(440,1490,o),
(440,1490,o),
(440,1490,cs),
(417,1336,o),
(327,1268,o),
(118,1268,cs),
(118,1268,o),
(118,1268,o),
(118,1268,cs),
(118,1118,ls),
(118,1118,o),
(118,1118,o),
(118,1118,cs),
(247,1118,o),
(344,1118,o),
(440,1118,c),
(418,1140,l)
);
}
);
width = 740;
},
{
background = {
shapes = (
{
closed = 1;
nodes = (
(765,0,l),
(765,1488,l),
(411,1488,l),
(399,1316,o),
(296,1243,o),
(146,1243,cs),
(64,1243,l),
(64,947,l),
(171,947,o),
(277,947,o),
(384,947,c),
(365,973,l),
(365,0,l)
);
}
);
};
layerId = m01;
shapes = (
{
closed = 1;
nodes = (
(365,0,ls),
(365,0,o),
(365,0,o),
(365,0,cs),
(765,0,ls),
(765,0,o),
(765,0,o),
(765,0,cs),
(765,1490,ls),
(765,1490,o),
(765,1490,o),
(765,1490,cs),
(411,1490,ls),
(411,1490,o),
(411,1490,o),
(411,1490,cs),
(399,1318,o),
(277,1245,o),
(64,1245,cs),
(64,1245,o),
(64,1245,o),
(64,1245,cs),
(64,949,ls),
(64,949,o),
(64,949,o),
(64,949,cs),
(64,949,o),
(302,949,o),
(384,949,c),
(365,975,l)
);
}
);
width = 845;
},
{
background = {
shapes = (
{
closed = 1;
nodes = (
(448,0,l),
(448,1490,l),
(408,1490,l),
(372,1310,o),
(216,1248,o),
(89,1244,cs),
(85,1244,o),
(80,1244,o),
(76,1244,cs),
(74,1244,l),
(74,1198,l),
(182,1198,o),
(326,1237,o),
(405,1359,c),
(402,1361,l),
(402,0,l)
);
}
);
};
layerId = m007;
shapes = (
{
closed = 1;
nodes = (
(402,15,ls),
(402,7,o),
(409,0,o),
(417,0,cs),
(433,0,ls),
(441,0,o),
(448,7,o),
(448,15,cs),
(448,1475,ls),
(448,1483,o),
(441,1490,o),
(433,1490,cs),
(420,1490,ls),
(413,1490,o),
(407,1485,o),
(406,1479,cs),
(372,1310,o),
(216,1248,o),
(89,1244,cs),
(81,1244,o),
(74,1237,o),
(74,1229,cs),
(74,1214,ls),
(74,1205,o),
(81,1198,o),
(89,1198,cs),
(195,1202,o),
(330,1243,o),
(405,1359,c),
(402,1361,l)
);
}
);
width = 616;
},
{
layerId = m008;
shapes = (
{
closed = 1;
nodes = (
(418,33,ls),
(418,14,o),
(432,0,o),
(451,0,cs),
(559,0,ls),
(578,0,o),
(592,14,o),
(592,33,cs),
(592,1457,ls),
(592,1476,o),
(578,1490,o),
(559,1490,cs),
(466,1490,ls),
(451,1490,o),
(439,1480,o),
(435,1464,cs),
(406,1328,o),
(317,1268,o),
(144,1268,cs),
(129,1268,o),
(118,1254,o),
(118,1235,cs),
(118,1151,ls),
(118,1132,o),
(132,1118,o),
(151,1118,cs),
(247,1118,o),
(344,1118,o),
(440,1118,c),
(418,1140,l)
);
}
);
width = 740;
},
{
layerId = m009;
shapes = (
{
closed = 1;
nodes = (
(365,73,ls),
(365,31,o),
(396,0,o),
(438,0,cs),
(692,0,ls),
(734,0,o),
(765,31,o),
(765,73,cs),
(765,1417,ls),
(765,1459,o),
(734,1490,o),
(692,1490,cs),
(471,1490,ls),
(435,1490,o),
(410,1466,o),
(402,1430,cs),
(372,1301,o),
(277,1245,o),
(137,1245,cs),
(95,1245,o),
(64,1214,o),
(64,1172,cs),
(64,1022,ls),
(64,980,o),
(95,949,o),
(137,949,cs),
(219,949,o),
(302,949,o),
(384,949,c),
(365,975,l)
);
}
);
width = 845;
},
{
background = {
shapes = (
{
closed = 1;
nodes = (
(448,21,cs),
(448,1470,ls),
(448,1482,o),
(438,1492,o),
(426,1492,cs),
(415,1492,o),
(406,1484,o),
(404,1475,cs),
(363,1308,o),
(213,1248,o),
(91,1244,cs),
(74,1243,o),
(65,1234,o),
(65,1221,cs),
(65,1205,o),
(81,1199,o),
(94,1199,cs),
(200,1203,o),
(332,1246,o),
(405,1359,c),
(402,1361,l),
(402,1326,l),
(402,21,ls),
(402,9,o),
(412,-2,o),
(425,-2,cs),
(438,-2,o),
(448,9,o)
);
}
);
};
layerId = m005;
shapes = (
{
closed = 1;
nodes = (
(402,21,ls),
(402,9,o),
(412,-2,o),
(425,-2,cs),
(425,-2,ls),
(438,-2,o),
(448,9,o),
(448,21,cs),
(448,1470,ls),
(448,1482,o),
(438,1492,o),
(426,1492,cs),
(426,1492,ls),
(415,1492,o),
(406,1484,o),
(404,1475,cs),
(363,1308,o),
(213,1248,o),
(91,1244,cs),
(74,1243,o),
(65,1234,o),
(65,1221,cs),
(65,1221,ls),
(65,1205,o),
(81,1199,o),
(94,1199,cs),
(200,1203,o),
(332,1246,o),
(405,1359,c),
(402,1361,l)
);
}
);
width = 616;
},
{
background = {
shapes = (
{
closed = 1;
nodes = (
(592,78,cs),
(592,1415,ls),
(592,1461,o),
(554,1499,o),
(508,1499,cs),
(470,1499,o),
(437,1473,o),
(427,1439,cs),
(396,1336,o),
(327,1284,o),
(208,1271,cs),
(125,1262,o),
(99,1240,o),
(99,1193,cs),
(99,1146,o),
(137,1118,o),
(184,1118,cs),
(440,1118,l),
(418,1140,l),
(418,78,ls),
(418,30,o),
(457,-9,o),
(505,-9,cs),
(553,-9,o),
(592,30,o)
);
}
);
};
layerId = m004;
shapes = (
{
closed = 1;
nodes = (
(418,78,ls),
(418,30,o),
(457,-9,o),
(505,-9,cs),
(505,-9,ls),
(553,-9,o),
(592,30,o),
(592,78,cs),
(592,1415,ls),
(592,1461,o),
(554,1499,o),
(508,1499,cs),
(508,1499,ls),
(470,1499,o),
(437,1473,o),
(427,1439,cs),
(396,1336,o),
(327,1284,o),
(208,1271,cs),
(125,1262,o),
(99,1240,o),
(99,1193,cs),
(99,1193,ls),
(99,1146,o),
(137,1118,o),
(184,1118,cs),
(280,1118,o),
(344,1118,o),
(440,1118,c),
(418,1140,l)
);
}
);
width = 740;
},
{
background = {
shapes = (
{
closed = 1;
nodes = (
(765,180,cs),
(765,1313,ls),
(765,1420,o),
(678,1508,o),
(570,1508,cs),
(488,1508,o),
(415,1458,o),
(386,1387,cs),
(349,1293,o),
(284,1263,o),
(201,1244,cs),
(85,1217,o),
(37,1181,o),
(37,1095,cs),
(37,1009,o),
(107,947,o),
(192,947,cs),
(384,947,l),
(375,960,ls),
(371,966,o),
(365,736,o),
(365,532,cs),
(365,180,ls),
(365,70,o),
(455,-20,o),
(565,-20,cs),
(675,-20,o),
(765,70,o)
);
}
);
};
layerId = m006;
shapes = (
{
closed = 1;
nodes = (
(365,180,ls),
(365,70,o),
(455,-20,o),
(565,-20,cs),
(565,-20,ls),
(675,-20,o),
(765,70,o),
(765,180,cs),
(765,1313,ls),
(765,1420,o),
(678,1508,o),
(570,1508,cs),
(570,1508,ls),
(488,1508,o),
(420,1457,o),
(386,1387,cs),
(350,1312,o),
(284,1263,o),
(201,1244,cs),
(83,1217,o),
(37,1176,o),
(37,1095,cs),
(37,1095,ls),
(37,1009,o),
(107,947,o),
(192,947,cs),
(274,947,o),
(302,947,o),
(384,947,c),
(365,973,l)
);
}
);
width = 845;
}
);
metricRight = "=one";
}
{
color = 4;
glyphname = one.tf.cv01;
layers = (
{
layerId = "45635B2B-919A-4B12-975B-2FA0A7CA8B35";
shapes = (
{
closed = 1;
nodes = (
(649,20,ls),
(649,20,o),
(649,20,o),
(649,20,cs),
(695,20,ls),
(695,20,o),
(695,20,o),
(695,20,cs),
(695,1490,ls),
(695,1490,o),
(695,1490,o),
(695,1490,cs),
(655,1490,ls),
(655,1490,o),
(655,1490,o),
(655,1490,cs),
(618,1304,o),
(452,1244,o),
(321,1244,cs),
(321,1244,o),
(321,1244,o),
(321,1244,cs),
(321,1198,ls),
(321,1198,o),
(321,1198,o),
(321,1198,cs),
(429,1198,o),
(573,1237,o),
(652,1359,c),
(649,1361,l)
);
},
{
piece = {
Width = 818;
};
pos = (-364,-559);
ref = _part.strline;
}
);
width = 1320;
},
{
layerId = m007;
shapes = (
{
closed = 1;
nodes = (
(649,35,ls),
(649,27,o),
(656,20,o),
(664,20,cs),
(680,20,ls),
(688,20,o),
(695,27,o),
(695,35,cs),
(695,1475,ls),
(695,1483,o),
(688,1490,o),
(680,1490,cs),
(667,1490,ls),
(660,1490,o),
(654,1485,o),
(653,1479,cs),
(619,1310,o),
(463,1248,o),
(336,1244,cs),
(328,1244,o),
(321,1237,o),
(321,1229,cs),
(321,1214,ls),
(321,1205,o),
(328,1198,o),
(336,1198,cs),
(442,1202,o),
(577,1243,o),
(652,1359,c),
(649,1361,l)
);
},
{
piece = {
Width = 818;
};
pos = (-364,-559);
ref = _part.strline;
}
);
width = 1320;
},
{
layerId = m005;
shapes = (
{
closed = 1;
nodes = (
(649,41,ls),
(649,29,o),
(659,18,o),
(672,18,cs),
(672,18,ls),
(685,18,o),
(695,29,o),
(695,41,cs),
(695,1470,ls),
(695,1482,o),
(685,1492,o),
(673,1492,cs),
(673,1492,ls),
(662,1492,o),
(653,1484,o),
(651,1475,cs),
(610,1308,o),
(460,1248,o),
(338,1244,cs),
(321,1243,o),
(312,1234,o),
(312,1221,cs),
(312,1221,ls),
(312,1205,o),
(328,1199,o),
(341,1199,cs),
(447,1203,o),
(579,1246,o),
(652,1359,c),
(649,1361,l)
);
},
{
piece = {
Width = 818;
};
pos = (-364,-559);
ref = _part.strline;
}
);
width = 1320;
},
{
layerId = "B487E3D2-4ABF-4A2A-A195-DC6AACAFF568";
shapes = (
{
closed = 1;
nodes = (
(604,20,ls),
(604,20,o),
(604,20,o),
(604,20,cs),
(778,20,ls),
(778,20,o),
(778,20,o),
(778,20,cs),
(778,1490,ls),
(778,1490,o),
(778,1490,o),
(778,1490,cs),
(626,1490,ls),
(626,1490,o),
(626,1490,o),
(626,1490,cs),
(603,1336,o),
(513,1268,o),
(304,1268,cs),
(304,1268,o),
(304,1268,o),
(304,1268,cs),
(304,1118,ls),
(304,1118,o),
(304,1118,o),
(304,1118,cs),
(433,1118,o),
(530,1118,o),
(626,1118,c),
(604,1140,l)
);
},
{
piece = {
Width = 920;
};
pos = (-364,-500);
ref = _part.strline;
}
);
width = 1320;
},
{
layerId = m008;
shapes = (
{
closed = 1;
nodes = (
(604,53,ls),
(604,34,o),
(618,20,o),
(637,20,cs),
(745,20,ls),
(764,20,o),
(778,34,o),
(778,53,cs),
(778,1457,ls),
(778,1476,o),
(764,1490,o),
(745,1490,cs),
(652,1490,ls),
(637,1490,o),
(625,1480,o),
(621,1464,cs),
(592,1328,o),
(503,1268,o),
(330,1268,cs),
(315,1268,o),
(304,1254,o),
(304,1235,cs),
(304,1151,ls),
(304,1132,o),
(318,1118,o),
(337,1118,cs),
(433,1118,o),
(530,1118,o),
(626,1118,c),
(604,1140,l)
);
},
{
piece = {
Width = 920;
};
pos = (-364,-500);
ref = _part.strline;
}
);
width = 1320;
},
{
layerId = m004;
shapes = (
{
closed = 1;
nodes = (
(604,98,ls),
(604,50,o),
(643,11,o),
(691,11,cs),
(691,11,ls),
(739,11,o),
(778,50,o),
(778,98,cs),
(778,1415,ls),
(778,1461,o),
(740,1499,o),
(694,1499,cs),
(694,1499,ls),
(656,1499,o),
(623,1473,o),
(613,1439,cs),
(582,1336,o),
(513,1284,o),
(394,1271,cs),
(311,1262,o),
(285,1240,o),
(285,1193,cs),
(285,1193,ls),
(285,1146,o),
(323,1118,o),
(370,1118,cs),
(466,1118,o),
(530,1118,o),
(626,1118,c),
(604,1140,l)
);
},
{
piece = {
Width = 920;
};
pos = (-364,-500);
ref = _part.strline;
}
);
width = 1320;
},
{
layerId = m01;
shapes = (
{
closed = 1;
nodes = (
(501,20,ls),
(501,20,o),
(501,20,o),
(501,20,cs),
(901,20,ls),
(901,20,o),
(901,20,o),
(901,20,cs),
(901,1488,ls),
(901,1488,o),
(901,1488,o),
(901,1488,cs),
(547,1488,ls),
(547,1488,o),
(547,1488,o),
(547,1488,cs),
(535,1316,o),
(413,1243,o),
(200,1243,cs),
(200,1243,o),
(200,1243,o),
(200,1243,cs),
(200,947,ls),
(200,947,o),
(200,947,o),
(200,947,cs),
(200,947,o),
(438,947,o),
(520,947,c),
(501,973,l)
);
},
{
piece = {
Width = 1024;
};
pos = (-364,-442);
ref = _part.strline;
}
);
width = 1320;
},
{
layerId = m009;
shapes = (
{
closed = 1;
nodes = (
(501,93,ls),
(501,51,o),
(532,20,o),
(574,20,cs),
(828,20,ls),
(870,20,o),
(901,51,o),
(901,93,cs),
(901,1415,ls),
(901,1457,o),
(870,1488,o),
(828,1488,cs),
(607,1488,ls),
(571,1488,o),
(546,1464,o),
(538,1428,cs),
(508,1299,o),
(413,1243,o),
(273,1243,cs),
(231,1243,o),
(200,1212,o),
(200,1170,cs),
(200,1020,ls),
(200,978,o),
(231,947,o),
(273,947,cs),
(355,947,o),
(438,947,o),
(520,947,c),
(501,973,l)
);
},
{
piece = {
Width = 1024;
};
pos = (-364,-442);
ref = _part.strline;
}
);
width = 1320;
},
{
layerId = m006;
shapes = (
{
closed = 1;
nodes = (
(501,200,ls),
(501,90,o),
(591,0,o),
(701,0,cs),
(701,0,ls),
(811,0,o),
(901,90,o),
(901,200,cs),
(901,1313,ls),
(901,1420,o),
(814,1508,o),
(706,1508,cs),
(706,1508,ls),
(624,1508,o),
(556,1457,o),
(522,1387,cs),
(486,1312,o),
(420,1263,o),
(337,1244,cs),
(219,1217,o),
(173,1176,o),
(173,1095,cs),
(173,1095,ls),
(173,1009,o),
(243,947,o),
(328,947,cs),
(410,947,o),
(438,947,o),
(520,947,c),
(501,973,l)
);
},
{
piece = {
Width = 960;
};
pos = (-364,-442);
ref = _part.strline;
}
);
width = 1320;
}
);
metricWidth = zero.tf;
}
{
color = 4;
glyphname = one.tf;
layers = (
{
layerId = m009;
shapes = (
{
closed = 1;
nodes = (
(886,1490,o),
(917,1459,o),
(917,1417,cs),
(917,93,ls),
(917,51,o),
(886,20,o),
(844,20,cs),
(590,20,ls),
(548,20,o),
(517,51,o),
(517,93,cs),
(517,1125,l),
(515,1125,l),
(322,1007,ls),
(256,966,o),
(183,1007,o),
(183,1084,cs),
(183,1231,ls),
(183,1253,o),
(194,1272,o),
(213,1284,cs),
(535,1482,ls),
(544,1488,o),
(555,1490,o),
(565,1490,cs),
(844,1490,ls)
);
},
{
attr = {
reversePaths = "1";
};
piece = {
Width = 1024;
};
pos = (-364,-442);
ref = _part.strline;
}
);
width = 1320;
},
{
layerId = "B487E3D2-4ABF-4A2A-A195-DC6AACAFF568";
shapes = (
{
closed = 1;
nodes = (
(783,1490,o),
(783,1490,o),
(783,1490,cs),
(783,20,ls),
(783,20,o),
(783,20,o),
(783,20,cs),
(609,20,ls),
(609,20,o),
(609,20,o),
(609,20,cs),
(609,1304,l),
(608,1304,l),
(237,1058,ls),
(237,1058,o),
(237,1058,o),
(237,1058,cs),
(237,1242,ls),
(237,1242,o),
(237,1242,o),
(237,1242,cs),
(609,1490,ls),
(609,1490,o),
(609,1490,o),
(609,1490,cs),
(783,1490,ls)
);
},
{
attr = {
reversePaths = "1";
};
piece = {
Width = 920;
};
pos = (-364,-500);
ref = _part.strline;
}
);
width = 1320;
},
{
layerId = m005;
shapes = (
{
closed = 1;
nodes = (
(677,1498,o),
(695,1480,o),
(695,1458,cs),
(695,41,ls),
(695,29,o),
(685,18,o),
(672,18,cs),
(672,18,ls),
(659,18,o),
(649,29,o),
(649,41,cs),
(649,1450,l),
(648,1450,l),
(354,1250,ls),
(340,1240,o),
(319,1249,o),
(319,1268,cs),
(319,1268,ls),
(319,1276,o),
(323,1283,o),
(329,1287,cs),
(617,1485,ls),
(626,1491,o),
(637,1498,o),
(656,1498,cs),
(656,1498,ls)
);
},
{
attr = {
reversePaths = "1";
};
piece = {
Width = 818;
};
pos = (-364,-559);
ref = _part.strline;
}
);
width = 1320;
},
{
layerId = "45635B2B-919A-4B12-975B-2FA0A7CA8B35";
shapes = (
{
closed = 1;
nodes = (
(695,1490,o),
(695,1490,o),
(695,1490,cs),
(695,20,ls),
(695,20,o),
(695,20,o),
(695,20,cs),
(649,20,ls),
(649,20,o),
(649,20,o),
(649,20,cs),
(649,1446,l),
(647,1446,l),
(321,1228,ls),
(321,1228,o),
(321,1228,o),
(321,1228,cs),
(321,1282,ls),
(321,1282,o),
(321,1282,o),
(321,1282,cs),
(631,1490,ls),
(631,1490,o),
(631,1490,o),
(631,1490,cs),
(695,1490,ls)
);
},
{
attr = {
reversePaths = 1;
};
piece = {
Width = 818;
};
pos = (-364,-559);
ref = _part.strline;
}
);
width = 1320;
},
{
layerId = m01;
shapes = (
{
closed = 1;
nodes = (
(917,1490,o),
(917,1490,o),
(917,1490,cs),
(917,20,ls),
(917,20,o),
(917,20,o),
(917,20,cs),
(517,20,ls),
(517,20,o),
(517,20,o),
(517,20,cs),
(517,1125,l),
(515,1125,l),
(183,922,ls),
(183,922,o),
(183,922,o),
(183,922,cs),
(183,1266,ls),
(183,1266,o),
(183,1266,o),
(183,1266,cs),
(535,1482,ls),
(544,1488,o),
(555,1490,o),
(565,1490,cs),
(917,1490,ls)
);
},
{
attr = {
reversePaths = "1";
};
piece = {
Width = 1024;
};
pos = (-364,-442);
ref = _part.strline;
}
);
width = 1320;
},
{
layerId = m006;
shapes = (
{
closed = 1;
nodes = (
(797,1510,o),
(914,1393,o),
(914,1249,cs),
(914,200,ls),
(914,90,o),
(824,0,o),
(714,0,cs),
(714,0,ls),
(604,0,o),
(514,90,o),
(514,200,cs),
(514,1125,l),
(512,1125,l),
(376,1042,ls),
(283,985,o),
(151,1045,o),
(151,1166,cs),
(151,1166,ls),
(151,1219,o),
(179,1266,o),
(220,1291,cs),
(516,1472,ls),
(556,1497,o),
(603,1510,o),
(653,1510,cs),
(653,1510,ls)
);
},
{
attr = {
reversePaths = "1";
};
piece = {
Width = 960;
};
pos = (-364,-442);
ref = _part.strline;
}
);
width = 1320;
},
{
layerId = m007;
shapes = (
{
closed = 1;
nodes = (
(689,1490,o),
(695,1484,o),
(695,1477,cs),
(695,33,ls),
(695,26,o),
(689,20,o),
(682,20,cs),
(662,20,ls),
(655,20,o),
(649,26,o),
(649,33,cs),
(649,1446,l),
(647,1446,l),
(347,1245,ls),
(335,1237,o),
(321,1243,o),
(321,1255,cs),
(321,1276,ls),
(321,1279,o),
(323,1283,o),
(326,1285,cs),
(628,1488,ls),
(629,1489,o),
(632,1490,o),
(634,1490,cs),
(682,1490,ls)
);
},
{
attr = {
reversePaths = "1";
};
piece = {
Width = 818;
};
pos = (-364,-559);
ref = _part.strline;
}
);
width = 1320;
},
{
layerId = m004;
shapes = (
{
closed = 1;
nodes = (
(739,1499,o),
(794,1444,o),
(794,1376,cs),
(794,98,ls),
(794,50,o),
(755,11,o),
(707,11,c),
(707,11,ls),
(659,11,o),
(620,50,o),
(620,98,cs),
(620,1304,l),
(619,1304,l),
(358,1131,ls),
(307,1097,o),
(239,1133,o),
(239,1195,c),
(239,1195,ls),
(239,1222,o),
(253,1245,o),
(273,1259,cs),
(602,1478,ls),
(621,1491,o),
(646,1499,o),
(671,1499,cs),
(671,1499,l)
);
},
{
attr = {
reversePaths = "1";
};
piece = {
Width = 920;
};
pos = (-364,-500);
ref = _part.strline;
}
);
width = 1320;
},
{
layerId = m008;
shapes = (
{
closed = 1;
nodes = (
(769,1490,o),
(783,1476,o),
(783,1457,cs),
(783,53,ls),
(783,34,o),
(769,20,o),
(750,20,cs),
(642,20,ls),
(623,20,o),
(609,34,o),
(609,53,cs),
(609,1304,l),
(608,1304,l),
(301,1100,ls),
(271,1080,o),
(237,1099,o),
(237,1135,cs),
(237,1227,ls),
(237,1236,o),
(241,1244,o),
(249,1250,cs),
(603,1486,ls),
(607,1489,o),
(612,1490,o),
(617,1490,cs),
(750,1490,ls)
);
},
{
attr = {
reversePaths = "1";
};
piece = {
Width = 920;
};
pos = (-364,-500);
ref = _part.strline;
}
);
width = 1320;
}
);
metricWidth = zero.tf;
}
